%TF.GenerationSoftware,KiCad,Pcbnew,8.0.4*%
%TF.CreationDate,2024-10-13T11:01:52+03:00*%
%TF.ProjectId,stm32f0_nucleo,73746d33-3266-4305-9f6e-75636c656f2e,rev?*%
%TF.SameCoordinates,Original*%
%TF.FileFunction,Drillmap*%
%TF.FilePolarity,Positive*%
%FSLAX45Y45*%
G04 Gerber Fmt 4.5, Leading zero omitted, Abs format (unit mm)*
G04 Created by KiCad (PCBNEW 8.0.4) date 2024-10-13 11:01:52*
%MOMM*%
%LPD*%
G01*
G04 APERTURE LIST*
%ADD10C,0.100000*%
%ADD11C,0.200000*%
G04 APERTURE END LIST*
D10*
X13750000Y-5750000D02*
X15750000Y-5750000D01*
X15750000Y-11050000D01*
X13750000Y-11050000D01*
X13750000Y-5750000D01*
D11*
D10*
X14182000Y-8390000D02*
X14212000Y-8420000D01*
X14212000Y-8390000D02*
X14182000Y-8420000D01*
X14171500Y-9285000D02*
G75*
G02*
X14136500Y-9285000I-17500J0D01*
G01*
X14136500Y-9285000D02*
G75*
G02*
X14171500Y-9285000I17500J0D01*
G01*
X14206500Y-9382000D02*
G75*
G02*
X14171500Y-9382000I-17500J0D01*
G01*
X14171500Y-9382000D02*
G75*
G02*
X14206500Y-9382000I17500J0D01*
G01*
X14210500Y-8533000D02*
G75*
G02*
X14175500Y-8533000I-17500J0D01*
G01*
X14175500Y-8533000D02*
G75*
G02*
X14210500Y-8533000I17500J0D01*
G01*
X14245500Y-8620000D02*
G75*
G02*
X14210500Y-8620000I-17500J0D01*
G01*
X14210500Y-8620000D02*
G75*
G02*
X14245500Y-8620000I17500J0D01*
G01*
X14283500Y-9503000D02*
G75*
G02*
X14248500Y-9503000I-17500J0D01*
G01*
X14248500Y-9503000D02*
G75*
G02*
X14283500Y-9503000I17500J0D01*
G01*
X14499500Y-10253000D02*
G75*
G02*
X14464500Y-10253000I-17500J0D01*
G01*
X14464500Y-10253000D02*
G75*
G02*
X14499500Y-10253000I17500J0D01*
G01*
X14500500Y-7874000D02*
G75*
G02*
X14465500Y-7874000I-17500J0D01*
G01*
X14465500Y-7874000D02*
G75*
G02*
X14500500Y-7874000I17500J0D01*
G01*
X14508500Y-8080000D02*
G75*
G02*
X14473500Y-8080000I-17500J0D01*
G01*
X14473500Y-8080000D02*
G75*
G02*
X14508500Y-8080000I17500J0D01*
G01*
X14511500Y-7975000D02*
G75*
G02*
X14476500Y-7975000I-17500J0D01*
G01*
X14476500Y-7975000D02*
G75*
G02*
X14511500Y-7975000I17500J0D01*
G01*
X14514500Y-8205000D02*
G75*
G02*
X14479500Y-8205000I-17500J0D01*
G01*
X14479500Y-8205000D02*
G75*
G02*
X14514500Y-8205000I17500J0D01*
G01*
X14580500Y-8277000D02*
G75*
G02*
X14545500Y-8277000I-17500J0D01*
G01*
X14545500Y-8277000D02*
G75*
G02*
X14580500Y-8277000I17500J0D01*
G01*
X14594500Y-9487000D02*
G75*
G02*
X14559500Y-9487000I-17500J0D01*
G01*
X14559500Y-9487000D02*
G75*
G02*
X14594500Y-9487000I17500J0D01*
G01*
X14597500Y-7382000D02*
G75*
G02*
X14562500Y-7382000I-17500J0D01*
G01*
X14562500Y-7382000D02*
G75*
G02*
X14597500Y-7382000I17500J0D01*
G01*
X14623500Y-8360000D02*
G75*
G02*
X14588500Y-8360000I-17500J0D01*
G01*
X14588500Y-8360000D02*
G75*
G02*
X14623500Y-8360000I17500J0D01*
G01*
X14649500Y-9624000D02*
G75*
G02*
X14614500Y-9624000I-17500J0D01*
G01*
X14614500Y-9624000D02*
G75*
G02*
X14649500Y-9624000I17500J0D01*
G01*
X14674500Y-8277000D02*
G75*
G02*
X14639500Y-8277000I-17500J0D01*
G01*
X14639500Y-8277000D02*
G75*
G02*
X14674500Y-8277000I17500J0D01*
G01*
X14675500Y-10055000D02*
G75*
G02*
X14640500Y-10055000I-17500J0D01*
G01*
X14640500Y-10055000D02*
G75*
G02*
X14675500Y-10055000I17500J0D01*
G01*
X14736500Y-8383000D02*
G75*
G02*
X14701500Y-8383000I-17500J0D01*
G01*
X14701500Y-8383000D02*
G75*
G02*
X14736500Y-8383000I17500J0D01*
G01*
X14775500Y-10276000D02*
G75*
G02*
X14740500Y-10276000I-17500J0D01*
G01*
X14740500Y-10276000D02*
G75*
G02*
X14775500Y-10276000I17500J0D01*
G01*
X14813500Y-7958000D02*
G75*
G02*
X14778500Y-7958000I-17500J0D01*
G01*
X14778500Y-7958000D02*
G75*
G02*
X14813500Y-7958000I17500J0D01*
G01*
X14879500Y-6899000D02*
G75*
G02*
X14844500Y-6899000I-17500J0D01*
G01*
X14844500Y-6899000D02*
G75*
G02*
X14879500Y-6899000I17500J0D01*
G01*
X14901500Y-7567000D02*
G75*
G02*
X14866500Y-7567000I-17500J0D01*
G01*
X14866500Y-7567000D02*
G75*
G02*
X14901500Y-7567000I17500J0D01*
G01*
X14904500Y-8441000D02*
G75*
G02*
X14869500Y-8441000I-17500J0D01*
G01*
X14869500Y-8441000D02*
G75*
G02*
X14904500Y-8441000I17500J0D01*
G01*
X14928500Y-8015000D02*
G75*
G02*
X14893500Y-8015000I-17500J0D01*
G01*
X14893500Y-8015000D02*
G75*
G02*
X14928500Y-8015000I17500J0D01*
G01*
X14933500Y-8263000D02*
G75*
G02*
X14898500Y-8263000I-17500J0D01*
G01*
X14898500Y-8263000D02*
G75*
G02*
X14933500Y-8263000I17500J0D01*
G01*
X14989500Y-9764000D02*
G75*
G02*
X14954500Y-9764000I-17500J0D01*
G01*
X14954500Y-9764000D02*
G75*
G02*
X14989500Y-9764000I17500J0D01*
G01*
X15012500Y-7926000D02*
G75*
G02*
X14977500Y-7926000I-17500J0D01*
G01*
X14977500Y-7926000D02*
G75*
G02*
X15012500Y-7926000I17500J0D01*
G01*
X15180500Y-10232000D02*
G75*
G02*
X15145500Y-10232000I-17500J0D01*
G01*
X15145500Y-10232000D02*
G75*
G02*
X15180500Y-10232000I17500J0D01*
G01*
X15190500Y-7796000D02*
G75*
G02*
X15155500Y-7796000I-17500J0D01*
G01*
X15155500Y-7796000D02*
G75*
G02*
X15190500Y-7796000I17500J0D01*
G01*
X15217500Y-7657000D02*
G75*
G02*
X15182500Y-7657000I-17500J0D01*
G01*
X15182500Y-7657000D02*
G75*
G02*
X15217500Y-7657000I17500J0D01*
G01*
X14000000Y-5950000D02*
X14000000Y-6050000D01*
X13950000Y-6000000D02*
X14050000Y-6000000D01*
X14000000Y-6204000D02*
X14000000Y-6304000D01*
X13950000Y-6254000D02*
X14050000Y-6254000D01*
X14000000Y-6458000D02*
X14000000Y-6558000D01*
X13950000Y-6508000D02*
X14050000Y-6508000D01*
X14000000Y-6712000D02*
X14000000Y-6812000D01*
X13950000Y-6762000D02*
X14050000Y-6762000D01*
X14000000Y-6966000D02*
X14000000Y-7066000D01*
X13950000Y-7016000D02*
X14050000Y-7016000D01*
X14000000Y-7220000D02*
X14000000Y-7320000D01*
X13950000Y-7270000D02*
X14050000Y-7270000D01*
X14000000Y-7474000D02*
X14000000Y-7574000D01*
X13950000Y-7524000D02*
X14050000Y-7524000D01*
X14000000Y-7728000D02*
X14000000Y-7828000D01*
X13950000Y-7778000D02*
X14050000Y-7778000D01*
X14000000Y-7982000D02*
X14000000Y-8082000D01*
X13950000Y-8032000D02*
X14050000Y-8032000D01*
X14000000Y-8236000D02*
X14000000Y-8336000D01*
X13950000Y-8286000D02*
X14050000Y-8286000D01*
X14000000Y-8490000D02*
X14000000Y-8590000D01*
X13950000Y-8540000D02*
X14050000Y-8540000D01*
X14000000Y-8744000D02*
X14000000Y-8844000D01*
X13950000Y-8794000D02*
X14050000Y-8794000D01*
X14000000Y-8998000D02*
X14000000Y-9098000D01*
X13950000Y-9048000D02*
X14050000Y-9048000D01*
X14000000Y-9252000D02*
X14000000Y-9352000D01*
X13950000Y-9302000D02*
X14050000Y-9302000D01*
X14000000Y-9506000D02*
X14000000Y-9606000D01*
X13950000Y-9556000D02*
X14050000Y-9556000D01*
X14000000Y-9760000D02*
X14000000Y-9860000D01*
X13950000Y-9810000D02*
X14050000Y-9810000D01*
X14000000Y-10014000D02*
X14000000Y-10114000D01*
X13950000Y-10064000D02*
X14050000Y-10064000D01*
X14000000Y-10268000D02*
X14000000Y-10368000D01*
X13950000Y-10318000D02*
X14050000Y-10318000D01*
X14000000Y-10522000D02*
X14000000Y-10622000D01*
X13950000Y-10572000D02*
X14050000Y-10572000D01*
X14000000Y-10776000D02*
X14000000Y-10876000D01*
X13950000Y-10826000D02*
X14050000Y-10826000D01*
X14364000Y-10776000D02*
X14364000Y-10876000D01*
X14314000Y-10826000D02*
X14414000Y-10826000D01*
X14456000Y-6040000D02*
X14456000Y-6140000D01*
X14406000Y-6090000D02*
X14506000Y-6090000D01*
X14618000Y-10776000D02*
X14618000Y-10876000D01*
X14568000Y-10826000D02*
X14668000Y-10826000D01*
X14710000Y-6040000D02*
X14710000Y-6140000D01*
X14660000Y-6090000D02*
X14760000Y-6090000D01*
X14872000Y-10776000D02*
X14872000Y-10876000D01*
X14822000Y-10826000D02*
X14922000Y-10826000D01*
X14964000Y-6040000D02*
X14964000Y-6140000D01*
X14914000Y-6090000D02*
X15014000Y-6090000D01*
X15126000Y-10776000D02*
X15126000Y-10876000D01*
X15076000Y-10826000D02*
X15176000Y-10826000D01*
X15500000Y-5950000D02*
X15500000Y-6050000D01*
X15450000Y-6000000D02*
X15550000Y-6000000D01*
X15500000Y-6204000D02*
X15500000Y-6304000D01*
X15450000Y-6254000D02*
X15550000Y-6254000D01*
X15500000Y-6458000D02*
X15500000Y-6558000D01*
X15450000Y-6508000D02*
X15550000Y-6508000D01*
X15500000Y-6712000D02*
X15500000Y-6812000D01*
X15450000Y-6762000D02*
X15550000Y-6762000D01*
X15500000Y-6966000D02*
X15500000Y-7066000D01*
X15450000Y-7016000D02*
X15550000Y-7016000D01*
X15500000Y-7220000D02*
X15500000Y-7320000D01*
X15450000Y-7270000D02*
X15550000Y-7270000D01*
X15500000Y-7474000D02*
X15500000Y-7574000D01*
X15450000Y-7524000D02*
X15550000Y-7524000D01*
X15500000Y-7728000D02*
X15500000Y-7828000D01*
X15450000Y-7778000D02*
X15550000Y-7778000D01*
X15500000Y-7982000D02*
X15500000Y-8082000D01*
X15450000Y-8032000D02*
X15550000Y-8032000D01*
X15500000Y-8236000D02*
X15500000Y-8336000D01*
X15450000Y-8286000D02*
X15550000Y-8286000D01*
X15500000Y-8490000D02*
X15500000Y-8590000D01*
X15450000Y-8540000D02*
X15550000Y-8540000D01*
X15500000Y-8744000D02*
X15500000Y-8844000D01*
X15450000Y-8794000D02*
X15550000Y-8794000D01*
X15500000Y-8998000D02*
X15500000Y-9098000D01*
X15450000Y-9048000D02*
X15550000Y-9048000D01*
X15500000Y-9252000D02*
X15500000Y-9352000D01*
X15450000Y-9302000D02*
X15550000Y-9302000D01*
X15500000Y-9506000D02*
X15500000Y-9606000D01*
X15450000Y-9556000D02*
X15550000Y-9556000D01*
X15500000Y-9760000D02*
X15500000Y-9860000D01*
X15450000Y-9810000D02*
X15550000Y-9810000D01*
X15500000Y-10014000D02*
X15500000Y-10114000D01*
X15450000Y-10064000D02*
X15550000Y-10064000D01*
X15500000Y-10268000D02*
X15500000Y-10368000D01*
X15450000Y-10318000D02*
X15550000Y-10318000D01*
X15500000Y-10522000D02*
X15500000Y-10622000D01*
X15450000Y-10572000D02*
X15550000Y-10572000D01*
X15500000Y-10776000D02*
X15500000Y-10876000D01*
X15450000Y-10826000D02*
X15550000Y-10826000D01*
D11*
X14005777Y-11366484D02*
X14005777Y-11166484D01*
X14005777Y-11166484D02*
X14053396Y-11166484D01*
X14053396Y-11166484D02*
X14081967Y-11176008D01*
X14081967Y-11176008D02*
X14101015Y-11195055D01*
X14101015Y-11195055D02*
X14110539Y-11214103D01*
X14110539Y-11214103D02*
X14120062Y-11252198D01*
X14120062Y-11252198D02*
X14120062Y-11280769D01*
X14120062Y-11280769D02*
X14110539Y-11318865D01*
X14110539Y-11318865D02*
X14101015Y-11337912D01*
X14101015Y-11337912D02*
X14081967Y-11356960D01*
X14081967Y-11356960D02*
X14053396Y-11366484D01*
X14053396Y-11366484D02*
X14005777Y-11366484D01*
X14205777Y-11366484D02*
X14205777Y-11233150D01*
X14205777Y-11271246D02*
X14215301Y-11252198D01*
X14215301Y-11252198D02*
X14224824Y-11242674D01*
X14224824Y-11242674D02*
X14243872Y-11233150D01*
X14243872Y-11233150D02*
X14262920Y-11233150D01*
X14329586Y-11366484D02*
X14329586Y-11233150D01*
X14329586Y-11166484D02*
X14320062Y-11176008D01*
X14320062Y-11176008D02*
X14329586Y-11185531D01*
X14329586Y-11185531D02*
X14339110Y-11176008D01*
X14339110Y-11176008D02*
X14329586Y-11166484D01*
X14329586Y-11166484D02*
X14329586Y-11185531D01*
X14453396Y-11366484D02*
X14434348Y-11356960D01*
X14434348Y-11356960D02*
X14424824Y-11337912D01*
X14424824Y-11337912D02*
X14424824Y-11166484D01*
X14558158Y-11366484D02*
X14539110Y-11356960D01*
X14539110Y-11356960D02*
X14529586Y-11337912D01*
X14529586Y-11337912D02*
X14529586Y-11166484D01*
X14786729Y-11366484D02*
X14786729Y-11166484D01*
X14786729Y-11166484D02*
X14853396Y-11309341D01*
X14853396Y-11309341D02*
X14920062Y-11166484D01*
X14920062Y-11166484D02*
X14920062Y-11366484D01*
X15101015Y-11366484D02*
X15101015Y-11261722D01*
X15101015Y-11261722D02*
X15091491Y-11242674D01*
X15091491Y-11242674D02*
X15072443Y-11233150D01*
X15072443Y-11233150D02*
X15034348Y-11233150D01*
X15034348Y-11233150D02*
X15015301Y-11242674D01*
X15101015Y-11356960D02*
X15081967Y-11366484D01*
X15081967Y-11366484D02*
X15034348Y-11366484D01*
X15034348Y-11366484D02*
X15015301Y-11356960D01*
X15015301Y-11356960D02*
X15005777Y-11337912D01*
X15005777Y-11337912D02*
X15005777Y-11318865D01*
X15005777Y-11318865D02*
X15015301Y-11299817D01*
X15015301Y-11299817D02*
X15034348Y-11290293D01*
X15034348Y-11290293D02*
X15081967Y-11290293D01*
X15081967Y-11290293D02*
X15101015Y-11280769D01*
X15196253Y-11233150D02*
X15196253Y-11433150D01*
X15196253Y-11242674D02*
X15215301Y-11233150D01*
X15215301Y-11233150D02*
X15253396Y-11233150D01*
X15253396Y-11233150D02*
X15272443Y-11242674D01*
X15272443Y-11242674D02*
X15281967Y-11252198D01*
X15281967Y-11252198D02*
X15291491Y-11271246D01*
X15291491Y-11271246D02*
X15291491Y-11328388D01*
X15291491Y-11328388D02*
X15281967Y-11347436D01*
X15281967Y-11347436D02*
X15272443Y-11356960D01*
X15272443Y-11356960D02*
X15253396Y-11366484D01*
X15253396Y-11366484D02*
X15215301Y-11366484D01*
X15215301Y-11366484D02*
X15196253Y-11356960D01*
X15377205Y-11347436D02*
X15386729Y-11356960D01*
X15386729Y-11356960D02*
X15377205Y-11366484D01*
X15377205Y-11366484D02*
X15367682Y-11356960D01*
X15367682Y-11356960D02*
X15377205Y-11347436D01*
X15377205Y-11347436D02*
X15377205Y-11366484D01*
X15377205Y-11242674D02*
X15386729Y-11252198D01*
X15386729Y-11252198D02*
X15377205Y-11261722D01*
X15377205Y-11261722D02*
X15367682Y-11252198D01*
X15367682Y-11252198D02*
X15377205Y-11242674D01*
X15377205Y-11242674D02*
X15377205Y-11261722D01*
D10*
X13715000Y-11680000D02*
X13745000Y-11710000D01*
X13745000Y-11680000D02*
X13715000Y-11710000D01*
D11*
X14043872Y-11586484D02*
X14062920Y-11586484D01*
X14062920Y-11586484D02*
X14081967Y-11596008D01*
X14081967Y-11596008D02*
X14091491Y-11605531D01*
X14091491Y-11605531D02*
X14101015Y-11624579D01*
X14101015Y-11624579D02*
X14110539Y-11662674D01*
X14110539Y-11662674D02*
X14110539Y-11710293D01*
X14110539Y-11710293D02*
X14101015Y-11748388D01*
X14101015Y-11748388D02*
X14091491Y-11767436D01*
X14091491Y-11767436D02*
X14081967Y-11776960D01*
X14081967Y-11776960D02*
X14062920Y-11786484D01*
X14062920Y-11786484D02*
X14043872Y-11786484D01*
X14043872Y-11786484D02*
X14024824Y-11776960D01*
X14024824Y-11776960D02*
X14015301Y-11767436D01*
X14015301Y-11767436D02*
X14005777Y-11748388D01*
X14005777Y-11748388D02*
X13996253Y-11710293D01*
X13996253Y-11710293D02*
X13996253Y-11662674D01*
X13996253Y-11662674D02*
X14005777Y-11624579D01*
X14005777Y-11624579D02*
X14015301Y-11605531D01*
X14015301Y-11605531D02*
X14024824Y-11596008D01*
X14024824Y-11596008D02*
X14043872Y-11586484D01*
X14196253Y-11767436D02*
X14205777Y-11776960D01*
X14205777Y-11776960D02*
X14196253Y-11786484D01*
X14196253Y-11786484D02*
X14186729Y-11776960D01*
X14186729Y-11776960D02*
X14196253Y-11767436D01*
X14196253Y-11767436D02*
X14196253Y-11786484D01*
X14272443Y-11586484D02*
X14396253Y-11586484D01*
X14396253Y-11586484D02*
X14329586Y-11662674D01*
X14329586Y-11662674D02*
X14358158Y-11662674D01*
X14358158Y-11662674D02*
X14377205Y-11672198D01*
X14377205Y-11672198D02*
X14386729Y-11681722D01*
X14386729Y-11681722D02*
X14396253Y-11700769D01*
X14396253Y-11700769D02*
X14396253Y-11748388D01*
X14396253Y-11748388D02*
X14386729Y-11767436D01*
X14386729Y-11767436D02*
X14377205Y-11776960D01*
X14377205Y-11776960D02*
X14358158Y-11786484D01*
X14358158Y-11786484D02*
X14301015Y-11786484D01*
X14301015Y-11786484D02*
X14281967Y-11776960D01*
X14281967Y-11776960D02*
X14272443Y-11767436D01*
X14520062Y-11586484D02*
X14539110Y-11586484D01*
X14539110Y-11586484D02*
X14558158Y-11596008D01*
X14558158Y-11596008D02*
X14567682Y-11605531D01*
X14567682Y-11605531D02*
X14577205Y-11624579D01*
X14577205Y-11624579D02*
X14586729Y-11662674D01*
X14586729Y-11662674D02*
X14586729Y-11710293D01*
X14586729Y-11710293D02*
X14577205Y-11748388D01*
X14577205Y-11748388D02*
X14567682Y-11767436D01*
X14567682Y-11767436D02*
X14558158Y-11776960D01*
X14558158Y-11776960D02*
X14539110Y-11786484D01*
X14539110Y-11786484D02*
X14520062Y-11786484D01*
X14520062Y-11786484D02*
X14501015Y-11776960D01*
X14501015Y-11776960D02*
X14491491Y-11767436D01*
X14491491Y-11767436D02*
X14481967Y-11748388D01*
X14481967Y-11748388D02*
X14472443Y-11710293D01*
X14472443Y-11710293D02*
X14472443Y-11662674D01*
X14472443Y-11662674D02*
X14481967Y-11624579D01*
X14481967Y-11624579D02*
X14491491Y-11605531D01*
X14491491Y-11605531D02*
X14501015Y-11596008D01*
X14501015Y-11596008D02*
X14520062Y-11586484D01*
X14710539Y-11586484D02*
X14729586Y-11586484D01*
X14729586Y-11586484D02*
X14748634Y-11596008D01*
X14748634Y-11596008D02*
X14758158Y-11605531D01*
X14758158Y-11605531D02*
X14767682Y-11624579D01*
X14767682Y-11624579D02*
X14777205Y-11662674D01*
X14777205Y-11662674D02*
X14777205Y-11710293D01*
X14777205Y-11710293D02*
X14767682Y-11748388D01*
X14767682Y-11748388D02*
X14758158Y-11767436D01*
X14758158Y-11767436D02*
X14748634Y-11776960D01*
X14748634Y-11776960D02*
X14729586Y-11786484D01*
X14729586Y-11786484D02*
X14710539Y-11786484D01*
X14710539Y-11786484D02*
X14691491Y-11776960D01*
X14691491Y-11776960D02*
X14681967Y-11767436D01*
X14681967Y-11767436D02*
X14672443Y-11748388D01*
X14672443Y-11748388D02*
X14662920Y-11710293D01*
X14662920Y-11710293D02*
X14662920Y-11662674D01*
X14662920Y-11662674D02*
X14672443Y-11624579D01*
X14672443Y-11624579D02*
X14681967Y-11605531D01*
X14681967Y-11605531D02*
X14691491Y-11596008D01*
X14691491Y-11596008D02*
X14710539Y-11586484D01*
X14862920Y-11786484D02*
X14862920Y-11653150D01*
X14862920Y-11672198D02*
X14872443Y-11662674D01*
X14872443Y-11662674D02*
X14891491Y-11653150D01*
X14891491Y-11653150D02*
X14920063Y-11653150D01*
X14920063Y-11653150D02*
X14939110Y-11662674D01*
X14939110Y-11662674D02*
X14948634Y-11681722D01*
X14948634Y-11681722D02*
X14948634Y-11786484D01*
X14948634Y-11681722D02*
X14958158Y-11662674D01*
X14958158Y-11662674D02*
X14977205Y-11653150D01*
X14977205Y-11653150D02*
X15005777Y-11653150D01*
X15005777Y-11653150D02*
X15024824Y-11662674D01*
X15024824Y-11662674D02*
X15034348Y-11681722D01*
X15034348Y-11681722D02*
X15034348Y-11786484D01*
X15129586Y-11786484D02*
X15129586Y-11653150D01*
X15129586Y-11672198D02*
X15139110Y-11662674D01*
X15139110Y-11662674D02*
X15158158Y-11653150D01*
X15158158Y-11653150D02*
X15186729Y-11653150D01*
X15186729Y-11653150D02*
X15205777Y-11662674D01*
X15205777Y-11662674D02*
X15215301Y-11681722D01*
X15215301Y-11681722D02*
X15215301Y-11786484D01*
X15215301Y-11681722D02*
X15224824Y-11662674D01*
X15224824Y-11662674D02*
X15243872Y-11653150D01*
X15243872Y-11653150D02*
X15272443Y-11653150D01*
X15272443Y-11653150D02*
X15291491Y-11662674D01*
X15291491Y-11662674D02*
X15301015Y-11681722D01*
X15301015Y-11681722D02*
X15301015Y-11786484D01*
X15691491Y-11576960D02*
X15520063Y-11834103D01*
X15948634Y-11586484D02*
X15967682Y-11586484D01*
X15967682Y-11586484D02*
X15986729Y-11596008D01*
X15986729Y-11596008D02*
X15996253Y-11605531D01*
X15996253Y-11605531D02*
X16005777Y-11624579D01*
X16005777Y-11624579D02*
X16015301Y-11662674D01*
X16015301Y-11662674D02*
X16015301Y-11710293D01*
X16015301Y-11710293D02*
X16005777Y-11748388D01*
X16005777Y-11748388D02*
X15996253Y-11767436D01*
X15996253Y-11767436D02*
X15986729Y-11776960D01*
X15986729Y-11776960D02*
X15967682Y-11786484D01*
X15967682Y-11786484D02*
X15948634Y-11786484D01*
X15948634Y-11786484D02*
X15929586Y-11776960D01*
X15929586Y-11776960D02*
X15920063Y-11767436D01*
X15920063Y-11767436D02*
X15910539Y-11748388D01*
X15910539Y-11748388D02*
X15901015Y-11710293D01*
X15901015Y-11710293D02*
X15901015Y-11662674D01*
X15901015Y-11662674D02*
X15910539Y-11624579D01*
X15910539Y-11624579D02*
X15920063Y-11605531D01*
X15920063Y-11605531D02*
X15929586Y-11596008D01*
X15929586Y-11596008D02*
X15948634Y-11586484D01*
X16101015Y-11767436D02*
X16110539Y-11776960D01*
X16110539Y-11776960D02*
X16101015Y-11786484D01*
X16101015Y-11786484D02*
X16091491Y-11776960D01*
X16091491Y-11776960D02*
X16101015Y-11767436D01*
X16101015Y-11767436D02*
X16101015Y-11786484D01*
X16234348Y-11586484D02*
X16253396Y-11586484D01*
X16253396Y-11586484D02*
X16272444Y-11596008D01*
X16272444Y-11596008D02*
X16281967Y-11605531D01*
X16281967Y-11605531D02*
X16291491Y-11624579D01*
X16291491Y-11624579D02*
X16301015Y-11662674D01*
X16301015Y-11662674D02*
X16301015Y-11710293D01*
X16301015Y-11710293D02*
X16291491Y-11748388D01*
X16291491Y-11748388D02*
X16281967Y-11767436D01*
X16281967Y-11767436D02*
X16272444Y-11776960D01*
X16272444Y-11776960D02*
X16253396Y-11786484D01*
X16253396Y-11786484D02*
X16234348Y-11786484D01*
X16234348Y-11786484D02*
X16215301Y-11776960D01*
X16215301Y-11776960D02*
X16205777Y-11767436D01*
X16205777Y-11767436D02*
X16196253Y-11748388D01*
X16196253Y-11748388D02*
X16186729Y-11710293D01*
X16186729Y-11710293D02*
X16186729Y-11662674D01*
X16186729Y-11662674D02*
X16196253Y-11624579D01*
X16196253Y-11624579D02*
X16205777Y-11605531D01*
X16205777Y-11605531D02*
X16215301Y-11596008D01*
X16215301Y-11596008D02*
X16234348Y-11586484D01*
X16491491Y-11786484D02*
X16377206Y-11786484D01*
X16434348Y-11786484D02*
X16434348Y-11586484D01*
X16434348Y-11586484D02*
X16415301Y-11615055D01*
X16415301Y-11615055D02*
X16396253Y-11634103D01*
X16396253Y-11634103D02*
X16377206Y-11643627D01*
X16681967Y-11786484D02*
X16567682Y-11786484D01*
X16624825Y-11786484D02*
X16624825Y-11586484D01*
X16624825Y-11586484D02*
X16605777Y-11615055D01*
X16605777Y-11615055D02*
X16586729Y-11634103D01*
X16586729Y-11634103D02*
X16567682Y-11643627D01*
X16796253Y-11672198D02*
X16777206Y-11662674D01*
X16777206Y-11662674D02*
X16767682Y-11653150D01*
X16767682Y-11653150D02*
X16758158Y-11634103D01*
X16758158Y-11634103D02*
X16758158Y-11624579D01*
X16758158Y-11624579D02*
X16767682Y-11605531D01*
X16767682Y-11605531D02*
X16777206Y-11596008D01*
X16777206Y-11596008D02*
X16796253Y-11586484D01*
X16796253Y-11586484D02*
X16834349Y-11586484D01*
X16834349Y-11586484D02*
X16853396Y-11596008D01*
X16853396Y-11596008D02*
X16862920Y-11605531D01*
X16862920Y-11605531D02*
X16872444Y-11624579D01*
X16872444Y-11624579D02*
X16872444Y-11634103D01*
X16872444Y-11634103D02*
X16862920Y-11653150D01*
X16862920Y-11653150D02*
X16853396Y-11662674D01*
X16853396Y-11662674D02*
X16834349Y-11672198D01*
X16834349Y-11672198D02*
X16796253Y-11672198D01*
X16796253Y-11672198D02*
X16777206Y-11681722D01*
X16777206Y-11681722D02*
X16767682Y-11691246D01*
X16767682Y-11691246D02*
X16758158Y-11710293D01*
X16758158Y-11710293D02*
X16758158Y-11748388D01*
X16758158Y-11748388D02*
X16767682Y-11767436D01*
X16767682Y-11767436D02*
X16777206Y-11776960D01*
X16777206Y-11776960D02*
X16796253Y-11786484D01*
X16796253Y-11786484D02*
X16834349Y-11786484D01*
X16834349Y-11786484D02*
X16853396Y-11776960D01*
X16853396Y-11776960D02*
X16862920Y-11767436D01*
X16862920Y-11767436D02*
X16872444Y-11748388D01*
X16872444Y-11748388D02*
X16872444Y-11710293D01*
X16872444Y-11710293D02*
X16862920Y-11691246D01*
X16862920Y-11691246D02*
X16853396Y-11681722D01*
X16853396Y-11681722D02*
X16834349Y-11672198D01*
X16948634Y-11586484D02*
X16948634Y-11624579D01*
X17024825Y-11586484D02*
X17024825Y-11624579D01*
X17320063Y-11862674D02*
X17310539Y-11853150D01*
X17310539Y-11853150D02*
X17291491Y-11824579D01*
X17291491Y-11824579D02*
X17281968Y-11805531D01*
X17281968Y-11805531D02*
X17272444Y-11776960D01*
X17272444Y-11776960D02*
X17262920Y-11729341D01*
X17262920Y-11729341D02*
X17262920Y-11691246D01*
X17262920Y-11691246D02*
X17272444Y-11643627D01*
X17272444Y-11643627D02*
X17281968Y-11615055D01*
X17281968Y-11615055D02*
X17291491Y-11596008D01*
X17291491Y-11596008D02*
X17310539Y-11567436D01*
X17310539Y-11567436D02*
X17320063Y-11557912D01*
X17501015Y-11786484D02*
X17386730Y-11786484D01*
X17443872Y-11786484D02*
X17443872Y-11586484D01*
X17443872Y-11586484D02*
X17424825Y-11615055D01*
X17424825Y-11615055D02*
X17405777Y-11634103D01*
X17405777Y-11634103D02*
X17386730Y-11643627D01*
X17739111Y-11786484D02*
X17739111Y-11586484D01*
X17824825Y-11786484D02*
X17824825Y-11681722D01*
X17824825Y-11681722D02*
X17815301Y-11662674D01*
X17815301Y-11662674D02*
X17796253Y-11653150D01*
X17796253Y-11653150D02*
X17767682Y-11653150D01*
X17767682Y-11653150D02*
X17748634Y-11662674D01*
X17748634Y-11662674D02*
X17739111Y-11672198D01*
X17948634Y-11786484D02*
X17929587Y-11776960D01*
X17929587Y-11776960D02*
X17920063Y-11767436D01*
X17920063Y-11767436D02*
X17910539Y-11748388D01*
X17910539Y-11748388D02*
X17910539Y-11691246D01*
X17910539Y-11691246D02*
X17920063Y-11672198D01*
X17920063Y-11672198D02*
X17929587Y-11662674D01*
X17929587Y-11662674D02*
X17948634Y-11653150D01*
X17948634Y-11653150D02*
X17977206Y-11653150D01*
X17977206Y-11653150D02*
X17996253Y-11662674D01*
X17996253Y-11662674D02*
X18005777Y-11672198D01*
X18005777Y-11672198D02*
X18015301Y-11691246D01*
X18015301Y-11691246D02*
X18015301Y-11748388D01*
X18015301Y-11748388D02*
X18005777Y-11767436D01*
X18005777Y-11767436D02*
X17996253Y-11776960D01*
X17996253Y-11776960D02*
X17977206Y-11786484D01*
X17977206Y-11786484D02*
X17948634Y-11786484D01*
X18129587Y-11786484D02*
X18110539Y-11776960D01*
X18110539Y-11776960D02*
X18101015Y-11757912D01*
X18101015Y-11757912D02*
X18101015Y-11586484D01*
X18281968Y-11776960D02*
X18262920Y-11786484D01*
X18262920Y-11786484D02*
X18224825Y-11786484D01*
X18224825Y-11786484D02*
X18205777Y-11776960D01*
X18205777Y-11776960D02*
X18196253Y-11757912D01*
X18196253Y-11757912D02*
X18196253Y-11681722D01*
X18196253Y-11681722D02*
X18205777Y-11662674D01*
X18205777Y-11662674D02*
X18224825Y-11653150D01*
X18224825Y-11653150D02*
X18262920Y-11653150D01*
X18262920Y-11653150D02*
X18281968Y-11662674D01*
X18281968Y-11662674D02*
X18291492Y-11681722D01*
X18291492Y-11681722D02*
X18291492Y-11700769D01*
X18291492Y-11700769D02*
X18196253Y-11719817D01*
X18358158Y-11862674D02*
X18367682Y-11853150D01*
X18367682Y-11853150D02*
X18386730Y-11824579D01*
X18386730Y-11824579D02*
X18396253Y-11805531D01*
X18396253Y-11805531D02*
X18405777Y-11776960D01*
X18405777Y-11776960D02*
X18415301Y-11729341D01*
X18415301Y-11729341D02*
X18415301Y-11691246D01*
X18415301Y-11691246D02*
X18405777Y-11643627D01*
X18405777Y-11643627D02*
X18396253Y-11615055D01*
X18396253Y-11615055D02*
X18386730Y-11596008D01*
X18386730Y-11596008D02*
X18367682Y-11567436D01*
X18367682Y-11567436D02*
X18358158Y-11557912D01*
D10*
X13745000Y-11959000D02*
G75*
G02*
X13710000Y-11959000I-17500J0D01*
G01*
X13710000Y-11959000D02*
G75*
G02*
X13745000Y-11959000I17500J0D01*
G01*
D11*
X14043872Y-11850484D02*
X14062920Y-11850484D01*
X14062920Y-11850484D02*
X14081967Y-11860008D01*
X14081967Y-11860008D02*
X14091491Y-11869531D01*
X14091491Y-11869531D02*
X14101015Y-11888579D01*
X14101015Y-11888579D02*
X14110539Y-11926674D01*
X14110539Y-11926674D02*
X14110539Y-11974293D01*
X14110539Y-11974293D02*
X14101015Y-12012388D01*
X14101015Y-12012388D02*
X14091491Y-12031436D01*
X14091491Y-12031436D02*
X14081967Y-12040960D01*
X14081967Y-12040960D02*
X14062920Y-12050484D01*
X14062920Y-12050484D02*
X14043872Y-12050484D01*
X14043872Y-12050484D02*
X14024824Y-12040960D01*
X14024824Y-12040960D02*
X14015301Y-12031436D01*
X14015301Y-12031436D02*
X14005777Y-12012388D01*
X14005777Y-12012388D02*
X13996253Y-11974293D01*
X13996253Y-11974293D02*
X13996253Y-11926674D01*
X13996253Y-11926674D02*
X14005777Y-11888579D01*
X14005777Y-11888579D02*
X14015301Y-11869531D01*
X14015301Y-11869531D02*
X14024824Y-11860008D01*
X14024824Y-11860008D02*
X14043872Y-11850484D01*
X14196253Y-12031436D02*
X14205777Y-12040960D01*
X14205777Y-12040960D02*
X14196253Y-12050484D01*
X14196253Y-12050484D02*
X14186729Y-12040960D01*
X14186729Y-12040960D02*
X14196253Y-12031436D01*
X14196253Y-12031436D02*
X14196253Y-12050484D01*
X14272443Y-11850484D02*
X14396253Y-11850484D01*
X14396253Y-11850484D02*
X14329586Y-11926674D01*
X14329586Y-11926674D02*
X14358158Y-11926674D01*
X14358158Y-11926674D02*
X14377205Y-11936198D01*
X14377205Y-11936198D02*
X14386729Y-11945722D01*
X14386729Y-11945722D02*
X14396253Y-11964769D01*
X14396253Y-11964769D02*
X14396253Y-12012388D01*
X14396253Y-12012388D02*
X14386729Y-12031436D01*
X14386729Y-12031436D02*
X14377205Y-12040960D01*
X14377205Y-12040960D02*
X14358158Y-12050484D01*
X14358158Y-12050484D02*
X14301015Y-12050484D01*
X14301015Y-12050484D02*
X14281967Y-12040960D01*
X14281967Y-12040960D02*
X14272443Y-12031436D01*
X14577205Y-11850484D02*
X14481967Y-11850484D01*
X14481967Y-11850484D02*
X14472443Y-11945722D01*
X14472443Y-11945722D02*
X14481967Y-11936198D01*
X14481967Y-11936198D02*
X14501015Y-11926674D01*
X14501015Y-11926674D02*
X14548634Y-11926674D01*
X14548634Y-11926674D02*
X14567682Y-11936198D01*
X14567682Y-11936198D02*
X14577205Y-11945722D01*
X14577205Y-11945722D02*
X14586729Y-11964769D01*
X14586729Y-11964769D02*
X14586729Y-12012388D01*
X14586729Y-12012388D02*
X14577205Y-12031436D01*
X14577205Y-12031436D02*
X14567682Y-12040960D01*
X14567682Y-12040960D02*
X14548634Y-12050484D01*
X14548634Y-12050484D02*
X14501015Y-12050484D01*
X14501015Y-12050484D02*
X14481967Y-12040960D01*
X14481967Y-12040960D02*
X14472443Y-12031436D01*
X14710539Y-11850484D02*
X14729586Y-11850484D01*
X14729586Y-11850484D02*
X14748634Y-11860008D01*
X14748634Y-11860008D02*
X14758158Y-11869531D01*
X14758158Y-11869531D02*
X14767682Y-11888579D01*
X14767682Y-11888579D02*
X14777205Y-11926674D01*
X14777205Y-11926674D02*
X14777205Y-11974293D01*
X14777205Y-11974293D02*
X14767682Y-12012388D01*
X14767682Y-12012388D02*
X14758158Y-12031436D01*
X14758158Y-12031436D02*
X14748634Y-12040960D01*
X14748634Y-12040960D02*
X14729586Y-12050484D01*
X14729586Y-12050484D02*
X14710539Y-12050484D01*
X14710539Y-12050484D02*
X14691491Y-12040960D01*
X14691491Y-12040960D02*
X14681967Y-12031436D01*
X14681967Y-12031436D02*
X14672443Y-12012388D01*
X14672443Y-12012388D02*
X14662920Y-11974293D01*
X14662920Y-11974293D02*
X14662920Y-11926674D01*
X14662920Y-11926674D02*
X14672443Y-11888579D01*
X14672443Y-11888579D02*
X14681967Y-11869531D01*
X14681967Y-11869531D02*
X14691491Y-11860008D01*
X14691491Y-11860008D02*
X14710539Y-11850484D01*
X14862920Y-12050484D02*
X14862920Y-11917150D01*
X14862920Y-11936198D02*
X14872443Y-11926674D01*
X14872443Y-11926674D02*
X14891491Y-11917150D01*
X14891491Y-11917150D02*
X14920063Y-11917150D01*
X14920063Y-11917150D02*
X14939110Y-11926674D01*
X14939110Y-11926674D02*
X14948634Y-11945722D01*
X14948634Y-11945722D02*
X14948634Y-12050484D01*
X14948634Y-11945722D02*
X14958158Y-11926674D01*
X14958158Y-11926674D02*
X14977205Y-11917150D01*
X14977205Y-11917150D02*
X15005777Y-11917150D01*
X15005777Y-11917150D02*
X15024824Y-11926674D01*
X15024824Y-11926674D02*
X15034348Y-11945722D01*
X15034348Y-11945722D02*
X15034348Y-12050484D01*
X15129586Y-12050484D02*
X15129586Y-11917150D01*
X15129586Y-11936198D02*
X15139110Y-11926674D01*
X15139110Y-11926674D02*
X15158158Y-11917150D01*
X15158158Y-11917150D02*
X15186729Y-11917150D01*
X15186729Y-11917150D02*
X15205777Y-11926674D01*
X15205777Y-11926674D02*
X15215301Y-11945722D01*
X15215301Y-11945722D02*
X15215301Y-12050484D01*
X15215301Y-11945722D02*
X15224824Y-11926674D01*
X15224824Y-11926674D02*
X15243872Y-11917150D01*
X15243872Y-11917150D02*
X15272443Y-11917150D01*
X15272443Y-11917150D02*
X15291491Y-11926674D01*
X15291491Y-11926674D02*
X15301015Y-11945722D01*
X15301015Y-11945722D02*
X15301015Y-12050484D01*
X15691491Y-11840960D02*
X15520063Y-12098103D01*
X15948634Y-11850484D02*
X15967682Y-11850484D01*
X15967682Y-11850484D02*
X15986729Y-11860008D01*
X15986729Y-11860008D02*
X15996253Y-11869531D01*
X15996253Y-11869531D02*
X16005777Y-11888579D01*
X16005777Y-11888579D02*
X16015301Y-11926674D01*
X16015301Y-11926674D02*
X16015301Y-11974293D01*
X16015301Y-11974293D02*
X16005777Y-12012388D01*
X16005777Y-12012388D02*
X15996253Y-12031436D01*
X15996253Y-12031436D02*
X15986729Y-12040960D01*
X15986729Y-12040960D02*
X15967682Y-12050484D01*
X15967682Y-12050484D02*
X15948634Y-12050484D01*
X15948634Y-12050484D02*
X15929586Y-12040960D01*
X15929586Y-12040960D02*
X15920063Y-12031436D01*
X15920063Y-12031436D02*
X15910539Y-12012388D01*
X15910539Y-12012388D02*
X15901015Y-11974293D01*
X15901015Y-11974293D02*
X15901015Y-11926674D01*
X15901015Y-11926674D02*
X15910539Y-11888579D01*
X15910539Y-11888579D02*
X15920063Y-11869531D01*
X15920063Y-11869531D02*
X15929586Y-11860008D01*
X15929586Y-11860008D02*
X15948634Y-11850484D01*
X16101015Y-12031436D02*
X16110539Y-12040960D01*
X16110539Y-12040960D02*
X16101015Y-12050484D01*
X16101015Y-12050484D02*
X16091491Y-12040960D01*
X16091491Y-12040960D02*
X16101015Y-12031436D01*
X16101015Y-12031436D02*
X16101015Y-12050484D01*
X16234348Y-11850484D02*
X16253396Y-11850484D01*
X16253396Y-11850484D02*
X16272444Y-11860008D01*
X16272444Y-11860008D02*
X16281967Y-11869531D01*
X16281967Y-11869531D02*
X16291491Y-11888579D01*
X16291491Y-11888579D02*
X16301015Y-11926674D01*
X16301015Y-11926674D02*
X16301015Y-11974293D01*
X16301015Y-11974293D02*
X16291491Y-12012388D01*
X16291491Y-12012388D02*
X16281967Y-12031436D01*
X16281967Y-12031436D02*
X16272444Y-12040960D01*
X16272444Y-12040960D02*
X16253396Y-12050484D01*
X16253396Y-12050484D02*
X16234348Y-12050484D01*
X16234348Y-12050484D02*
X16215301Y-12040960D01*
X16215301Y-12040960D02*
X16205777Y-12031436D01*
X16205777Y-12031436D02*
X16196253Y-12012388D01*
X16196253Y-12012388D02*
X16186729Y-11974293D01*
X16186729Y-11974293D02*
X16186729Y-11926674D01*
X16186729Y-11926674D02*
X16196253Y-11888579D01*
X16196253Y-11888579D02*
X16205777Y-11869531D01*
X16205777Y-11869531D02*
X16215301Y-11860008D01*
X16215301Y-11860008D02*
X16234348Y-11850484D01*
X16491491Y-12050484D02*
X16377206Y-12050484D01*
X16434348Y-12050484D02*
X16434348Y-11850484D01*
X16434348Y-11850484D02*
X16415301Y-11879055D01*
X16415301Y-11879055D02*
X16396253Y-11898103D01*
X16396253Y-11898103D02*
X16377206Y-11907627D01*
X16558158Y-11850484D02*
X16681967Y-11850484D01*
X16681967Y-11850484D02*
X16615301Y-11926674D01*
X16615301Y-11926674D02*
X16643872Y-11926674D01*
X16643872Y-11926674D02*
X16662920Y-11936198D01*
X16662920Y-11936198D02*
X16672444Y-11945722D01*
X16672444Y-11945722D02*
X16681967Y-11964769D01*
X16681967Y-11964769D02*
X16681967Y-12012388D01*
X16681967Y-12012388D02*
X16672444Y-12031436D01*
X16672444Y-12031436D02*
X16662920Y-12040960D01*
X16662920Y-12040960D02*
X16643872Y-12050484D01*
X16643872Y-12050484D02*
X16586729Y-12050484D01*
X16586729Y-12050484D02*
X16567682Y-12040960D01*
X16567682Y-12040960D02*
X16558158Y-12031436D01*
X16796253Y-11936198D02*
X16777206Y-11926674D01*
X16777206Y-11926674D02*
X16767682Y-11917150D01*
X16767682Y-11917150D02*
X16758158Y-11898103D01*
X16758158Y-11898103D02*
X16758158Y-11888579D01*
X16758158Y-11888579D02*
X16767682Y-11869531D01*
X16767682Y-11869531D02*
X16777206Y-11860008D01*
X16777206Y-11860008D02*
X16796253Y-11850484D01*
X16796253Y-11850484D02*
X16834349Y-11850484D01*
X16834349Y-11850484D02*
X16853396Y-11860008D01*
X16853396Y-11860008D02*
X16862920Y-11869531D01*
X16862920Y-11869531D02*
X16872444Y-11888579D01*
X16872444Y-11888579D02*
X16872444Y-11898103D01*
X16872444Y-11898103D02*
X16862920Y-11917150D01*
X16862920Y-11917150D02*
X16853396Y-11926674D01*
X16853396Y-11926674D02*
X16834349Y-11936198D01*
X16834349Y-11936198D02*
X16796253Y-11936198D01*
X16796253Y-11936198D02*
X16777206Y-11945722D01*
X16777206Y-11945722D02*
X16767682Y-11955246D01*
X16767682Y-11955246D02*
X16758158Y-11974293D01*
X16758158Y-11974293D02*
X16758158Y-12012388D01*
X16758158Y-12012388D02*
X16767682Y-12031436D01*
X16767682Y-12031436D02*
X16777206Y-12040960D01*
X16777206Y-12040960D02*
X16796253Y-12050484D01*
X16796253Y-12050484D02*
X16834349Y-12050484D01*
X16834349Y-12050484D02*
X16853396Y-12040960D01*
X16853396Y-12040960D02*
X16862920Y-12031436D01*
X16862920Y-12031436D02*
X16872444Y-12012388D01*
X16872444Y-12012388D02*
X16872444Y-11974293D01*
X16872444Y-11974293D02*
X16862920Y-11955246D01*
X16862920Y-11955246D02*
X16853396Y-11945722D01*
X16853396Y-11945722D02*
X16834349Y-11936198D01*
X16948634Y-11850484D02*
X16948634Y-11888579D01*
X17024825Y-11850484D02*
X17024825Y-11888579D01*
X17320063Y-12126674D02*
X17310539Y-12117150D01*
X17310539Y-12117150D02*
X17291491Y-12088579D01*
X17291491Y-12088579D02*
X17281968Y-12069531D01*
X17281968Y-12069531D02*
X17272444Y-12040960D01*
X17272444Y-12040960D02*
X17262920Y-11993341D01*
X17262920Y-11993341D02*
X17262920Y-11955246D01*
X17262920Y-11955246D02*
X17272444Y-11907627D01*
X17272444Y-11907627D02*
X17281968Y-11879055D01*
X17281968Y-11879055D02*
X17291491Y-11860008D01*
X17291491Y-11860008D02*
X17310539Y-11831436D01*
X17310539Y-11831436D02*
X17320063Y-11821912D01*
X17377206Y-11850484D02*
X17501015Y-11850484D01*
X17501015Y-11850484D02*
X17434349Y-11926674D01*
X17434349Y-11926674D02*
X17462920Y-11926674D01*
X17462920Y-11926674D02*
X17481968Y-11936198D01*
X17481968Y-11936198D02*
X17491491Y-11945722D01*
X17491491Y-11945722D02*
X17501015Y-11964769D01*
X17501015Y-11964769D02*
X17501015Y-12012388D01*
X17501015Y-12012388D02*
X17491491Y-12031436D01*
X17491491Y-12031436D02*
X17481968Y-12040960D01*
X17481968Y-12040960D02*
X17462920Y-12050484D01*
X17462920Y-12050484D02*
X17405777Y-12050484D01*
X17405777Y-12050484D02*
X17386730Y-12040960D01*
X17386730Y-12040960D02*
X17377206Y-12031436D01*
X17624825Y-11850484D02*
X17643872Y-11850484D01*
X17643872Y-11850484D02*
X17662920Y-11860008D01*
X17662920Y-11860008D02*
X17672444Y-11869531D01*
X17672444Y-11869531D02*
X17681968Y-11888579D01*
X17681968Y-11888579D02*
X17691491Y-11926674D01*
X17691491Y-11926674D02*
X17691491Y-11974293D01*
X17691491Y-11974293D02*
X17681968Y-12012388D01*
X17681968Y-12012388D02*
X17672444Y-12031436D01*
X17672444Y-12031436D02*
X17662920Y-12040960D01*
X17662920Y-12040960D02*
X17643872Y-12050484D01*
X17643872Y-12050484D02*
X17624825Y-12050484D01*
X17624825Y-12050484D02*
X17605777Y-12040960D01*
X17605777Y-12040960D02*
X17596253Y-12031436D01*
X17596253Y-12031436D02*
X17586730Y-12012388D01*
X17586730Y-12012388D02*
X17577206Y-11974293D01*
X17577206Y-11974293D02*
X17577206Y-11926674D01*
X17577206Y-11926674D02*
X17586730Y-11888579D01*
X17586730Y-11888579D02*
X17596253Y-11869531D01*
X17596253Y-11869531D02*
X17605777Y-11860008D01*
X17605777Y-11860008D02*
X17624825Y-11850484D01*
X17929587Y-12050484D02*
X17929587Y-11850484D01*
X18015301Y-12050484D02*
X18015301Y-11945722D01*
X18015301Y-11945722D02*
X18005777Y-11926674D01*
X18005777Y-11926674D02*
X17986730Y-11917150D01*
X17986730Y-11917150D02*
X17958158Y-11917150D01*
X17958158Y-11917150D02*
X17939111Y-11926674D01*
X17939111Y-11926674D02*
X17929587Y-11936198D01*
X18139111Y-12050484D02*
X18120063Y-12040960D01*
X18120063Y-12040960D02*
X18110539Y-12031436D01*
X18110539Y-12031436D02*
X18101015Y-12012388D01*
X18101015Y-12012388D02*
X18101015Y-11955246D01*
X18101015Y-11955246D02*
X18110539Y-11936198D01*
X18110539Y-11936198D02*
X18120063Y-11926674D01*
X18120063Y-11926674D02*
X18139111Y-11917150D01*
X18139111Y-11917150D02*
X18167682Y-11917150D01*
X18167682Y-11917150D02*
X18186730Y-11926674D01*
X18186730Y-11926674D02*
X18196253Y-11936198D01*
X18196253Y-11936198D02*
X18205777Y-11955246D01*
X18205777Y-11955246D02*
X18205777Y-12012388D01*
X18205777Y-12012388D02*
X18196253Y-12031436D01*
X18196253Y-12031436D02*
X18186730Y-12040960D01*
X18186730Y-12040960D02*
X18167682Y-12050484D01*
X18167682Y-12050484D02*
X18139111Y-12050484D01*
X18320063Y-12050484D02*
X18301015Y-12040960D01*
X18301015Y-12040960D02*
X18291492Y-12021912D01*
X18291492Y-12021912D02*
X18291492Y-11850484D01*
X18472444Y-12040960D02*
X18453396Y-12050484D01*
X18453396Y-12050484D02*
X18415301Y-12050484D01*
X18415301Y-12050484D02*
X18396253Y-12040960D01*
X18396253Y-12040960D02*
X18386730Y-12021912D01*
X18386730Y-12021912D02*
X18386730Y-11945722D01*
X18386730Y-11945722D02*
X18396253Y-11926674D01*
X18396253Y-11926674D02*
X18415301Y-11917150D01*
X18415301Y-11917150D02*
X18453396Y-11917150D01*
X18453396Y-11917150D02*
X18472444Y-11926674D01*
X18472444Y-11926674D02*
X18481968Y-11945722D01*
X18481968Y-11945722D02*
X18481968Y-11964769D01*
X18481968Y-11964769D02*
X18386730Y-11983817D01*
X18558158Y-12040960D02*
X18577206Y-12050484D01*
X18577206Y-12050484D02*
X18615301Y-12050484D01*
X18615301Y-12050484D02*
X18634349Y-12040960D01*
X18634349Y-12040960D02*
X18643873Y-12021912D01*
X18643873Y-12021912D02*
X18643873Y-12012388D01*
X18643873Y-12012388D02*
X18634349Y-11993341D01*
X18634349Y-11993341D02*
X18615301Y-11983817D01*
X18615301Y-11983817D02*
X18586730Y-11983817D01*
X18586730Y-11983817D02*
X18567682Y-11974293D01*
X18567682Y-11974293D02*
X18558158Y-11955246D01*
X18558158Y-11955246D02*
X18558158Y-11945722D01*
X18558158Y-11945722D02*
X18567682Y-11926674D01*
X18567682Y-11926674D02*
X18586730Y-11917150D01*
X18586730Y-11917150D02*
X18615301Y-11917150D01*
X18615301Y-11917150D02*
X18634349Y-11926674D01*
X18710539Y-12126674D02*
X18720063Y-12117150D01*
X18720063Y-12117150D02*
X18739111Y-12088579D01*
X18739111Y-12088579D02*
X18748634Y-12069531D01*
X18748634Y-12069531D02*
X18758158Y-12040960D01*
X18758158Y-12040960D02*
X18767682Y-11993341D01*
X18767682Y-11993341D02*
X18767682Y-11955246D01*
X18767682Y-11955246D02*
X18758158Y-11907627D01*
X18758158Y-11907627D02*
X18748634Y-11879055D01*
X18748634Y-11879055D02*
X18739111Y-11860008D01*
X18739111Y-11860008D02*
X18720063Y-11831436D01*
X18720063Y-11831436D02*
X18710539Y-11821912D01*
D10*
X13695000Y-12173000D02*
X13695000Y-12273000D01*
X13645000Y-12223000D02*
X13745000Y-12223000D01*
D11*
X14110539Y-12314484D02*
X13996253Y-12314484D01*
X14053396Y-12314484D02*
X14053396Y-12114484D01*
X14053396Y-12114484D02*
X14034348Y-12143055D01*
X14034348Y-12143055D02*
X14015301Y-12162103D01*
X14015301Y-12162103D02*
X13996253Y-12171627D01*
X14196253Y-12295436D02*
X14205777Y-12304960D01*
X14205777Y-12304960D02*
X14196253Y-12314484D01*
X14196253Y-12314484D02*
X14186729Y-12304960D01*
X14186729Y-12304960D02*
X14196253Y-12295436D01*
X14196253Y-12295436D02*
X14196253Y-12314484D01*
X14329586Y-12114484D02*
X14348634Y-12114484D01*
X14348634Y-12114484D02*
X14367682Y-12124008D01*
X14367682Y-12124008D02*
X14377205Y-12133531D01*
X14377205Y-12133531D02*
X14386729Y-12152579D01*
X14386729Y-12152579D02*
X14396253Y-12190674D01*
X14396253Y-12190674D02*
X14396253Y-12238293D01*
X14396253Y-12238293D02*
X14386729Y-12276388D01*
X14386729Y-12276388D02*
X14377205Y-12295436D01*
X14377205Y-12295436D02*
X14367682Y-12304960D01*
X14367682Y-12304960D02*
X14348634Y-12314484D01*
X14348634Y-12314484D02*
X14329586Y-12314484D01*
X14329586Y-12314484D02*
X14310539Y-12304960D01*
X14310539Y-12304960D02*
X14301015Y-12295436D01*
X14301015Y-12295436D02*
X14291491Y-12276388D01*
X14291491Y-12276388D02*
X14281967Y-12238293D01*
X14281967Y-12238293D02*
X14281967Y-12190674D01*
X14281967Y-12190674D02*
X14291491Y-12152579D01*
X14291491Y-12152579D02*
X14301015Y-12133531D01*
X14301015Y-12133531D02*
X14310539Y-12124008D01*
X14310539Y-12124008D02*
X14329586Y-12114484D01*
X14520062Y-12114484D02*
X14539110Y-12114484D01*
X14539110Y-12114484D02*
X14558158Y-12124008D01*
X14558158Y-12124008D02*
X14567682Y-12133531D01*
X14567682Y-12133531D02*
X14577205Y-12152579D01*
X14577205Y-12152579D02*
X14586729Y-12190674D01*
X14586729Y-12190674D02*
X14586729Y-12238293D01*
X14586729Y-12238293D02*
X14577205Y-12276388D01*
X14577205Y-12276388D02*
X14567682Y-12295436D01*
X14567682Y-12295436D02*
X14558158Y-12304960D01*
X14558158Y-12304960D02*
X14539110Y-12314484D01*
X14539110Y-12314484D02*
X14520062Y-12314484D01*
X14520062Y-12314484D02*
X14501015Y-12304960D01*
X14501015Y-12304960D02*
X14491491Y-12295436D01*
X14491491Y-12295436D02*
X14481967Y-12276388D01*
X14481967Y-12276388D02*
X14472443Y-12238293D01*
X14472443Y-12238293D02*
X14472443Y-12190674D01*
X14472443Y-12190674D02*
X14481967Y-12152579D01*
X14481967Y-12152579D02*
X14491491Y-12133531D01*
X14491491Y-12133531D02*
X14501015Y-12124008D01*
X14501015Y-12124008D02*
X14520062Y-12114484D01*
X14710539Y-12114484D02*
X14729586Y-12114484D01*
X14729586Y-12114484D02*
X14748634Y-12124008D01*
X14748634Y-12124008D02*
X14758158Y-12133531D01*
X14758158Y-12133531D02*
X14767682Y-12152579D01*
X14767682Y-12152579D02*
X14777205Y-12190674D01*
X14777205Y-12190674D02*
X14777205Y-12238293D01*
X14777205Y-12238293D02*
X14767682Y-12276388D01*
X14767682Y-12276388D02*
X14758158Y-12295436D01*
X14758158Y-12295436D02*
X14748634Y-12304960D01*
X14748634Y-12304960D02*
X14729586Y-12314484D01*
X14729586Y-12314484D02*
X14710539Y-12314484D01*
X14710539Y-12314484D02*
X14691491Y-12304960D01*
X14691491Y-12304960D02*
X14681967Y-12295436D01*
X14681967Y-12295436D02*
X14672443Y-12276388D01*
X14672443Y-12276388D02*
X14662920Y-12238293D01*
X14662920Y-12238293D02*
X14662920Y-12190674D01*
X14662920Y-12190674D02*
X14672443Y-12152579D01*
X14672443Y-12152579D02*
X14681967Y-12133531D01*
X14681967Y-12133531D02*
X14691491Y-12124008D01*
X14691491Y-12124008D02*
X14710539Y-12114484D01*
X14862920Y-12314484D02*
X14862920Y-12181150D01*
X14862920Y-12200198D02*
X14872443Y-12190674D01*
X14872443Y-12190674D02*
X14891491Y-12181150D01*
X14891491Y-12181150D02*
X14920063Y-12181150D01*
X14920063Y-12181150D02*
X14939110Y-12190674D01*
X14939110Y-12190674D02*
X14948634Y-12209722D01*
X14948634Y-12209722D02*
X14948634Y-12314484D01*
X14948634Y-12209722D02*
X14958158Y-12190674D01*
X14958158Y-12190674D02*
X14977205Y-12181150D01*
X14977205Y-12181150D02*
X15005777Y-12181150D01*
X15005777Y-12181150D02*
X15024824Y-12190674D01*
X15024824Y-12190674D02*
X15034348Y-12209722D01*
X15034348Y-12209722D02*
X15034348Y-12314484D01*
X15129586Y-12314484D02*
X15129586Y-12181150D01*
X15129586Y-12200198D02*
X15139110Y-12190674D01*
X15139110Y-12190674D02*
X15158158Y-12181150D01*
X15158158Y-12181150D02*
X15186729Y-12181150D01*
X15186729Y-12181150D02*
X15205777Y-12190674D01*
X15205777Y-12190674D02*
X15215301Y-12209722D01*
X15215301Y-12209722D02*
X15215301Y-12314484D01*
X15215301Y-12209722D02*
X15224824Y-12190674D01*
X15224824Y-12190674D02*
X15243872Y-12181150D01*
X15243872Y-12181150D02*
X15272443Y-12181150D01*
X15272443Y-12181150D02*
X15291491Y-12190674D01*
X15291491Y-12190674D02*
X15301015Y-12209722D01*
X15301015Y-12209722D02*
X15301015Y-12314484D01*
X15691491Y-12104960D02*
X15520063Y-12362103D01*
X15948634Y-12114484D02*
X15967682Y-12114484D01*
X15967682Y-12114484D02*
X15986729Y-12124008D01*
X15986729Y-12124008D02*
X15996253Y-12133531D01*
X15996253Y-12133531D02*
X16005777Y-12152579D01*
X16005777Y-12152579D02*
X16015301Y-12190674D01*
X16015301Y-12190674D02*
X16015301Y-12238293D01*
X16015301Y-12238293D02*
X16005777Y-12276388D01*
X16005777Y-12276388D02*
X15996253Y-12295436D01*
X15996253Y-12295436D02*
X15986729Y-12304960D01*
X15986729Y-12304960D02*
X15967682Y-12314484D01*
X15967682Y-12314484D02*
X15948634Y-12314484D01*
X15948634Y-12314484D02*
X15929586Y-12304960D01*
X15929586Y-12304960D02*
X15920063Y-12295436D01*
X15920063Y-12295436D02*
X15910539Y-12276388D01*
X15910539Y-12276388D02*
X15901015Y-12238293D01*
X15901015Y-12238293D02*
X15901015Y-12190674D01*
X15901015Y-12190674D02*
X15910539Y-12152579D01*
X15910539Y-12152579D02*
X15920063Y-12133531D01*
X15920063Y-12133531D02*
X15929586Y-12124008D01*
X15929586Y-12124008D02*
X15948634Y-12114484D01*
X16101015Y-12295436D02*
X16110539Y-12304960D01*
X16110539Y-12304960D02*
X16101015Y-12314484D01*
X16101015Y-12314484D02*
X16091491Y-12304960D01*
X16091491Y-12304960D02*
X16101015Y-12295436D01*
X16101015Y-12295436D02*
X16101015Y-12314484D01*
X16234348Y-12114484D02*
X16253396Y-12114484D01*
X16253396Y-12114484D02*
X16272444Y-12124008D01*
X16272444Y-12124008D02*
X16281967Y-12133531D01*
X16281967Y-12133531D02*
X16291491Y-12152579D01*
X16291491Y-12152579D02*
X16301015Y-12190674D01*
X16301015Y-12190674D02*
X16301015Y-12238293D01*
X16301015Y-12238293D02*
X16291491Y-12276388D01*
X16291491Y-12276388D02*
X16281967Y-12295436D01*
X16281967Y-12295436D02*
X16272444Y-12304960D01*
X16272444Y-12304960D02*
X16253396Y-12314484D01*
X16253396Y-12314484D02*
X16234348Y-12314484D01*
X16234348Y-12314484D02*
X16215301Y-12304960D01*
X16215301Y-12304960D02*
X16205777Y-12295436D01*
X16205777Y-12295436D02*
X16196253Y-12276388D01*
X16196253Y-12276388D02*
X16186729Y-12238293D01*
X16186729Y-12238293D02*
X16186729Y-12190674D01*
X16186729Y-12190674D02*
X16196253Y-12152579D01*
X16196253Y-12152579D02*
X16205777Y-12133531D01*
X16205777Y-12133531D02*
X16215301Y-12124008D01*
X16215301Y-12124008D02*
X16234348Y-12114484D01*
X16367682Y-12114484D02*
X16491491Y-12114484D01*
X16491491Y-12114484D02*
X16424825Y-12190674D01*
X16424825Y-12190674D02*
X16453396Y-12190674D01*
X16453396Y-12190674D02*
X16472444Y-12200198D01*
X16472444Y-12200198D02*
X16481967Y-12209722D01*
X16481967Y-12209722D02*
X16491491Y-12228769D01*
X16491491Y-12228769D02*
X16491491Y-12276388D01*
X16491491Y-12276388D02*
X16481967Y-12295436D01*
X16481967Y-12295436D02*
X16472444Y-12304960D01*
X16472444Y-12304960D02*
X16453396Y-12314484D01*
X16453396Y-12314484D02*
X16396253Y-12314484D01*
X16396253Y-12314484D02*
X16377206Y-12304960D01*
X16377206Y-12304960D02*
X16367682Y-12295436D01*
X16586729Y-12314484D02*
X16624825Y-12314484D01*
X16624825Y-12314484D02*
X16643872Y-12304960D01*
X16643872Y-12304960D02*
X16653396Y-12295436D01*
X16653396Y-12295436D02*
X16672444Y-12266865D01*
X16672444Y-12266865D02*
X16681967Y-12228769D01*
X16681967Y-12228769D02*
X16681967Y-12152579D01*
X16681967Y-12152579D02*
X16672444Y-12133531D01*
X16672444Y-12133531D02*
X16662920Y-12124008D01*
X16662920Y-12124008D02*
X16643872Y-12114484D01*
X16643872Y-12114484D02*
X16605777Y-12114484D01*
X16605777Y-12114484D02*
X16586729Y-12124008D01*
X16586729Y-12124008D02*
X16577206Y-12133531D01*
X16577206Y-12133531D02*
X16567682Y-12152579D01*
X16567682Y-12152579D02*
X16567682Y-12200198D01*
X16567682Y-12200198D02*
X16577206Y-12219246D01*
X16577206Y-12219246D02*
X16586729Y-12228769D01*
X16586729Y-12228769D02*
X16605777Y-12238293D01*
X16605777Y-12238293D02*
X16643872Y-12238293D01*
X16643872Y-12238293D02*
X16662920Y-12228769D01*
X16662920Y-12228769D02*
X16672444Y-12219246D01*
X16672444Y-12219246D02*
X16681967Y-12200198D01*
X16853396Y-12181150D02*
X16853396Y-12314484D01*
X16805777Y-12104960D02*
X16758158Y-12247817D01*
X16758158Y-12247817D02*
X16881968Y-12247817D01*
X16948634Y-12114484D02*
X16948634Y-12152579D01*
X17024825Y-12114484D02*
X17024825Y-12152579D01*
X17320063Y-12390674D02*
X17310539Y-12381150D01*
X17310539Y-12381150D02*
X17291491Y-12352579D01*
X17291491Y-12352579D02*
X17281968Y-12333531D01*
X17281968Y-12333531D02*
X17272444Y-12304960D01*
X17272444Y-12304960D02*
X17262920Y-12257341D01*
X17262920Y-12257341D02*
X17262920Y-12219246D01*
X17262920Y-12219246D02*
X17272444Y-12171627D01*
X17272444Y-12171627D02*
X17281968Y-12143055D01*
X17281968Y-12143055D02*
X17291491Y-12124008D01*
X17291491Y-12124008D02*
X17310539Y-12095436D01*
X17310539Y-12095436D02*
X17320063Y-12085912D01*
X17481968Y-12181150D02*
X17481968Y-12314484D01*
X17434349Y-12104960D02*
X17386730Y-12247817D01*
X17386730Y-12247817D02*
X17510539Y-12247817D01*
X17567682Y-12114484D02*
X17701015Y-12114484D01*
X17701015Y-12114484D02*
X17615301Y-12314484D01*
X17929587Y-12314484D02*
X17929587Y-12114484D01*
X18015301Y-12314484D02*
X18015301Y-12209722D01*
X18015301Y-12209722D02*
X18005777Y-12190674D01*
X18005777Y-12190674D02*
X17986730Y-12181150D01*
X17986730Y-12181150D02*
X17958158Y-12181150D01*
X17958158Y-12181150D02*
X17939111Y-12190674D01*
X17939111Y-12190674D02*
X17929587Y-12200198D01*
X18139111Y-12314484D02*
X18120063Y-12304960D01*
X18120063Y-12304960D02*
X18110539Y-12295436D01*
X18110539Y-12295436D02*
X18101015Y-12276388D01*
X18101015Y-12276388D02*
X18101015Y-12219246D01*
X18101015Y-12219246D02*
X18110539Y-12200198D01*
X18110539Y-12200198D02*
X18120063Y-12190674D01*
X18120063Y-12190674D02*
X18139111Y-12181150D01*
X18139111Y-12181150D02*
X18167682Y-12181150D01*
X18167682Y-12181150D02*
X18186730Y-12190674D01*
X18186730Y-12190674D02*
X18196253Y-12200198D01*
X18196253Y-12200198D02*
X18205777Y-12219246D01*
X18205777Y-12219246D02*
X18205777Y-12276388D01*
X18205777Y-12276388D02*
X18196253Y-12295436D01*
X18196253Y-12295436D02*
X18186730Y-12304960D01*
X18186730Y-12304960D02*
X18167682Y-12314484D01*
X18167682Y-12314484D02*
X18139111Y-12314484D01*
X18320063Y-12314484D02*
X18301015Y-12304960D01*
X18301015Y-12304960D02*
X18291492Y-12285912D01*
X18291492Y-12285912D02*
X18291492Y-12114484D01*
X18472444Y-12304960D02*
X18453396Y-12314484D01*
X18453396Y-12314484D02*
X18415301Y-12314484D01*
X18415301Y-12314484D02*
X18396253Y-12304960D01*
X18396253Y-12304960D02*
X18386730Y-12285912D01*
X18386730Y-12285912D02*
X18386730Y-12209722D01*
X18386730Y-12209722D02*
X18396253Y-12190674D01*
X18396253Y-12190674D02*
X18415301Y-12181150D01*
X18415301Y-12181150D02*
X18453396Y-12181150D01*
X18453396Y-12181150D02*
X18472444Y-12190674D01*
X18472444Y-12190674D02*
X18481968Y-12209722D01*
X18481968Y-12209722D02*
X18481968Y-12228769D01*
X18481968Y-12228769D02*
X18386730Y-12247817D01*
X18558158Y-12304960D02*
X18577206Y-12314484D01*
X18577206Y-12314484D02*
X18615301Y-12314484D01*
X18615301Y-12314484D02*
X18634349Y-12304960D01*
X18634349Y-12304960D02*
X18643873Y-12285912D01*
X18643873Y-12285912D02*
X18643873Y-12276388D01*
X18643873Y-12276388D02*
X18634349Y-12257341D01*
X18634349Y-12257341D02*
X18615301Y-12247817D01*
X18615301Y-12247817D02*
X18586730Y-12247817D01*
X18586730Y-12247817D02*
X18567682Y-12238293D01*
X18567682Y-12238293D02*
X18558158Y-12219246D01*
X18558158Y-12219246D02*
X18558158Y-12209722D01*
X18558158Y-12209722D02*
X18567682Y-12190674D01*
X18567682Y-12190674D02*
X18586730Y-12181150D01*
X18586730Y-12181150D02*
X18615301Y-12181150D01*
X18615301Y-12181150D02*
X18634349Y-12190674D01*
X18710539Y-12390674D02*
X18720063Y-12381150D01*
X18720063Y-12381150D02*
X18739111Y-12352579D01*
X18739111Y-12352579D02*
X18748634Y-12333531D01*
X18748634Y-12333531D02*
X18758158Y-12304960D01*
X18758158Y-12304960D02*
X18767682Y-12257341D01*
X18767682Y-12257341D02*
X18767682Y-12219246D01*
X18767682Y-12219246D02*
X18758158Y-12171627D01*
X18758158Y-12171627D02*
X18748634Y-12143055D01*
X18748634Y-12143055D02*
X18739111Y-12124008D01*
X18739111Y-12124008D02*
X18720063Y-12095436D01*
X18720063Y-12095436D02*
X18710539Y-12085912D01*
M02*
