M48
; DRILL file {KiCad 8.0.4} date 2024-10-13T11:01:50+0300
; FORMAT={-:-/ absolute / metric / decimal}
; #@! TF.CreationDate,2024-10-13T11:01:50+03:00
; #@! TF.GenerationSoftware,Kicad,Pcbnew,8.0.4
; #@! TF.FileFunction,Plated,1,2,PTH
FMAT,2
METRIC
; #@! TA.AperFunction,Plated,PTH,ViaDrill
T1C0.300
; #@! TA.AperFunction,Plated,PTH,ViaDrill
T2C0.350
; #@! TA.AperFunction,Plated,PTH,ComponentDrill
T3C1.000
%
G90
G05
T1
X141.97Y-84.05
T2
X141.54Y-92.85
X141.89Y-93.82
X141.93Y-85.33
X142.28Y-86.2
X142.66Y-95.03
X144.82Y-102.53
X144.83Y-78.74
X144.91Y-80.8
X144.94Y-79.75
X144.97Y-82.05
X145.63Y-82.77
X145.77Y-94.87
X145.8Y-73.82
X146.06Y-83.6
X146.32Y-96.24
X146.57Y-82.77
X146.58Y-100.55
X147.19Y-83.83
X147.58Y-102.76
X147.96Y-79.58
X148.62Y-68.99
X148.84Y-75.67
X148.87Y-84.41
X149.11Y-80.15
X149.16Y-82.63
X149.72Y-97.64
X149.95Y-79.26
X151.63Y-102.32
X151.73Y-77.96
X152.0Y-76.57
T3
X140.0Y-60.0
X140.0Y-62.54
X140.0Y-65.08
X140.0Y-67.62
X140.0Y-70.16
X140.0Y-72.7
X140.0Y-75.24
X140.0Y-77.78
X140.0Y-80.32
X140.0Y-82.86
X140.0Y-85.4
X140.0Y-87.94
X140.0Y-90.48
X140.0Y-93.02
X140.0Y-95.56
X140.0Y-98.1
X140.0Y-100.64
X140.0Y-103.18
X140.0Y-105.72
X140.0Y-108.26
X143.64Y-108.26
X144.56Y-60.9
X146.18Y-108.26
X147.1Y-60.9
X148.72Y-108.26
X149.64Y-60.9
X151.26Y-108.26
X155.0Y-60.0
X155.0Y-62.54
X155.0Y-65.08
X155.0Y-67.62
X155.0Y-70.16
X155.0Y-72.7
X155.0Y-75.24
X155.0Y-77.78
X155.0Y-80.32
X155.0Y-82.86
X155.0Y-85.4
X155.0Y-87.94
X155.0Y-90.48
X155.0Y-93.02
X155.0Y-95.56
X155.0Y-98.1
X155.0Y-100.64
X155.0Y-103.18
X155.0Y-105.72
X155.0Y-108.26
M30
