G04 #@! TF.GenerationSoftware,KiCad,Pcbnew,8.0.4*
G04 #@! TF.CreationDate,2024-10-13T11:01:47+03:00*
G04 #@! TF.ProjectId,stm32f0_nucleo,73746d33-3266-4305-9f6e-75636c656f2e,rev?*
G04 #@! TF.SameCoordinates,Original*
G04 #@! TF.FileFunction,Copper,L2,Bot*
G04 #@! TF.FilePolarity,Positive*
%FSLAX46Y46*%
G04 Gerber Fmt 4.6, Leading zero omitted, Abs format (unit mm)*
G04 Created by KiCad (PCBNEW 8.0.4) date 2024-10-13 11:01:47*
%MOMM*%
%LPD*%
G01*
G04 APERTURE LIST*
G04 Aperture macros list*
%AMRoundRect*
0 Rectangle with rounded corners*
0 $1 Rounding radius*
0 $2 $3 $4 $5 $6 $7 $8 $9 X,Y pos of 4 corners*
0 Add a 4 corners polygon primitive as box body*
4,1,4,$2,$3,$4,$5,$6,$7,$8,$9,$2,$3,0*
0 Add four circle primitives for the rounded corners*
1,1,$1+$1,$2,$3*
1,1,$1+$1,$4,$5*
1,1,$1+$1,$6,$7*
1,1,$1+$1,$8,$9*
0 Add four rect primitives between the rounded corners*
20,1,$1+$1,$2,$3,$4,$5,0*
20,1,$1+$1,$4,$5,$6,$7,0*
20,1,$1+$1,$6,$7,$8,$9,0*
20,1,$1+$1,$8,$9,$2,$3,0*%
G04 Aperture macros list end*
G04 #@! TA.AperFunction,ComponentPad*
%ADD10O,1.700000X1.700000*%
G04 #@! TD*
G04 #@! TA.AperFunction,ComponentPad*
%ADD11R,1.700000X1.700000*%
G04 #@! TD*
G04 #@! TA.AperFunction,SMDPad,CuDef*
%ADD12RoundRect,0.250000X0.412500X0.650000X-0.412500X0.650000X-0.412500X-0.650000X0.412500X-0.650000X0*%
G04 #@! TD*
G04 #@! TA.AperFunction,SMDPad,CuDef*
%ADD13RoundRect,0.250000X0.650000X-0.412500X0.650000X0.412500X-0.650000X0.412500X-0.650000X-0.412500X0*%
G04 #@! TD*
G04 #@! TA.AperFunction,SMDPad,CuDef*
%ADD14RoundRect,0.250000X0.350000X0.450000X-0.350000X0.450000X-0.350000X-0.450000X0.350000X-0.450000X0*%
G04 #@! TD*
G04 #@! TA.AperFunction,SMDPad,CuDef*
%ADD15RoundRect,0.375000X0.625000X0.375000X-0.625000X0.375000X-0.625000X-0.375000X0.625000X-0.375000X0*%
G04 #@! TD*
G04 #@! TA.AperFunction,SMDPad,CuDef*
%ADD16RoundRect,0.500000X0.500000X1.400000X-0.500000X1.400000X-0.500000X-1.400000X0.500000X-1.400000X0*%
G04 #@! TD*
G04 #@! TA.AperFunction,SMDPad,CuDef*
%ADD17RoundRect,0.250000X-0.337500X-0.475000X0.337500X-0.475000X0.337500X0.475000X-0.337500X0.475000X0*%
G04 #@! TD*
G04 #@! TA.AperFunction,SMDPad,CuDef*
%ADD18RoundRect,0.250000X-0.450000X0.350000X-0.450000X-0.350000X0.450000X-0.350000X0.450000X0.350000X0*%
G04 #@! TD*
G04 #@! TA.AperFunction,SMDPad,CuDef*
%ADD19RoundRect,0.250000X-0.412500X-0.650000X0.412500X-0.650000X0.412500X0.650000X-0.412500X0.650000X0*%
G04 #@! TD*
G04 #@! TA.AperFunction,SMDPad,CuDef*
%ADD20RoundRect,0.250000X0.337500X0.475000X-0.337500X0.475000X-0.337500X-0.475000X0.337500X-0.475000X0*%
G04 #@! TD*
G04 #@! TA.AperFunction,SMDPad,CuDef*
%ADD21RoundRect,0.250000X-0.475000X0.337500X-0.475000X-0.337500X0.475000X-0.337500X0.475000X0.337500X0*%
G04 #@! TD*
G04 #@! TA.AperFunction,SMDPad,CuDef*
%ADD22RoundRect,0.250001X0.462499X0.624999X-0.462499X0.624999X-0.462499X-0.624999X0.462499X-0.624999X0*%
G04 #@! TD*
G04 #@! TA.AperFunction,ViaPad*
%ADD23C,0.750000*%
G04 #@! TD*
G04 #@! TA.AperFunction,ViaPad*
%ADD24C,0.700000*%
G04 #@! TD*
G04 #@! TA.AperFunction,ViaPad*
%ADD25C,0.600000*%
G04 #@! TD*
G04 #@! TA.AperFunction,Conductor*
%ADD26C,0.300000*%
G04 #@! TD*
G04 #@! TA.AperFunction,Conductor*
%ADD27C,0.350000*%
G04 #@! TD*
G04 #@! TA.AperFunction,Conductor*
%ADD28C,0.250000*%
G04 #@! TD*
G04 #@! TA.AperFunction,Conductor*
%ADD29C,0.450000*%
G04 #@! TD*
G04 #@! TA.AperFunction,Conductor*
%ADD30C,0.400000*%
G04 #@! TD*
G04 #@! TA.AperFunction,Conductor*
%ADD31C,0.500000*%
G04 #@! TD*
G04 #@! TA.AperFunction,Conductor*
%ADD32C,0.160000*%
G04 #@! TD*
G04 #@! TA.AperFunction,Conductor*
%ADD33C,0.200000*%
G04 #@! TD*
G04 APERTURE END LIST*
D10*
X140000000Y-60000000D03*
X140000000Y-62540000D03*
X140000000Y-65080000D03*
X140000000Y-67620000D03*
X140000000Y-70160000D03*
X140000000Y-72700000D03*
X140000000Y-75240000D03*
X140000000Y-77780000D03*
X140000000Y-80320000D03*
X140000000Y-82860000D03*
X140000000Y-85400000D03*
X140000000Y-87940000D03*
X140000000Y-90480000D03*
X140000000Y-93020000D03*
X140000000Y-95560000D03*
X140000000Y-98100000D03*
X140000000Y-100640000D03*
X140000000Y-103180000D03*
X140000000Y-105720000D03*
D11*
X140000000Y-108260000D03*
D10*
X155000000Y-60000000D03*
X155000000Y-62540000D03*
X155000000Y-65080000D03*
X155000000Y-67620000D03*
X155000000Y-70160000D03*
X155000000Y-72700000D03*
X155000000Y-75240000D03*
X155000000Y-77780000D03*
X155000000Y-80320000D03*
X155000000Y-82860000D03*
X155000000Y-85400000D03*
X155000000Y-87940000D03*
X155000000Y-90480000D03*
X155000000Y-93020000D03*
X155000000Y-95560000D03*
X155000000Y-98100000D03*
D11*
X155000000Y-100640000D03*
X155000000Y-103180000D03*
X155000000Y-105720000D03*
X155000000Y-108260000D03*
X144560001Y-60900000D03*
D10*
X147100001Y-60900000D03*
D11*
X149640000Y-60900000D03*
D12*
X147822500Y-92970000D03*
X144697500Y-92970000D03*
D13*
X151960000Y-100482500D03*
X151960000Y-97357500D03*
D14*
X147140000Y-90850000D03*
X145140000Y-90850000D03*
D15*
X149550000Y-98200000D03*
X149550000Y-100500000D03*
D16*
X143250000Y-100500000D03*
D15*
X149550000Y-102800000D03*
D17*
X144452500Y-63620000D03*
X146527500Y-63620000D03*
D18*
X147220000Y-69500000D03*
X147220000Y-71500000D03*
D19*
X144717500Y-88410000D03*
X147842500Y-88410000D03*
D20*
X149847500Y-83380000D03*
X147772500Y-83380000D03*
D14*
X150280000Y-63620000D03*
X148280000Y-63620000D03*
D12*
X146470000Y-105210000D03*
X143345000Y-105210000D03*
D21*
X149310000Y-69442500D03*
X149310000Y-71517500D03*
D22*
X151017500Y-105230000D03*
X148042500Y-105230000D03*
D20*
X149850000Y-85620000D03*
X147775000Y-85620000D03*
X147307500Y-94970000D03*
X145232500Y-94970000D03*
D12*
X150502500Y-78890000D03*
X147377500Y-78890000D03*
X150482500Y-81270000D03*
X147357500Y-81270000D03*
D11*
X143640001Y-108260000D03*
D10*
X146180001Y-108260000D03*
X148720000Y-108260000D03*
D11*
X151260001Y-108260000D03*
D23*
X147960000Y-79580000D03*
X146580000Y-100550000D03*
X144820000Y-102530000D03*
X142660000Y-95030000D03*
X147190000Y-83830000D03*
X151630000Y-102320000D03*
X149950000Y-79260000D03*
X149720000Y-97640000D03*
D24*
X149160000Y-82630000D03*
X147580000Y-102760000D03*
D23*
X145770000Y-94870000D03*
D25*
X141970000Y-84050000D03*
D24*
X148620000Y-68990000D03*
X145630000Y-82770000D03*
X148870000Y-84410000D03*
X148840000Y-75670000D03*
D23*
X152000000Y-76570000D03*
X146320000Y-96240000D03*
X151730000Y-77960000D03*
D24*
X144910000Y-80800000D03*
X146060000Y-83600000D03*
X144970000Y-82050000D03*
X149110000Y-80150000D03*
X144940000Y-79750000D03*
X142280000Y-86200000D03*
X141890000Y-93820000D03*
X144830000Y-78740000D03*
X141540000Y-92850000D03*
X141930000Y-85330000D03*
X145800000Y-73820000D03*
X146570000Y-82770000D03*
D26*
X154540000Y-105720000D02*
X155000000Y-105720000D01*
X152000000Y-108260000D02*
X154540000Y-105720000D01*
X151260001Y-108260000D02*
X152000000Y-108260000D01*
X148042500Y-106072500D02*
X148042500Y-105230000D01*
X148690000Y-106720000D02*
X148042500Y-106072500D01*
X152280000Y-106720000D02*
X148690000Y-106720000D01*
X152830000Y-106170000D02*
X152280000Y-106720000D01*
X152830000Y-102540000D02*
X152830000Y-106170000D01*
X154730000Y-100640000D02*
X152830000Y-102540000D01*
X155000000Y-100640000D02*
X154730000Y-100640000D01*
D27*
X147960000Y-100550000D02*
X148140000Y-100550000D01*
D28*
X147995000Y-100220000D02*
X147995000Y-100515000D01*
D27*
X151630000Y-102340000D02*
X151650000Y-102320000D01*
D28*
X142660000Y-95030000D02*
X142830000Y-95030000D01*
X148240000Y-100450000D02*
X148140000Y-100550000D01*
D27*
X147370000Y-83650000D02*
X147190000Y-83830000D01*
X147750000Y-100550000D02*
X147960000Y-100550000D01*
X144985000Y-88410000D02*
X147775000Y-85620000D01*
X151960000Y-100482500D02*
X151960000Y-102010000D01*
D28*
X143070000Y-95030000D02*
X147995000Y-99955000D01*
D27*
X142820000Y-94870000D02*
X142660000Y-95030000D01*
X147377500Y-75252500D02*
X147377500Y-78890000D01*
D28*
X148240000Y-100200000D02*
X148240000Y-100450000D01*
D27*
X144792500Y-90800000D02*
X142990000Y-92602500D01*
X147357500Y-81270000D02*
X147357500Y-78910000D01*
X151942500Y-100500000D02*
X151960000Y-100482500D01*
D29*
X155000000Y-103180000D02*
X155000000Y-105720000D01*
D27*
X151630000Y-102320000D02*
X151630000Y-102340000D01*
X151700000Y-62960000D02*
X151700000Y-70930000D01*
X151960000Y-100482500D02*
X149567500Y-100482500D01*
X142990000Y-94870000D02*
X142820000Y-94870000D01*
D28*
X147995000Y-100305000D02*
X147750000Y-100550000D01*
D27*
X150245000Y-72385000D02*
X149310000Y-73320000D01*
X147220000Y-71500000D02*
X149292500Y-71500000D01*
D28*
X148195000Y-100155000D02*
X148540000Y-100500000D01*
D27*
X148140000Y-100550000D02*
X149500000Y-100550000D01*
D28*
X147995000Y-100515000D02*
X147960000Y-100550000D01*
D27*
X149567500Y-100482500D02*
X149550000Y-100500000D01*
X146580000Y-100550000D02*
X147750000Y-100550000D01*
X147802500Y-85592500D02*
X147775000Y-85620000D01*
X147802500Y-83650000D02*
X147802500Y-81715000D01*
X149500000Y-100550000D02*
X149550000Y-100500000D01*
X142990000Y-92602500D02*
X142990000Y-94870000D01*
D28*
X148195000Y-100155000D02*
X148240000Y-100200000D01*
D27*
X149377500Y-71517500D02*
X149310000Y-71517500D01*
D30*
X143250000Y-100960000D02*
X144820000Y-102530000D01*
D27*
X150245000Y-72385000D02*
X149377500Y-71517500D01*
X149292500Y-71500000D02*
X149310000Y-71517500D01*
X151700000Y-70930000D02*
X150245000Y-72385000D01*
X144717500Y-90725000D02*
X144792500Y-90800000D01*
X151650000Y-102320000D02*
X151630000Y-102320000D01*
D30*
X143250000Y-100500000D02*
X143250000Y-100960000D01*
D27*
X151960000Y-102010000D02*
X151650000Y-102320000D01*
X147802500Y-83650000D02*
X147370000Y-83650000D01*
X147802500Y-83650000D02*
X147802500Y-85592500D01*
X149640000Y-60900000D02*
X151700000Y-62960000D01*
X149310000Y-73320000D02*
X147377500Y-75252500D01*
D28*
X147995000Y-100220000D02*
X147995000Y-100305000D01*
D27*
X144717500Y-88410000D02*
X144717500Y-90725000D01*
D28*
X147995000Y-99955000D02*
X147995000Y-100220000D01*
D27*
X147802500Y-81715000D02*
X147357500Y-81270000D01*
D28*
X142830000Y-95030000D02*
X142990000Y-94870000D01*
D27*
X144717500Y-88410000D02*
X144985000Y-88410000D01*
D28*
X148540000Y-100500000D02*
X149550000Y-100500000D01*
X147995000Y-99955000D02*
X148195000Y-100155000D01*
X142660000Y-95030000D02*
X143070000Y-95030000D01*
D27*
X144452500Y-61007501D02*
X144560001Y-60900000D01*
X145222500Y-94960000D02*
X145770000Y-94870000D01*
D31*
X140000000Y-108260000D02*
X143640001Y-108260000D01*
D27*
X149850000Y-86402500D02*
X149850000Y-85620000D01*
X149550000Y-97810000D02*
X149720000Y-97640000D01*
X145222500Y-92970000D02*
X145222500Y-94960000D01*
X147842500Y-88410000D02*
X149850000Y-86402500D01*
D32*
X150502500Y-77647500D02*
X150890000Y-77260000D01*
X150890000Y-77260000D02*
X152780000Y-77260000D01*
X152780000Y-77260000D02*
X152820000Y-77220000D01*
D27*
X149877500Y-83307500D02*
X149200000Y-82630000D01*
X149550000Y-98200000D02*
X149550000Y-97810000D01*
X144452500Y-63620000D02*
X144452500Y-61007501D01*
X154220000Y-73980000D02*
X156190000Y-73980000D01*
X149877500Y-83650000D02*
X149877500Y-83307500D01*
X150502500Y-78890000D02*
X150502500Y-81250000D01*
X149877500Y-81875000D02*
X150482500Y-81270000D01*
X149877500Y-83650000D02*
X149877500Y-85592500D01*
D31*
X143107500Y-105270000D02*
X143107500Y-107727499D01*
D27*
X145770000Y-94870000D02*
X145232500Y-94970000D01*
X151117500Y-98200000D02*
X151960000Y-97357500D01*
X149160000Y-82630000D02*
X149160000Y-82590000D01*
X150502500Y-81250000D02*
X150482500Y-81270000D01*
X156190000Y-73980000D02*
X156210000Y-73960000D01*
X151117500Y-98200000D02*
X149550000Y-98200000D01*
X149200000Y-82630000D02*
X149160000Y-82630000D01*
D32*
X150502500Y-78890000D02*
X150502500Y-77647500D01*
D27*
X149160000Y-82590000D02*
X149300000Y-82730000D01*
D31*
X143107500Y-107727499D02*
X143640001Y-108260000D01*
D27*
X149877500Y-85592500D02*
X149850000Y-85620000D01*
X149877500Y-83650000D02*
X149877500Y-81875000D01*
D32*
X145770000Y-75440000D02*
X145770000Y-82570000D01*
X146527500Y-64852500D02*
X145140000Y-66240000D01*
X145770000Y-82570000D02*
X145600000Y-82740000D01*
X146527500Y-63620000D02*
X146527500Y-64852500D01*
X145140000Y-74810000D02*
X145770000Y-75440000D01*
X145140000Y-66240000D02*
X145140000Y-74810000D01*
D27*
X146527500Y-63620000D02*
X148280000Y-63620000D01*
D26*
X148912500Y-84522500D02*
X148900000Y-84510000D01*
D27*
X147297500Y-94960000D02*
X147307500Y-94970000D01*
D33*
X147140000Y-90172500D02*
X146170000Y-89202500D01*
D26*
X148912500Y-84712500D02*
X148910000Y-84710000D01*
X148280000Y-86960000D02*
X147290000Y-86960000D01*
X148810000Y-86430000D02*
X148912500Y-86327500D01*
X146170000Y-88080000D02*
X146170000Y-89202500D01*
D27*
X147297500Y-92970000D02*
X147297500Y-94960000D01*
X147297500Y-92970000D02*
X147297500Y-91270000D01*
D26*
X148912500Y-86327500D02*
X148912500Y-85000000D01*
X147290000Y-86960000D02*
X146170000Y-88080000D01*
X148810000Y-86430000D02*
X148280000Y-86960000D01*
X148912500Y-85000000D02*
X148912500Y-84712500D01*
D33*
X147140000Y-90850000D02*
X147140000Y-90172500D01*
D26*
X148912500Y-84712500D02*
X148912500Y-84522500D01*
D31*
X146272500Y-105230000D02*
X146232500Y-105270000D01*
D29*
X148042500Y-105230000D02*
X146490000Y-105230000D01*
X146490000Y-105230000D02*
X146470000Y-105210000D01*
X148210000Y-105230000D02*
X148042500Y-105230000D01*
D26*
X151730000Y-77960000D02*
X151720000Y-78050000D01*
X148740000Y-95770000D02*
X148740000Y-92480000D01*
X148840000Y-75670000D02*
X148820000Y-75690000D01*
X146920000Y-96250000D02*
X148260000Y-96250000D01*
X146320000Y-96240000D02*
X146920000Y-96250000D01*
X152000000Y-76570000D02*
X151120000Y-75690000D01*
X151210000Y-83220000D02*
X151720000Y-82710000D01*
X148740000Y-92480000D02*
X149450000Y-91770000D01*
X149450000Y-91770000D02*
X149450000Y-88120000D01*
X148820000Y-75690000D02*
X148720000Y-75690000D01*
X148860000Y-75690000D02*
X148840000Y-75670000D01*
X151120000Y-75690000D02*
X148860000Y-75690000D01*
X148260000Y-96250000D02*
X148740000Y-95770000D01*
X151210000Y-86360000D02*
X151210000Y-83220000D01*
X151720000Y-82710000D02*
X151730000Y-77960000D01*
X149450000Y-88120000D02*
X151210000Y-86360000D01*
X146320000Y-96240000D02*
X146320000Y-96250000D01*
D32*
X141490000Y-87940000D02*
X140000000Y-87940000D01*
X144910000Y-80800000D02*
X144280000Y-81430000D01*
X144280000Y-81430000D02*
X144280000Y-85150000D01*
X144280000Y-85150000D02*
X141490000Y-87940000D01*
X141240000Y-91780000D02*
X140000000Y-93020000D01*
X145920000Y-83600000D02*
X145930000Y-83600000D01*
X144590000Y-87020000D02*
X144030000Y-87020000D01*
X144030000Y-87020000D02*
X143560000Y-87490000D01*
X146600000Y-84140000D02*
X146060000Y-83600000D01*
X146600000Y-85010000D02*
X144590000Y-87020000D01*
X142350000Y-91780000D02*
X141240000Y-91780000D01*
X146600000Y-84140000D02*
X146600000Y-85010000D01*
X143560000Y-90570000D02*
X142350000Y-91780000D01*
X143560000Y-87490000D02*
X143560000Y-90570000D01*
X146060000Y-83600000D02*
X145920000Y-83600000D01*
X142860000Y-87560000D02*
X142860000Y-89590000D01*
X141970000Y-90480000D02*
X140000000Y-90480000D01*
X144970000Y-82070000D02*
X144970000Y-85450000D01*
X144970000Y-85450000D02*
X142860000Y-87560000D01*
X142860000Y-89590000D02*
X141970000Y-90480000D01*
X153370000Y-73460000D02*
X153370000Y-69250000D01*
X153370000Y-69250000D02*
X155000000Y-67620000D01*
X151930000Y-74900000D02*
X153370000Y-73460000D01*
X149110000Y-80150000D02*
X149110000Y-77400000D01*
X148520000Y-74900000D02*
X151930000Y-74900000D01*
X147980000Y-76270000D02*
X147980000Y-75440000D01*
X149110000Y-77400000D02*
X147980000Y-76270000D01*
X147980000Y-75440000D02*
X148520000Y-74900000D01*
X142410000Y-86300000D02*
X142280000Y-86200000D01*
X142200000Y-86310000D02*
X142210000Y-86300000D01*
X142580000Y-86130000D02*
X142410000Y-86300000D01*
X142280000Y-86200000D02*
X142200000Y-86310000D01*
X141890000Y-93820000D02*
X141950000Y-95370000D01*
X144930000Y-103930000D02*
X144930000Y-106160000D01*
X144930000Y-106160000D02*
X145640000Y-106870000D01*
X143610000Y-81070000D02*
X143610000Y-84750000D01*
X144940000Y-79740000D02*
X144940000Y-79750000D01*
X142640000Y-86070000D02*
X142410000Y-86070000D01*
X143610000Y-85100000D02*
X142640000Y-86070000D01*
X141950000Y-95370000D02*
X145880000Y-99300000D01*
X144940000Y-79750000D02*
X144930000Y-79750000D01*
X144930000Y-79750000D02*
X143610000Y-81070000D01*
X145880000Y-99300000D02*
X145880000Y-102980000D01*
X144960000Y-79720000D02*
X144940000Y-79740000D01*
X141950000Y-93800000D02*
X141890000Y-93820000D01*
X145640000Y-106870000D02*
X147340000Y-106870000D01*
X145880000Y-102980000D02*
X144930000Y-103930000D01*
X147340000Y-106870000D02*
X147340000Y-106880000D01*
X142640000Y-86070000D02*
X142580000Y-86130000D01*
X143610000Y-84750000D02*
X143610000Y-85100000D01*
X142410000Y-86070000D02*
X142280000Y-86200000D01*
X147340000Y-106880000D02*
X148720000Y-108260000D01*
X141200000Y-95210000D02*
X141200000Y-93190000D01*
X144830000Y-78750000D02*
X144830000Y-78910000D01*
X145475000Y-102801310D02*
X144516310Y-103760000D01*
X144516310Y-106596309D02*
X146180001Y-108260000D01*
X145460000Y-99470000D02*
X145460000Y-102020000D01*
X145475000Y-102035000D02*
X145475000Y-102801310D01*
X145460000Y-102020000D02*
X145475000Y-102035000D01*
X144516310Y-103760000D02*
X144516310Y-106596309D01*
X141200000Y-95210000D02*
X145460000Y-99470000D01*
X144830000Y-78910000D02*
X143050000Y-80690000D01*
X143050000Y-80690000D02*
X143050000Y-84860000D01*
X143050000Y-84860000D02*
X142580000Y-85330000D01*
X142580000Y-85330000D02*
X141930000Y-85330000D01*
X141200000Y-93190000D02*
X141540000Y-92850000D01*
D27*
X147100001Y-61720001D02*
X147100001Y-60900000D01*
X150280000Y-63180000D02*
X149450000Y-62350000D01*
X147730000Y-62350000D02*
X147100001Y-61720001D01*
X150280000Y-63620000D02*
X150280000Y-63180000D01*
X149450000Y-62350000D02*
X147730000Y-62350000D01*
X146760000Y-69500000D02*
X145800000Y-70460000D01*
X145800000Y-70460000D02*
X145800000Y-73820000D01*
D32*
X146750000Y-82770000D02*
X146570000Y-82770000D01*
X146860000Y-82660000D02*
X146750000Y-82770000D01*
X146130000Y-74150000D02*
X145800000Y-73820000D01*
X146570000Y-82770000D02*
X146170000Y-82370000D01*
D27*
X147220000Y-69500000D02*
X146760000Y-69500000D01*
D32*
X146170000Y-82370000D02*
X146130000Y-82370000D01*
X146130000Y-82370000D02*
X146130000Y-74150000D01*
D31*
X150800000Y-105230000D02*
X149490000Y-103920000D01*
X149490000Y-103920000D02*
X149550000Y-103860000D01*
X149550000Y-103860000D02*
X149550000Y-102800000D01*
X151017500Y-105230000D02*
X150800000Y-105230000D01*
G04 #@! TA.AperFunction,Conductor*
G36*
X148118357Y-101244407D02*
G01*
X148148856Y-101280512D01*
X148164661Y-101312379D01*
X148182969Y-101349295D01*
X148182970Y-101349296D01*
X148302278Y-101497722D01*
X148395727Y-101572838D01*
X148429236Y-101624032D01*
X148426254Y-101685145D01*
X148395727Y-101727162D01*
X148302280Y-101802276D01*
X148302276Y-101802280D01*
X148182970Y-101950703D01*
X148098359Y-102121307D01*
X148052400Y-102306109D01*
X148052399Y-102306114D01*
X148049500Y-102348859D01*
X148049500Y-103251117D01*
X148049501Y-103251142D01*
X148052400Y-103293887D01*
X148052399Y-103293887D01*
X148079675Y-103403564D01*
X148098359Y-103478693D01*
X148182970Y-103649296D01*
X148182971Y-103649297D01*
X148182972Y-103649299D01*
X148218482Y-103693476D01*
X148240202Y-103750676D01*
X148224153Y-103809719D01*
X148176464Y-103848052D01*
X148141320Y-103854500D01*
X147529984Y-103854500D01*
X147427205Y-103865000D01*
X147313675Y-103902620D01*
X147252490Y-103902976D01*
X147230564Y-103892907D01*
X147201834Y-103875186D01*
X147201832Y-103875185D01*
X147035294Y-103820000D01*
X146932517Y-103809500D01*
X146110456Y-103809500D01*
X146052265Y-103790593D01*
X146016301Y-103741093D01*
X146016301Y-103679907D01*
X146040450Y-103640498D01*
X146236432Y-103444517D01*
X146236435Y-103444516D01*
X146344516Y-103336435D01*
X146368160Y-103295483D01*
X146420938Y-103204069D01*
X146420938Y-103204067D01*
X146420940Y-103204065D01*
X146444412Y-103116465D01*
X146449975Y-103095706D01*
X146460500Y-103056424D01*
X146460500Y-101524500D01*
X146479407Y-101466309D01*
X146528907Y-101430345D01*
X146559500Y-101425500D01*
X146672017Y-101425500D01*
X146672019Y-101425500D01*
X146852034Y-101387236D01*
X147020161Y-101312381D01*
X147113720Y-101244407D01*
X147171910Y-101225500D01*
X147683469Y-101225500D01*
X147893469Y-101225500D01*
X148060166Y-101225500D01*
X148118357Y-101244407D01*
G37*
G04 #@! TD.AperFunction*
G04 #@! TA.AperFunction,Conductor*
G36*
X154061913Y-73671809D02*
G01*
X154128599Y-73738495D01*
X154322170Y-73874035D01*
X154335552Y-73880275D01*
X154380300Y-73922003D01*
X154391975Y-73982064D01*
X154366117Y-74037517D01*
X154335554Y-74059724D01*
X154322173Y-74065963D01*
X154128603Y-74201501D01*
X153961501Y-74368603D01*
X153825963Y-74562173D01*
X153825959Y-74562181D01*
X153726098Y-74776332D01*
X153664935Y-75004599D01*
X153644341Y-75239995D01*
X153644341Y-75240004D01*
X153664935Y-75475400D01*
X153664936Y-75475407D01*
X153664937Y-75475408D01*
X153726097Y-75703663D01*
X153825965Y-75917830D01*
X153961505Y-76111401D01*
X154128599Y-76278495D01*
X154322170Y-76414035D01*
X154335552Y-76420275D01*
X154380300Y-76462003D01*
X154391975Y-76522064D01*
X154366117Y-76577517D01*
X154335554Y-76599724D01*
X154322173Y-76605963D01*
X154128603Y-76741501D01*
X153961501Y-76908603D01*
X153825963Y-77102173D01*
X153825959Y-77102181D01*
X153726098Y-77316332D01*
X153664935Y-77544599D01*
X153644341Y-77779995D01*
X153644341Y-77780004D01*
X153664935Y-78015400D01*
X153664936Y-78015407D01*
X153664937Y-78015408D01*
X153726097Y-78243663D01*
X153825965Y-78457830D01*
X153961505Y-78651401D01*
X154128599Y-78818495D01*
X154322170Y-78954035D01*
X154331098Y-78958198D01*
X154335552Y-78960275D01*
X154380300Y-79002003D01*
X154391975Y-79062064D01*
X154366117Y-79117517D01*
X154335554Y-79139724D01*
X154322173Y-79145963D01*
X154128603Y-79281501D01*
X153961501Y-79448603D01*
X153825963Y-79642173D01*
X153825959Y-79642181D01*
X153726098Y-79856332D01*
X153664935Y-80084599D01*
X153644341Y-80319995D01*
X153644341Y-80320004D01*
X153664935Y-80555400D01*
X153664936Y-80555407D01*
X153664937Y-80555408D01*
X153726097Y-80783663D01*
X153825965Y-80997830D01*
X153961505Y-81191401D01*
X154128599Y-81358495D01*
X154322170Y-81494035D01*
X154335552Y-81500275D01*
X154380300Y-81542003D01*
X154391975Y-81602064D01*
X154366117Y-81657517D01*
X154335554Y-81679724D01*
X154322173Y-81685963D01*
X154128603Y-81821501D01*
X153961501Y-81988603D01*
X153825963Y-82182173D01*
X153825959Y-82182181D01*
X153726098Y-82396332D01*
X153664935Y-82624599D01*
X153644341Y-82859995D01*
X153644341Y-82860004D01*
X153664935Y-83095400D01*
X153664936Y-83095407D01*
X153664937Y-83095408D01*
X153726097Y-83323663D01*
X153825965Y-83537830D01*
X153961505Y-83731401D01*
X154128599Y-83898495D01*
X154322170Y-84034035D01*
X154335552Y-84040275D01*
X154380300Y-84082003D01*
X154391975Y-84142064D01*
X154366117Y-84197517D01*
X154335554Y-84219724D01*
X154322173Y-84225963D01*
X154128603Y-84361501D01*
X153961501Y-84528603D01*
X153825963Y-84722173D01*
X153825959Y-84722181D01*
X153726098Y-84936332D01*
X153664935Y-85164599D01*
X153644341Y-85399995D01*
X153644341Y-85400004D01*
X153664935Y-85635400D01*
X153664936Y-85635407D01*
X153664937Y-85635408D01*
X153726097Y-85863663D01*
X153825965Y-86077830D01*
X153961505Y-86271401D01*
X154128599Y-86438495D01*
X154322170Y-86574035D01*
X154335552Y-86580275D01*
X154380300Y-86622003D01*
X154391975Y-86682064D01*
X154366117Y-86737517D01*
X154335554Y-86759724D01*
X154322173Y-86765963D01*
X154128603Y-86901501D01*
X153961501Y-87068603D01*
X153825963Y-87262173D01*
X153825959Y-87262181D01*
X153726098Y-87476332D01*
X153664935Y-87704599D01*
X153644341Y-87939995D01*
X153644341Y-87940004D01*
X153664935Y-88175400D01*
X153664936Y-88175407D01*
X153664937Y-88175408D01*
X153726097Y-88403663D01*
X153825965Y-88617830D01*
X153961505Y-88811401D01*
X154128599Y-88978495D01*
X154322170Y-89114035D01*
X154335552Y-89120275D01*
X154380300Y-89162003D01*
X154391975Y-89222064D01*
X154366117Y-89277517D01*
X154335554Y-89299724D01*
X154322173Y-89305963D01*
X154128603Y-89441501D01*
X153961501Y-89608603D01*
X153825963Y-89802173D01*
X153825959Y-89802181D01*
X153726098Y-90016332D01*
X153664935Y-90244599D01*
X153644341Y-90479995D01*
X153644341Y-90480004D01*
X153664935Y-90715400D01*
X153664936Y-90715407D01*
X153664937Y-90715408D01*
X153726097Y-90943663D01*
X153825965Y-91157830D01*
X153961505Y-91351401D01*
X154128599Y-91518495D01*
X154322170Y-91654035D01*
X154335552Y-91660275D01*
X154380300Y-91702003D01*
X154391975Y-91762064D01*
X154366117Y-91817517D01*
X154335554Y-91839724D01*
X154322173Y-91845963D01*
X154128603Y-91981501D01*
X153961501Y-92148603D01*
X153825963Y-92342173D01*
X153825959Y-92342181D01*
X153726098Y-92556332D01*
X153664935Y-92784599D01*
X153644341Y-93019995D01*
X153644341Y-93020004D01*
X153664935Y-93255400D01*
X153726097Y-93483662D01*
X153825964Y-93697828D01*
X153937327Y-93856872D01*
X153961505Y-93891401D01*
X154128599Y-94058495D01*
X154322170Y-94194035D01*
X154335552Y-94200275D01*
X154380300Y-94242003D01*
X154391975Y-94302064D01*
X154366117Y-94357517D01*
X154335554Y-94379724D01*
X154322173Y-94385963D01*
X154128603Y-94521501D01*
X153961501Y-94688603D01*
X153825963Y-94882173D01*
X153825959Y-94882181D01*
X153726098Y-95096332D01*
X153664935Y-95324599D01*
X153644341Y-95559995D01*
X153644341Y-95560004D01*
X153664935Y-95795400D01*
X153664936Y-95795407D01*
X153664937Y-95795408D01*
X153726097Y-96023663D01*
X153825965Y-96237830D01*
X153841939Y-96260643D01*
X153955642Y-96423029D01*
X153961505Y-96431401D01*
X154128599Y-96598495D01*
X154322170Y-96734035D01*
X154335552Y-96740275D01*
X154380300Y-96782003D01*
X154391975Y-96842064D01*
X154366117Y-96897517D01*
X154335554Y-96919724D01*
X154322173Y-96925963D01*
X154128603Y-97061501D01*
X153961501Y-97228603D01*
X153825963Y-97422173D01*
X153825959Y-97422181D01*
X153726098Y-97636332D01*
X153664935Y-97864599D01*
X153644341Y-98099995D01*
X153644341Y-98100004D01*
X153664935Y-98335400D01*
X153664936Y-98335407D01*
X153664937Y-98335408D01*
X153714397Y-98519999D01*
X153726097Y-98563662D01*
X153825964Y-98777828D01*
X153927321Y-98922582D01*
X153961505Y-98971401D01*
X154116060Y-99125956D01*
X154143836Y-99180471D01*
X154134265Y-99240903D01*
X154091000Y-99284168D01*
X154056637Y-99294391D01*
X154042517Y-99295909D01*
X154042514Y-99295909D01*
X153907670Y-99346202D01*
X153792458Y-99432450D01*
X153792450Y-99432458D01*
X153706202Y-99547670D01*
X153655910Y-99682511D01*
X153655908Y-99682522D01*
X153649500Y-99742129D01*
X153649500Y-100759545D01*
X153630593Y-100817736D01*
X153620503Y-100829549D01*
X153529502Y-100920549D01*
X153474985Y-100948326D01*
X153414553Y-100938754D01*
X153371289Y-100895490D01*
X153360499Y-100850548D01*
X153360499Y-100019992D01*
X153360499Y-100019983D01*
X153350000Y-99917211D01*
X153349999Y-99917209D01*
X153349999Y-99917203D01*
X153294814Y-99750666D01*
X153202712Y-99601344D01*
X153078656Y-99477288D01*
X153078653Y-99477286D01*
X153078652Y-99477285D01*
X152929336Y-99385187D01*
X152929335Y-99385186D01*
X152929334Y-99385186D01*
X152762797Y-99330001D01*
X152762794Y-99330000D01*
X152660016Y-99319500D01*
X151259983Y-99319500D01*
X151157211Y-99329999D01*
X151157199Y-99330002D01*
X150990663Y-99385187D01*
X150858575Y-99466659D01*
X150799122Y-99481115D01*
X150744578Y-99459560D01*
X150717155Y-99437517D01*
X150703873Y-99426840D01*
X150670365Y-99375647D01*
X150673347Y-99314534D01*
X150703875Y-99272517D01*
X150797361Y-99197371D01*
X150797368Y-99197364D01*
X150916606Y-99049026D01*
X150916608Y-99049023D01*
X151001168Y-98878522D01*
X151047102Y-98693821D01*
X151049999Y-98651115D01*
X151050000Y-98651096D01*
X151050000Y-98608172D01*
X151068907Y-98549981D01*
X151118407Y-98514017D01*
X151159063Y-98509685D01*
X151260013Y-98519999D01*
X151709998Y-98519999D01*
X151710000Y-98519998D01*
X151710000Y-97607501D01*
X152210000Y-97607501D01*
X152210000Y-98519998D01*
X152210001Y-98519999D01*
X152659986Y-98519999D01*
X152762687Y-98509507D01*
X152762699Y-98509504D01*
X152929124Y-98454356D01*
X153078340Y-98362319D01*
X153202319Y-98238340D01*
X153294356Y-98089124D01*
X153349506Y-97922693D01*
X153360000Y-97819987D01*
X153360000Y-97607501D01*
X153359999Y-97607500D01*
X152210001Y-97607500D01*
X152210000Y-97607501D01*
X151710000Y-97607501D01*
X151710000Y-96195001D01*
X152210000Y-96195001D01*
X152210000Y-97107499D01*
X152210001Y-97107500D01*
X153359998Y-97107500D01*
X153359999Y-97107499D01*
X153359999Y-96895013D01*
X153349507Y-96792312D01*
X153349504Y-96792300D01*
X153294356Y-96625875D01*
X153202319Y-96476659D01*
X153078340Y-96352680D01*
X152929124Y-96260643D01*
X152762693Y-96205493D01*
X152659987Y-96195000D01*
X152210001Y-96195000D01*
X152210000Y-96195001D01*
X151710000Y-96195001D01*
X151709999Y-96195000D01*
X151260013Y-96195000D01*
X151157312Y-96205492D01*
X151157300Y-96205495D01*
X150990875Y-96260643D01*
X150841659Y-96352680D01*
X150717680Y-96476659D01*
X150625643Y-96625875D01*
X150570493Y-96792306D01*
X150560000Y-96895011D01*
X150559874Y-96897489D01*
X150538034Y-96954643D01*
X150486770Y-96988045D01*
X150437110Y-96988531D01*
X150293822Y-96952897D01*
X150251115Y-96950000D01*
X149800001Y-96950000D01*
X149800000Y-96950001D01*
X149800000Y-98351000D01*
X149781093Y-98409191D01*
X149731593Y-98445155D01*
X149701000Y-98450000D01*
X148050001Y-98450000D01*
X148050000Y-98450001D01*
X148050000Y-98651115D01*
X148052897Y-98693821D01*
X148052896Y-98693821D01*
X148098831Y-98878522D01*
X148121494Y-98924218D01*
X148130411Y-98984751D01*
X148102044Y-99038963D01*
X148047230Y-99066148D01*
X147986905Y-99055922D01*
X147962799Y-99038209D01*
X146209094Y-97284504D01*
X146181317Y-97229987D01*
X146190888Y-97169555D01*
X146234153Y-97126290D01*
X146279098Y-97115500D01*
X146412017Y-97115500D01*
X146412019Y-97115500D01*
X146592034Y-97077236D01*
X146760161Y-97002381D01*
X146873946Y-96919710D01*
X146932134Y-96900805D01*
X146933690Y-96900818D01*
X146973220Y-96901477D01*
X146973229Y-96901475D01*
X146978066Y-96901081D01*
X146978087Y-96901348D01*
X146987515Y-96900500D01*
X148324068Y-96900500D01*
X148324069Y-96900500D01*
X148384370Y-96888505D01*
X148420516Y-96881315D01*
X148481277Y-96888505D01*
X148526207Y-96930037D01*
X148538145Y-96990047D01*
X148512530Y-97045612D01*
X148483819Y-97067103D01*
X148450973Y-97083393D01*
X148302635Y-97202631D01*
X148302631Y-97202635D01*
X148183393Y-97350973D01*
X148183391Y-97350976D01*
X148098831Y-97521477D01*
X148052897Y-97706178D01*
X148050000Y-97748884D01*
X148050000Y-97949999D01*
X148050001Y-97950000D01*
X149299999Y-97950000D01*
X149300000Y-97949999D01*
X149300000Y-96950001D01*
X149299999Y-96950000D01*
X148848884Y-96950000D01*
X148806178Y-96952897D01*
X148676525Y-96985141D01*
X148615491Y-96980836D01*
X148568644Y-96941479D01*
X148553877Y-96882102D01*
X148576832Y-96825386D01*
X148597632Y-96806751D01*
X148607723Y-96800008D01*
X148634670Y-96782003D01*
X148674669Y-96755277D01*
X149245277Y-96184669D01*
X149316466Y-96078126D01*
X149365501Y-95959743D01*
X149367137Y-95951522D01*
X149390500Y-95834069D01*
X149390500Y-92790453D01*
X149409407Y-92732262D01*
X149419490Y-92720455D01*
X149955277Y-92184669D01*
X150026466Y-92078126D01*
X150059033Y-91999500D01*
X150075501Y-91959744D01*
X150100500Y-91834069D01*
X150100500Y-88430453D01*
X150119407Y-88372262D01*
X150129490Y-88360455D01*
X151715277Y-86774669D01*
X151786465Y-86668127D01*
X151835501Y-86549744D01*
X151842168Y-86516226D01*
X151860500Y-86424069D01*
X151860500Y-83530452D01*
X151879407Y-83472261D01*
X151889484Y-83460461D01*
X152179716Y-83170229D01*
X152224402Y-83125732D01*
X152224402Y-83125731D01*
X152224406Y-83125728D01*
X152225097Y-83124887D01*
X152225175Y-83124793D01*
X152225271Y-83124674D01*
X152225277Y-83124669D01*
X152247342Y-83091643D01*
X152260457Y-83072017D01*
X152260574Y-83071841D01*
X152295815Y-83019340D01*
X152295815Y-83019338D01*
X152295818Y-83019335D01*
X152296461Y-83018134D01*
X152296462Y-83018131D01*
X152296465Y-83018127D01*
X152320749Y-82959500D01*
X152345100Y-82901060D01*
X152345102Y-82901047D01*
X152345449Y-82899909D01*
X152345473Y-82899831D01*
X152345492Y-82899763D01*
X152345501Y-82899744D01*
X152357820Y-82837811D01*
X152370364Y-82775438D01*
X152370364Y-82775417D01*
X152370499Y-82774083D01*
X152370499Y-82711308D01*
X152373061Y-81494035D01*
X152379184Y-78585213D01*
X152398214Y-78527063D01*
X152404602Y-78519189D01*
X152442195Y-78477440D01*
X152534214Y-78318059D01*
X152591085Y-78143029D01*
X152610322Y-77960000D01*
X152591085Y-77776971D01*
X152534214Y-77601941D01*
X152442195Y-77442560D01*
X152442192Y-77442557D01*
X152441350Y-77441098D01*
X152428628Y-77381249D01*
X152453514Y-77325354D01*
X152468891Y-77311506D01*
X152589050Y-77224207D01*
X152712195Y-77087440D01*
X152804214Y-76928059D01*
X152861085Y-76753029D01*
X152880322Y-76570000D01*
X152861085Y-76386971D01*
X152804214Y-76211941D01*
X152804211Y-76211936D01*
X152804209Y-76211931D01*
X152746164Y-76111396D01*
X152712195Y-76052560D01*
X152589050Y-75915793D01*
X152440161Y-75807619D01*
X152440157Y-75807617D01*
X152440154Y-75807615D01*
X152272036Y-75732765D01*
X152272034Y-75732764D01*
X152272031Y-75732763D01*
X152272030Y-75732763D01*
X152218849Y-75721459D01*
X152092019Y-75694500D01*
X152092017Y-75694500D01*
X152085454Y-75694500D01*
X152027263Y-75675593D01*
X152015450Y-75665504D01*
X151988884Y-75638938D01*
X151961107Y-75584421D01*
X151970678Y-75523989D01*
X152013943Y-75480724D01*
X152033261Y-75473309D01*
X152080244Y-75460720D01*
X152154065Y-75440940D01*
X152154067Y-75440938D01*
X152154069Y-75440938D01*
X152286430Y-75364519D01*
X152286430Y-75364518D01*
X152286435Y-75364516D01*
X152394516Y-75256435D01*
X153834516Y-73816435D01*
X153906178Y-73692312D01*
X153951644Y-73651374D01*
X154012494Y-73644978D01*
X154061913Y-73671809D01*
G37*
G04 #@! TD.AperFunction*
G04 #@! TA.AperFunction,Conductor*
G36*
X143816473Y-94212204D02*
G01*
X143965874Y-94304356D01*
X144077611Y-94341382D01*
X144126901Y-94377633D01*
X144145469Y-94435933D01*
X144145116Y-94442494D01*
X144145128Y-94442495D01*
X144145000Y-94445012D01*
X144145000Y-94719999D01*
X144145001Y-94720000D01*
X145383500Y-94720000D01*
X145441691Y-94738907D01*
X145477655Y-94788407D01*
X145482500Y-94819000D01*
X145482500Y-95121000D01*
X145463593Y-95179191D01*
X145414093Y-95215155D01*
X145383500Y-95220000D01*
X144185598Y-95220000D01*
X144127407Y-95201093D01*
X144115594Y-95191004D01*
X143694496Y-94769906D01*
X143666719Y-94715389D01*
X143665500Y-94699902D01*
X143665500Y-94296464D01*
X143684407Y-94238273D01*
X143733907Y-94202309D01*
X143795093Y-94202309D01*
X143816473Y-94212204D01*
G37*
G04 #@! TD.AperFunction*
G04 #@! TA.AperFunction,Conductor*
G36*
X146184945Y-91763165D02*
G01*
X146210000Y-91781368D01*
X146321344Y-91892712D01*
X146470666Y-91984814D01*
X146554141Y-92012474D01*
X146603430Y-92048725D01*
X146622000Y-92106449D01*
X146622000Y-93772612D01*
X146603093Y-93830803D01*
X146574973Y-93856872D01*
X146501348Y-93902284D01*
X146377284Y-94026348D01*
X146353966Y-94064153D01*
X146307325Y-94103754D01*
X146246314Y-94108377D01*
X146194239Y-94076256D01*
X146185445Y-94064152D01*
X146162319Y-94026659D01*
X146038340Y-93902680D01*
X145901030Y-93817987D01*
X145861428Y-93771346D01*
X145854515Y-93723662D01*
X145860000Y-93669985D01*
X145860000Y-93220001D01*
X145859999Y-93220000D01*
X144546500Y-93220000D01*
X144488309Y-93201093D01*
X144452345Y-93151593D01*
X144447500Y-93121000D01*
X144447500Y-92819000D01*
X144466407Y-92760809D01*
X144515907Y-92724845D01*
X144546500Y-92720000D01*
X145859998Y-92720000D01*
X145859999Y-92719999D01*
X145859999Y-92270013D01*
X145849507Y-92167312D01*
X145849504Y-92167300D01*
X145817102Y-92069515D01*
X145816746Y-92008331D01*
X145852421Y-91958622D01*
X145859096Y-91954120D01*
X145958656Y-91892712D01*
X146069998Y-91781369D01*
X146124513Y-91753594D01*
X146184945Y-91763165D01*
G37*
G04 #@! TD.AperFunction*
G04 #@! TA.AperFunction,Conductor*
G36*
X149462514Y-86844999D02*
G01*
X149566044Y-86844999D01*
X149624235Y-86863906D01*
X149660199Y-86913405D01*
X149660200Y-86974591D01*
X149636049Y-87014003D01*
X149120006Y-87530046D01*
X149065489Y-87557823D01*
X149005057Y-87548252D01*
X148961792Y-87504987D01*
X148956027Y-87491182D01*
X148939358Y-87440879D01*
X148939354Y-87440871D01*
X148896412Y-87371252D01*
X148881955Y-87311799D01*
X148905205Y-87255203D01*
X148910642Y-87249302D01*
X149216518Y-86943425D01*
X149216522Y-86943423D01*
X149224667Y-86935277D01*
X149224669Y-86935277D01*
X149295361Y-86864584D01*
X149349875Y-86836808D01*
X149375426Y-86836102D01*
X149462514Y-86844999D01*
G37*
G04 #@! TD.AperFunction*
G04 #@! TA.AperFunction,Conductor*
G36*
X150056691Y-83148907D02*
G01*
X150092655Y-83198407D01*
X150097500Y-83229000D01*
X150097500Y-84377505D01*
X150098781Y-84380020D01*
X150100000Y-84395507D01*
X150100000Y-85771000D01*
X150081093Y-85829191D01*
X150031593Y-85865155D01*
X150001000Y-85870000D01*
X149699000Y-85870000D01*
X149640809Y-85851093D01*
X149604845Y-85801593D01*
X149600000Y-85771000D01*
X149600000Y-84873128D01*
X149613263Y-84823629D01*
X149651250Y-84757835D01*
X149706497Y-84587803D01*
X149725185Y-84410000D01*
X149706497Y-84232197D01*
X149651250Y-84062165D01*
X149610763Y-83992039D01*
X149597500Y-83942539D01*
X149597500Y-83229000D01*
X149616407Y-83170809D01*
X149665907Y-83134845D01*
X149696500Y-83130000D01*
X149998500Y-83130000D01*
X150056691Y-83148907D01*
G37*
G04 #@! TD.AperFunction*
G04 #@! TA.AperFunction,Conductor*
G36*
X150867737Y-76359407D02*
G01*
X150879550Y-76369496D01*
X151099541Y-76589487D01*
X151127318Y-76644004D01*
X151127995Y-76649141D01*
X151137703Y-76741501D01*
X151138916Y-76753034D01*
X151195784Y-76928054D01*
X151195790Y-76928068D01*
X151288649Y-77088903D01*
X151301371Y-77148751D01*
X151276485Y-77204647D01*
X151261104Y-77218495D01*
X151140951Y-77305791D01*
X151140950Y-77305792D01*
X151017800Y-77442565D01*
X151014754Y-77446759D01*
X151013252Y-77445668D01*
X150973532Y-77481438D01*
X150933258Y-77490000D01*
X150752501Y-77490000D01*
X150752500Y-77490001D01*
X150752500Y-80271993D01*
X150733593Y-80330184D01*
X150732500Y-80331463D01*
X150732500Y-81421000D01*
X150713593Y-81479191D01*
X150664093Y-81515155D01*
X150633500Y-81520000D01*
X149320002Y-81520000D01*
X149320001Y-81520001D01*
X149320001Y-81969986D01*
X149330492Y-82072687D01*
X149331626Y-82077981D01*
X149329762Y-82078379D01*
X149330068Y-82131532D01*
X149294390Y-82181239D01*
X149266880Y-82195457D01*
X149190874Y-82220643D01*
X149041659Y-82312680D01*
X148917680Y-82436659D01*
X148894553Y-82474154D01*
X148847911Y-82513754D01*
X148786901Y-82518377D01*
X148734825Y-82486255D01*
X148726032Y-82474152D01*
X148702714Y-82436347D01*
X148702713Y-82436346D01*
X148702712Y-82436344D01*
X148578656Y-82312288D01*
X148578653Y-82312286D01*
X148578651Y-82312284D01*
X148525027Y-82279208D01*
X148485426Y-82232567D01*
X148478000Y-82194948D01*
X148478000Y-82185338D01*
X148483024Y-82154200D01*
X148509999Y-82072797D01*
X148510011Y-82072687D01*
X148520499Y-81970016D01*
X148520500Y-81970009D01*
X148520499Y-80967276D01*
X148539406Y-80909086D01*
X148588906Y-80873122D01*
X148650092Y-80873122D01*
X148677693Y-80887187D01*
X148682405Y-80890611D01*
X148682412Y-80890615D01*
X148845726Y-80963326D01*
X148845733Y-80963329D01*
X149020609Y-81000500D01*
X149020612Y-81000500D01*
X149199388Y-81000500D01*
X149199391Y-81000500D01*
X149230198Y-80993951D01*
X149291043Y-81000344D01*
X149319645Y-81020000D01*
X150232499Y-81020000D01*
X150232500Y-81019999D01*
X150232500Y-79888007D01*
X150251407Y-79829816D01*
X150252500Y-79828536D01*
X150252500Y-77490001D01*
X150252499Y-77490000D01*
X150040013Y-77490000D01*
X149937312Y-77500492D01*
X149937300Y-77500495D01*
X149820640Y-77539152D01*
X149759455Y-77539508D01*
X149709747Y-77503832D01*
X149690502Y-77445753D01*
X149690500Y-77445177D01*
X149690500Y-77323574D01*
X149689689Y-77320548D01*
X149689688Y-77320546D01*
X149685734Y-77305791D01*
X149650940Y-77175935D01*
X149624424Y-77130008D01*
X149574516Y-77043565D01*
X149574515Y-77043564D01*
X149466435Y-76935483D01*
X149466435Y-76935484D01*
X149143858Y-76612907D01*
X149116081Y-76558390D01*
X149125652Y-76497958D01*
X149168917Y-76454693D01*
X149173596Y-76452462D01*
X149267582Y-76410617D01*
X149267582Y-76410616D01*
X149267593Y-76410612D01*
X149338070Y-76359406D01*
X149396260Y-76340500D01*
X150809546Y-76340500D01*
X150867737Y-76359407D01*
G37*
G04 #@! TD.AperFunction*
G04 #@! TA.AperFunction,Conductor*
G36*
X149324945Y-64533165D02*
G01*
X149350000Y-64551368D01*
X149461344Y-64662712D01*
X149461346Y-64662713D01*
X149461347Y-64662714D01*
X149501876Y-64687712D01*
X149610666Y-64754814D01*
X149777203Y-64809999D01*
X149879991Y-64820500D01*
X150680008Y-64820499D01*
X150680016Y-64820499D01*
X150782788Y-64810000D01*
X150782788Y-64809999D01*
X150782797Y-64809999D01*
X150894361Y-64773029D01*
X150955544Y-64772674D01*
X151005252Y-64808349D01*
X151024498Y-64866428D01*
X151024500Y-64867005D01*
X151024500Y-70609191D01*
X151005593Y-70667382D01*
X150995503Y-70679195D01*
X150668979Y-71005718D01*
X150614463Y-71033495D01*
X150554031Y-71023924D01*
X150510766Y-70980659D01*
X150505001Y-70966854D01*
X150469814Y-70860666D01*
X150377712Y-70711344D01*
X150253656Y-70587288D01*
X150253653Y-70587286D01*
X150253652Y-70587285D01*
X150215847Y-70563967D01*
X150176245Y-70517326D01*
X150171622Y-70456315D01*
X150203743Y-70404239D01*
X150215847Y-70395445D01*
X150253340Y-70372319D01*
X150377319Y-70248340D01*
X150469356Y-70099124D01*
X150524506Y-69932693D01*
X150535000Y-69829987D01*
X150535000Y-69692501D01*
X150534999Y-69692500D01*
X149159000Y-69692500D01*
X149100809Y-69673593D01*
X149064845Y-69624093D01*
X149060000Y-69593500D01*
X149060000Y-68355001D01*
X149560000Y-68355001D01*
X149560000Y-69192499D01*
X149560001Y-69192500D01*
X150534998Y-69192500D01*
X150534999Y-69192499D01*
X150534999Y-69055013D01*
X150524507Y-68952312D01*
X150524504Y-68952300D01*
X150469356Y-68785875D01*
X150377319Y-68636659D01*
X150253340Y-68512680D01*
X150104124Y-68420643D01*
X149937693Y-68365493D01*
X149834987Y-68355000D01*
X149560001Y-68355000D01*
X149560000Y-68355001D01*
X149060000Y-68355001D01*
X149059999Y-68355000D01*
X148785013Y-68355000D01*
X148682312Y-68365492D01*
X148682300Y-68365495D01*
X148515875Y-68420643D01*
X148366658Y-68512681D01*
X148366655Y-68512683D01*
X148300356Y-68578982D01*
X148245839Y-68606759D01*
X148185407Y-68597187D01*
X148160352Y-68578984D01*
X148138656Y-68557288D01*
X148138653Y-68557286D01*
X148138652Y-68557285D01*
X147989336Y-68465187D01*
X147989335Y-68465186D01*
X147989334Y-68465186D01*
X147822797Y-68410001D01*
X147822794Y-68410000D01*
X147720016Y-68399500D01*
X146719983Y-68399500D01*
X146617211Y-68409999D01*
X146617199Y-68410002D01*
X146450663Y-68465187D01*
X146301347Y-68557285D01*
X146177285Y-68681347D01*
X146085187Y-68830663D01*
X146030000Y-68997205D01*
X146019500Y-69099983D01*
X146019500Y-69244191D01*
X146000593Y-69302382D01*
X145990509Y-69314188D01*
X145889502Y-69415195D01*
X145834987Y-69442972D01*
X145774555Y-69433401D01*
X145731290Y-69390136D01*
X145720500Y-69345191D01*
X145720500Y-66521458D01*
X145739407Y-66463267D01*
X145749490Y-66451460D01*
X146992015Y-65208936D01*
X146992018Y-65208931D01*
X147068438Y-65076569D01*
X147068438Y-65076567D01*
X147068440Y-65076565D01*
X147108000Y-64928925D01*
X147108000Y-64876596D01*
X147126907Y-64818405D01*
X147175860Y-64782621D01*
X147184334Y-64779814D01*
X147333656Y-64687712D01*
X147342481Y-64678886D01*
X147396996Y-64651111D01*
X147457428Y-64660682D01*
X147464455Y-64664631D01*
X147501876Y-64687712D01*
X147610666Y-64754814D01*
X147777203Y-64809999D01*
X147879991Y-64820500D01*
X148680008Y-64820499D01*
X148680016Y-64820499D01*
X148782788Y-64810000D01*
X148782788Y-64809999D01*
X148782797Y-64809999D01*
X148949334Y-64754814D01*
X149098656Y-64662712D01*
X149209998Y-64551369D01*
X149264513Y-64523594D01*
X149324945Y-64533165D01*
G37*
G04 #@! TD.AperFunction*
G04 #@! TA.AperFunction,Conductor*
G36*
X156506433Y-58000847D02*
G01*
X156521739Y-58002862D01*
X156616489Y-58015336D01*
X156641447Y-58022023D01*
X156737960Y-58062000D01*
X156760336Y-58074918D01*
X156843216Y-58138515D01*
X156861484Y-58156783D01*
X156925079Y-58239660D01*
X156938001Y-58262042D01*
X156977975Y-58358548D01*
X156984664Y-58383512D01*
X156999153Y-58493566D01*
X157000000Y-58506488D01*
X157000000Y-109493511D01*
X156999153Y-109506433D01*
X156984664Y-109616487D01*
X156977975Y-109641451D01*
X156938001Y-109737957D01*
X156925079Y-109760339D01*
X156861487Y-109843213D01*
X156843213Y-109861487D01*
X156760339Y-109925079D01*
X156737957Y-109938001D01*
X156641451Y-109977975D01*
X156616487Y-109984664D01*
X156506434Y-109999153D01*
X156493512Y-110000000D01*
X138506488Y-110000000D01*
X138493566Y-109999153D01*
X138383512Y-109984664D01*
X138358548Y-109977975D01*
X138262042Y-109938001D01*
X138239660Y-109925079D01*
X138156783Y-109861484D01*
X138138515Y-109843216D01*
X138074918Y-109760336D01*
X138062000Y-109737960D01*
X138022023Y-109641447D01*
X138015336Y-109616489D01*
X138000847Y-109506432D01*
X138000000Y-109493511D01*
X138000000Y-59999995D01*
X138644341Y-59999995D01*
X138644341Y-60000004D01*
X138664935Y-60235400D01*
X138664936Y-60235407D01*
X138664937Y-60235408D01*
X138726097Y-60463663D01*
X138825965Y-60677830D01*
X138961505Y-60871401D01*
X139128599Y-61038495D01*
X139322170Y-61174035D01*
X139335552Y-61180275D01*
X139380300Y-61222003D01*
X139391975Y-61282064D01*
X139366117Y-61337517D01*
X139335554Y-61359724D01*
X139322173Y-61365963D01*
X139128603Y-61501501D01*
X138961501Y-61668603D01*
X138825963Y-61862173D01*
X138825959Y-61862181D01*
X138726098Y-62076332D01*
X138664935Y-62304599D01*
X138644341Y-62539995D01*
X138644341Y-62540004D01*
X138664935Y-62775400D01*
X138664936Y-62775407D01*
X138664937Y-62775408D01*
X138723026Y-62992203D01*
X138726097Y-63003662D01*
X138825964Y-63217828D01*
X138945754Y-63388907D01*
X138961505Y-63411401D01*
X139128599Y-63578495D01*
X139322170Y-63714035D01*
X139335552Y-63720275D01*
X139380300Y-63762003D01*
X139391975Y-63822064D01*
X139366117Y-63877517D01*
X139335554Y-63899724D01*
X139322173Y-63905963D01*
X139128603Y-64041501D01*
X138961501Y-64208603D01*
X138825963Y-64402173D01*
X138825959Y-64402181D01*
X138726098Y-64616332D01*
X138664935Y-64844599D01*
X138644341Y-65079995D01*
X138644341Y-65080004D01*
X138664935Y-65315400D01*
X138664936Y-65315407D01*
X138664937Y-65315408D01*
X138726097Y-65543663D01*
X138825965Y-65757830D01*
X138886307Y-65844007D01*
X138914005Y-65883565D01*
X138961505Y-65951401D01*
X139128599Y-66118495D01*
X139322170Y-66254035D01*
X139335552Y-66260275D01*
X139380300Y-66302003D01*
X139391975Y-66362064D01*
X139366117Y-66417517D01*
X139335554Y-66439724D01*
X139322173Y-66445963D01*
X139128603Y-66581501D01*
X138961501Y-66748603D01*
X138825963Y-66942173D01*
X138825959Y-66942181D01*
X138726098Y-67156332D01*
X138664935Y-67384599D01*
X138644341Y-67619995D01*
X138644341Y-67620004D01*
X138664935Y-67855400D01*
X138664936Y-67855407D01*
X138664937Y-67855408D01*
X138726097Y-68083663D01*
X138825965Y-68297830D01*
X138873343Y-68365493D01*
X138943149Y-68465187D01*
X138961505Y-68491401D01*
X139128599Y-68658495D01*
X139322170Y-68794035D01*
X139335552Y-68800275D01*
X139380300Y-68842003D01*
X139391975Y-68902064D01*
X139366117Y-68957517D01*
X139335554Y-68979724D01*
X139322173Y-68985963D01*
X139128603Y-69121501D01*
X138961501Y-69288603D01*
X138825963Y-69482173D01*
X138825959Y-69482181D01*
X138726098Y-69696332D01*
X138664935Y-69924599D01*
X138644341Y-70159995D01*
X138644341Y-70160004D01*
X138664935Y-70395400D01*
X138664936Y-70395407D01*
X138664937Y-70395408D01*
X138726097Y-70623663D01*
X138766985Y-70711347D01*
X138825964Y-70837828D01*
X138958565Y-71027203D01*
X138961505Y-71031401D01*
X139128599Y-71198495D01*
X139322170Y-71334035D01*
X139335552Y-71340275D01*
X139380300Y-71382003D01*
X139391975Y-71442064D01*
X139366117Y-71497517D01*
X139335554Y-71519724D01*
X139322173Y-71525963D01*
X139128603Y-71661501D01*
X138961501Y-71828603D01*
X138825963Y-72022173D01*
X138825959Y-72022181D01*
X138726098Y-72236332D01*
X138664935Y-72464599D01*
X138644341Y-72699995D01*
X138644341Y-72700004D01*
X138664935Y-72935400D01*
X138664936Y-72935407D01*
X138664937Y-72935408D01*
X138726097Y-73163663D01*
X138825965Y-73377830D01*
X138961505Y-73571401D01*
X139128599Y-73738495D01*
X139322170Y-73874035D01*
X139335552Y-73880275D01*
X139380300Y-73922003D01*
X139391975Y-73982064D01*
X139366117Y-74037517D01*
X139335554Y-74059724D01*
X139322173Y-74065963D01*
X139128603Y-74201501D01*
X138961501Y-74368603D01*
X138825963Y-74562173D01*
X138825959Y-74562181D01*
X138726098Y-74776332D01*
X138664935Y-75004599D01*
X138644341Y-75239995D01*
X138644341Y-75240004D01*
X138664935Y-75475400D01*
X138664936Y-75475407D01*
X138664937Y-75475408D01*
X138726097Y-75703663D01*
X138825965Y-75917830D01*
X138961505Y-76111401D01*
X139128599Y-76278495D01*
X139322170Y-76414035D01*
X139335552Y-76420275D01*
X139380300Y-76462003D01*
X139391975Y-76522064D01*
X139366117Y-76577517D01*
X139335554Y-76599724D01*
X139322173Y-76605963D01*
X139128603Y-76741501D01*
X138961501Y-76908603D01*
X138825963Y-77102173D01*
X138825959Y-77102181D01*
X138726098Y-77316332D01*
X138664935Y-77544599D01*
X138644341Y-77779995D01*
X138644341Y-77780004D01*
X138664935Y-78015400D01*
X138664936Y-78015407D01*
X138664937Y-78015408D01*
X138726097Y-78243663D01*
X138825965Y-78457830D01*
X138961505Y-78651401D01*
X139128599Y-78818495D01*
X139322170Y-78954035D01*
X139331098Y-78958198D01*
X139335552Y-78960275D01*
X139380300Y-79002003D01*
X139391975Y-79062064D01*
X139366117Y-79117517D01*
X139335554Y-79139724D01*
X139322173Y-79145963D01*
X139128603Y-79281501D01*
X138961501Y-79448603D01*
X138825963Y-79642173D01*
X138825959Y-79642181D01*
X138726098Y-79856332D01*
X138664935Y-80084599D01*
X138644341Y-80319995D01*
X138644341Y-80320004D01*
X138664935Y-80555400D01*
X138664936Y-80555407D01*
X138664937Y-80555408D01*
X138726097Y-80783663D01*
X138825965Y-80997830D01*
X138961505Y-81191401D01*
X139128599Y-81358495D01*
X139322170Y-81494035D01*
X139335552Y-81500275D01*
X139380300Y-81542003D01*
X139391975Y-81602064D01*
X139366117Y-81657517D01*
X139335554Y-81679724D01*
X139322173Y-81685963D01*
X139128603Y-81821501D01*
X138961501Y-81988603D01*
X138825963Y-82182173D01*
X138825959Y-82182181D01*
X138726098Y-82396332D01*
X138664935Y-82624599D01*
X138644341Y-82859995D01*
X138644341Y-82860004D01*
X138664935Y-83095400D01*
X138664936Y-83095407D01*
X138664937Y-83095408D01*
X138726097Y-83323663D01*
X138825965Y-83537830D01*
X138961505Y-83731401D01*
X139128599Y-83898495D01*
X139322170Y-84034035D01*
X139335552Y-84040275D01*
X139380300Y-84082003D01*
X139391975Y-84142064D01*
X139366117Y-84197517D01*
X139335554Y-84219724D01*
X139322173Y-84225963D01*
X139128603Y-84361501D01*
X138961501Y-84528603D01*
X138825963Y-84722173D01*
X138825959Y-84722181D01*
X138726098Y-84936332D01*
X138664935Y-85164599D01*
X138644341Y-85399995D01*
X138644341Y-85400004D01*
X138664935Y-85635400D01*
X138664936Y-85635407D01*
X138664937Y-85635408D01*
X138726097Y-85863663D01*
X138825965Y-86077830D01*
X138961505Y-86271401D01*
X139128599Y-86438495D01*
X139322170Y-86574035D01*
X139335552Y-86580275D01*
X139380300Y-86622003D01*
X139391975Y-86682064D01*
X139366117Y-86737517D01*
X139335554Y-86759724D01*
X139322173Y-86765963D01*
X139128603Y-86901501D01*
X138961501Y-87068603D01*
X138825963Y-87262173D01*
X138825959Y-87262181D01*
X138726098Y-87476332D01*
X138664935Y-87704599D01*
X138644341Y-87939995D01*
X138644341Y-87940004D01*
X138664935Y-88175400D01*
X138664936Y-88175407D01*
X138664937Y-88175408D01*
X138726097Y-88403663D01*
X138825965Y-88617830D01*
X138961505Y-88811401D01*
X139128599Y-88978495D01*
X139322170Y-89114035D01*
X139335552Y-89120275D01*
X139380300Y-89162003D01*
X139391975Y-89222064D01*
X139366117Y-89277517D01*
X139335554Y-89299724D01*
X139322173Y-89305963D01*
X139128603Y-89441501D01*
X138961501Y-89608603D01*
X138825963Y-89802173D01*
X138825959Y-89802181D01*
X138726098Y-90016332D01*
X138664935Y-90244599D01*
X138644341Y-90479995D01*
X138644341Y-90480004D01*
X138664935Y-90715400D01*
X138664936Y-90715407D01*
X138664937Y-90715408D01*
X138726097Y-90943663D01*
X138825965Y-91157830D01*
X138961505Y-91351401D01*
X139128599Y-91518495D01*
X139322170Y-91654035D01*
X139335552Y-91660275D01*
X139380300Y-91702003D01*
X139391975Y-91762064D01*
X139366117Y-91817517D01*
X139335554Y-91839724D01*
X139322173Y-91845963D01*
X139128603Y-91981501D01*
X138961501Y-92148603D01*
X138825963Y-92342173D01*
X138825959Y-92342181D01*
X138726098Y-92556332D01*
X138664935Y-92784599D01*
X138644341Y-93019995D01*
X138644341Y-93020004D01*
X138664935Y-93255400D01*
X138726097Y-93483662D01*
X138825964Y-93697828D01*
X138937327Y-93856872D01*
X138961505Y-93891401D01*
X139128599Y-94058495D01*
X139322170Y-94194035D01*
X139335552Y-94200275D01*
X139380300Y-94242003D01*
X139391975Y-94302064D01*
X139366117Y-94357517D01*
X139335554Y-94379724D01*
X139322173Y-94385963D01*
X139128603Y-94521501D01*
X138961501Y-94688603D01*
X138825963Y-94882173D01*
X138825959Y-94882181D01*
X138726098Y-95096332D01*
X138664935Y-95324599D01*
X138644341Y-95559995D01*
X138644341Y-95560004D01*
X138664935Y-95795400D01*
X138664936Y-95795407D01*
X138664937Y-95795408D01*
X138726097Y-96023663D01*
X138825965Y-96237830D01*
X138841939Y-96260643D01*
X138955642Y-96423029D01*
X138961505Y-96431401D01*
X139128599Y-96598495D01*
X139322170Y-96734035D01*
X139335552Y-96740275D01*
X139380300Y-96782003D01*
X139391975Y-96842064D01*
X139366117Y-96897517D01*
X139335554Y-96919724D01*
X139322173Y-96925963D01*
X139128603Y-97061501D01*
X138961501Y-97228603D01*
X138825963Y-97422173D01*
X138825959Y-97422181D01*
X138726098Y-97636332D01*
X138664935Y-97864599D01*
X138644341Y-98099995D01*
X138644341Y-98100004D01*
X138664935Y-98335400D01*
X138664936Y-98335407D01*
X138664937Y-98335408D01*
X138714397Y-98519999D01*
X138726097Y-98563662D01*
X138825964Y-98777828D01*
X138927321Y-98922582D01*
X138961505Y-98971401D01*
X139128599Y-99138495D01*
X139322170Y-99274035D01*
X139335552Y-99280275D01*
X139380300Y-99322003D01*
X139391975Y-99382064D01*
X139366117Y-99437517D01*
X139335554Y-99459724D01*
X139322173Y-99465963D01*
X139128603Y-99601501D01*
X138961501Y-99768603D01*
X138825963Y-99962173D01*
X138825959Y-99962181D01*
X138726098Y-100176332D01*
X138664935Y-100404599D01*
X138644341Y-100639995D01*
X138644341Y-100640004D01*
X138664935Y-100875400D01*
X138664936Y-100875407D01*
X138664937Y-100875408D01*
X138677032Y-100920549D01*
X138726097Y-101103662D01*
X138825964Y-101317828D01*
X138951927Y-101497723D01*
X138961505Y-101511401D01*
X139128599Y-101678495D01*
X139322170Y-101814035D01*
X139335552Y-101820275D01*
X139380300Y-101862003D01*
X139391975Y-101922064D01*
X139366117Y-101977517D01*
X139335554Y-101999724D01*
X139322173Y-102005963D01*
X139128603Y-102141501D01*
X138961501Y-102308603D01*
X138825963Y-102502173D01*
X138825959Y-102502181D01*
X138726098Y-102716332D01*
X138664935Y-102944599D01*
X138644341Y-103179995D01*
X138644341Y-103180004D01*
X138664935Y-103415400D01*
X138664936Y-103415407D01*
X138664937Y-103415408D01*
X138726097Y-103643663D01*
X138825965Y-103857830D01*
X138869627Y-103920186D01*
X138934117Y-104012288D01*
X138961505Y-104051401D01*
X139128599Y-104218495D01*
X139322170Y-104354035D01*
X139335552Y-104360275D01*
X139380300Y-104402003D01*
X139391975Y-104462064D01*
X139366117Y-104517517D01*
X139335554Y-104539724D01*
X139322173Y-104545963D01*
X139128603Y-104681501D01*
X138961501Y-104848603D01*
X138825963Y-105042173D01*
X138825959Y-105042181D01*
X138726098Y-105256332D01*
X138664935Y-105484599D01*
X138644341Y-105719995D01*
X138644341Y-105720004D01*
X138664935Y-105955400D01*
X138664936Y-105955407D01*
X138664937Y-105955408D01*
X138695507Y-106069500D01*
X138726097Y-106183662D01*
X138825964Y-106397828D01*
X138928563Y-106544356D01*
X138961505Y-106591401D01*
X139116515Y-106746411D01*
X139144291Y-106800926D01*
X139134720Y-106861358D01*
X139091455Y-106904623D01*
X139057095Y-106914846D01*
X139042628Y-106916401D01*
X139042618Y-106916403D01*
X138907911Y-106966646D01*
X138907909Y-106966647D01*
X138792815Y-107052807D01*
X138792807Y-107052815D01*
X138706647Y-107167909D01*
X138706646Y-107167911D01*
X138656403Y-107302618D01*
X138656401Y-107302629D01*
X138650000Y-107362175D01*
X138650000Y-108009999D01*
X138650001Y-108010000D01*
X139566988Y-108010000D01*
X139534075Y-108067007D01*
X139500000Y-108194174D01*
X139500000Y-108325826D01*
X139534075Y-108452993D01*
X139566988Y-108510000D01*
X138650001Y-108510000D01*
X138650000Y-108510001D01*
X138650000Y-109157824D01*
X138649999Y-109157824D01*
X138656401Y-109217370D01*
X138656403Y-109217381D01*
X138706646Y-109352088D01*
X138706647Y-109352090D01*
X138792807Y-109467184D01*
X138792815Y-109467192D01*
X138907909Y-109553352D01*
X138907911Y-109553353D01*
X139042618Y-109603596D01*
X139042629Y-109603598D01*
X139102176Y-109610000D01*
X139749999Y-109610000D01*
X139750000Y-109609999D01*
X139750000Y-108693012D01*
X139807007Y-108725925D01*
X139934174Y-108760000D01*
X140065826Y-108760000D01*
X140192993Y-108725925D01*
X140250000Y-108693012D01*
X140250000Y-109609999D01*
X140250001Y-109610000D01*
X140897824Y-109610000D01*
X140957370Y-109603598D01*
X140957381Y-109603596D01*
X141092088Y-109553353D01*
X141092090Y-109553352D01*
X141207184Y-109467192D01*
X141207192Y-109467184D01*
X141293352Y-109352090D01*
X141293353Y-109352088D01*
X141343596Y-109217381D01*
X141343598Y-109217370D01*
X141350000Y-109157824D01*
X141350000Y-108510001D01*
X141349999Y-108510000D01*
X140433012Y-108510000D01*
X140465925Y-108452993D01*
X140500000Y-108325826D01*
X140500000Y-108194174D01*
X140465925Y-108067007D01*
X140433012Y-108010000D01*
X141349999Y-108010000D01*
X141350000Y-108009999D01*
X141350000Y-107362175D01*
X141343598Y-107302629D01*
X141343596Y-107302618D01*
X141293353Y-107167911D01*
X141293352Y-107167909D01*
X141207192Y-107052815D01*
X141207184Y-107052807D01*
X141092090Y-106966647D01*
X141092088Y-106966646D01*
X140957381Y-106916403D01*
X140957371Y-106916401D01*
X140942905Y-106914846D01*
X140887069Y-106889825D01*
X140856603Y-106836764D01*
X140863145Y-106775929D01*
X140883483Y-106746412D01*
X141038495Y-106591401D01*
X141174035Y-106397830D01*
X141273903Y-106183663D01*
X141335063Y-105955408D01*
X141339473Y-105905008D01*
X141355659Y-105720004D01*
X141355659Y-105719995D01*
X141335064Y-105484599D01*
X141335063Y-105484596D01*
X141335063Y-105484592D01*
X141328474Y-105460001D01*
X142182501Y-105460001D01*
X142182501Y-105909986D01*
X142192992Y-106012687D01*
X142192995Y-106012699D01*
X142248143Y-106179124D01*
X142340180Y-106328340D01*
X142464159Y-106452319D01*
X142613375Y-106544356D01*
X142779806Y-106599506D01*
X142882513Y-106609999D01*
X143094998Y-106609999D01*
X143095000Y-106609998D01*
X143095000Y-105460001D01*
X143094999Y-105460000D01*
X142182502Y-105460000D01*
X142182501Y-105460001D01*
X141328474Y-105460001D01*
X141273903Y-105256337D01*
X141174035Y-105042171D01*
X141038495Y-104848599D01*
X140871401Y-104681505D01*
X140871397Y-104681502D01*
X140871396Y-104681501D01*
X140764007Y-104606307D01*
X140677830Y-104545965D01*
X140664447Y-104539724D01*
X140632585Y-104510012D01*
X142182500Y-104510012D01*
X142182500Y-104959999D01*
X142182501Y-104960000D01*
X143094999Y-104960000D01*
X143095000Y-104959999D01*
X143095000Y-103810001D01*
X143094999Y-103810000D01*
X142882513Y-103810000D01*
X142779812Y-103820492D01*
X142779800Y-103820495D01*
X142613375Y-103875643D01*
X142464159Y-103967680D01*
X142340180Y-104091659D01*
X142248143Y-104240875D01*
X142192993Y-104407306D01*
X142182500Y-104510012D01*
X140632585Y-104510012D01*
X140619700Y-104497997D01*
X140608025Y-104437936D01*
X140633883Y-104382483D01*
X140664448Y-104360275D01*
X140677830Y-104354035D01*
X140871401Y-104218495D01*
X141038495Y-104051401D01*
X141174035Y-103857830D01*
X141273903Y-103643663D01*
X141335063Y-103415408D01*
X141336099Y-103403565D01*
X141355659Y-103180004D01*
X141355659Y-103179995D01*
X141335064Y-102944599D01*
X141335063Y-102944596D01*
X141335063Y-102944592D01*
X141273903Y-102716337D01*
X141174035Y-102502171D01*
X141038495Y-102308599D01*
X140871401Y-102141505D01*
X140871397Y-102141502D01*
X140871396Y-102141501D01*
X140764007Y-102066307D01*
X140677830Y-102005965D01*
X140664447Y-101999724D01*
X140619700Y-101957997D01*
X140608025Y-101897936D01*
X140633883Y-101842483D01*
X140664448Y-101820275D01*
X140677830Y-101814035D01*
X140871401Y-101678495D01*
X141038495Y-101511401D01*
X141174035Y-101317830D01*
X141273903Y-101103663D01*
X141335063Y-100875408D01*
X141335064Y-100875400D01*
X141355659Y-100640004D01*
X141355659Y-100639995D01*
X141335064Y-100404599D01*
X141335063Y-100404596D01*
X141335063Y-100404592D01*
X141273903Y-100176337D01*
X141200998Y-100019992D01*
X141174040Y-99962181D01*
X141174036Y-99962173D01*
X141038498Y-99768603D01*
X141038497Y-99768602D01*
X141038495Y-99768599D01*
X140871401Y-99601505D01*
X140871397Y-99601502D01*
X140871396Y-99601501D01*
X140764007Y-99526307D01*
X140677830Y-99465965D01*
X140664447Y-99459724D01*
X140619700Y-99417997D01*
X140608025Y-99357936D01*
X140633883Y-99302483D01*
X140664448Y-99280275D01*
X140677830Y-99274035D01*
X140871401Y-99138495D01*
X141038495Y-98971401D01*
X141174035Y-98777830D01*
X141273903Y-98563663D01*
X141335063Y-98335408D01*
X141341634Y-98260302D01*
X141355659Y-98100004D01*
X141355659Y-98099995D01*
X141335064Y-97864599D01*
X141335063Y-97864596D01*
X141335063Y-97864592D01*
X141273903Y-97636337D01*
X141273901Y-97636332D01*
X141174040Y-97422181D01*
X141174036Y-97422173D01*
X141038498Y-97228603D01*
X141038497Y-97228602D01*
X141038495Y-97228599D01*
X140871401Y-97061505D01*
X140871397Y-97061502D01*
X140871396Y-97061501D01*
X140712157Y-96950001D01*
X140677830Y-96925965D01*
X140664447Y-96919724D01*
X140619700Y-96877997D01*
X140608025Y-96817936D01*
X140633883Y-96762483D01*
X140664448Y-96740275D01*
X140677830Y-96734035D01*
X140871401Y-96598495D01*
X141038495Y-96431401D01*
X141174035Y-96237830D01*
X141188330Y-96207173D01*
X141230056Y-96162427D01*
X141290116Y-96150751D01*
X141345570Y-96176607D01*
X141348058Y-96179009D01*
X143099545Y-97930496D01*
X143127322Y-97985013D01*
X143117751Y-98045445D01*
X143074486Y-98088710D01*
X143029541Y-98099500D01*
X142691967Y-98099500D01*
X142585491Y-98108966D01*
X142572582Y-98110114D01*
X142572581Y-98110114D01*
X142572576Y-98110115D01*
X142376953Y-98166090D01*
X142196595Y-98260300D01*
X142038894Y-98388888D01*
X142038888Y-98388894D01*
X141910300Y-98546595D01*
X141816090Y-98726952D01*
X141760114Y-98922579D01*
X141749500Y-99041966D01*
X141749500Y-101958032D01*
X141760114Y-102077416D01*
X141760115Y-102077423D01*
X141816090Y-102273046D01*
X141816091Y-102273049D01*
X141910302Y-102453407D01*
X142038891Y-102611109D01*
X142196593Y-102739698D01*
X142376951Y-102833909D01*
X142572582Y-102889886D01*
X142691963Y-102900500D01*
X143808036Y-102900499D01*
X143927418Y-102889886D01*
X143929836Y-102889194D01*
X143930934Y-102889232D01*
X143932049Y-102889026D01*
X143932095Y-102889274D01*
X143990981Y-102891359D01*
X144039178Y-102929051D01*
X144042813Y-102934872D01*
X144069529Y-102981145D01*
X144107805Y-103047440D01*
X144107807Y-103047442D01*
X144187134Y-103135544D01*
X144212021Y-103191440D01*
X144199299Y-103251288D01*
X144183567Y-103271790D01*
X144159875Y-103295484D01*
X144159874Y-103295483D01*
X144051794Y-103403564D01*
X144051790Y-103403569D01*
X143975371Y-103535931D01*
X143975369Y-103535935D01*
X143965286Y-103573562D01*
X143965287Y-103573563D01*
X143946506Y-103643660D01*
X143946505Y-103643664D01*
X143935810Y-103683575D01*
X143935810Y-103713480D01*
X143916903Y-103771671D01*
X143867403Y-103807635D01*
X143826751Y-103811968D01*
X143807482Y-103810000D01*
X143595001Y-103810000D01*
X143595000Y-103810001D01*
X143595000Y-106609998D01*
X143595001Y-106609999D01*
X143807484Y-106609999D01*
X143832158Y-106607478D01*
X143891969Y-106620372D01*
X143932778Y-106665960D01*
X143937847Y-106680340D01*
X143942579Y-106697999D01*
X143942579Y-106698000D01*
X143965992Y-106785376D01*
X143962791Y-106846478D01*
X143924286Y-106894028D01*
X143898266Y-106901735D01*
X143890001Y-106910001D01*
X143890001Y-107826988D01*
X143832994Y-107794075D01*
X143705827Y-107760000D01*
X143574175Y-107760000D01*
X143447008Y-107794075D01*
X143390001Y-107826988D01*
X143390001Y-106910001D01*
X143390000Y-106910000D01*
X142742177Y-106910000D01*
X142682630Y-106916401D01*
X142682619Y-106916403D01*
X142547912Y-106966646D01*
X142547910Y-106966647D01*
X142432816Y-107052807D01*
X142432808Y-107052815D01*
X142346648Y-107167909D01*
X142346647Y-107167911D01*
X142296404Y-107302618D01*
X142296402Y-107302629D01*
X142290001Y-107362175D01*
X142290001Y-108009999D01*
X142290002Y-108010000D01*
X143206989Y-108010000D01*
X143174076Y-108067007D01*
X143140001Y-108194174D01*
X143140001Y-108325826D01*
X143174076Y-108452993D01*
X143206989Y-108510000D01*
X142290002Y-108510000D01*
X142290001Y-108510001D01*
X142290001Y-109157824D01*
X142290000Y-109157824D01*
X142296402Y-109217370D01*
X142296404Y-109217381D01*
X142346647Y-109352088D01*
X142346648Y-109352090D01*
X142432808Y-109467184D01*
X142432816Y-109467192D01*
X142547910Y-109553352D01*
X142547912Y-109553353D01*
X142682619Y-109603596D01*
X142682630Y-109603598D01*
X142742177Y-109610000D01*
X143390000Y-109610000D01*
X143390001Y-109609999D01*
X143390001Y-108693012D01*
X143447008Y-108725925D01*
X143574175Y-108760000D01*
X143705827Y-108760000D01*
X143832994Y-108725925D01*
X143890001Y-108693012D01*
X143890001Y-109609999D01*
X143890002Y-109610000D01*
X144537825Y-109610000D01*
X144597371Y-109603598D01*
X144597382Y-109603596D01*
X144732089Y-109553353D01*
X144732091Y-109553352D01*
X144847185Y-109467192D01*
X144847193Y-109467184D01*
X144933353Y-109352090D01*
X144933354Y-109352088D01*
X144983597Y-109217381D01*
X144983599Y-109217370D01*
X144985154Y-109202909D01*
X145010172Y-109147072D01*
X145063231Y-109116604D01*
X145124066Y-109123143D01*
X145153587Y-109143482D01*
X145308600Y-109298495D01*
X145502171Y-109434035D01*
X145716338Y-109533903D01*
X145944593Y-109595063D01*
X145944597Y-109595063D01*
X145944600Y-109595064D01*
X146179997Y-109615659D01*
X146180001Y-109615659D01*
X146180005Y-109615659D01*
X146415401Y-109595064D01*
X146415402Y-109595063D01*
X146415409Y-109595063D01*
X146643664Y-109533903D01*
X146857831Y-109434035D01*
X147051402Y-109298495D01*
X147218496Y-109131401D01*
X147354036Y-108937830D01*
X147360274Y-108924451D01*
X147402001Y-108879702D01*
X147462062Y-108868026D01*
X147517516Y-108893882D01*
X147539724Y-108924447D01*
X147545963Y-108937827D01*
X147675722Y-109123143D01*
X147681505Y-109131401D01*
X147848599Y-109298495D01*
X148042170Y-109434035D01*
X148256337Y-109533903D01*
X148484592Y-109595063D01*
X148484596Y-109595063D01*
X148484599Y-109595064D01*
X148719996Y-109615659D01*
X148720000Y-109615659D01*
X148720004Y-109615659D01*
X148955400Y-109595064D01*
X148955401Y-109595063D01*
X148955408Y-109595063D01*
X149183663Y-109533903D01*
X149397830Y-109434035D01*
X149591401Y-109298495D01*
X149745957Y-109143938D01*
X149800472Y-109116162D01*
X149860904Y-109125733D01*
X149904169Y-109168998D01*
X149914392Y-109203361D01*
X149915909Y-109217481D01*
X149915910Y-109217485D01*
X149966203Y-109352329D01*
X150052184Y-109467184D01*
X150052455Y-109467546D01*
X150052458Y-109467548D01*
X150052459Y-109467549D01*
X150167671Y-109553797D01*
X150302512Y-109604089D01*
X150302513Y-109604089D01*
X150302518Y-109604091D01*
X150362128Y-109610500D01*
X152157873Y-109610499D01*
X152217484Y-109604091D01*
X152284908Y-109578943D01*
X152352330Y-109553797D01*
X152352330Y-109553796D01*
X152352332Y-109553796D01*
X152467547Y-109467546D01*
X152553797Y-109352331D01*
X152604092Y-109217483D01*
X152610501Y-109157873D01*
X152610500Y-108610451D01*
X152629407Y-108552261D01*
X152639490Y-108540454D01*
X153480996Y-107698949D01*
X153535513Y-107671172D01*
X153595945Y-107680743D01*
X153639210Y-107724008D01*
X153650000Y-107768953D01*
X153650000Y-108009999D01*
X153650001Y-108010000D01*
X154566988Y-108010000D01*
X154534075Y-108067007D01*
X154500000Y-108194174D01*
X154500000Y-108325826D01*
X154534075Y-108452993D01*
X154566988Y-108510000D01*
X153650001Y-108510000D01*
X153650000Y-108510001D01*
X153650000Y-109157824D01*
X153649999Y-109157824D01*
X153656401Y-109217370D01*
X153656403Y-109217381D01*
X153706646Y-109352088D01*
X153706647Y-109352090D01*
X153792807Y-109467184D01*
X153792815Y-109467192D01*
X153907909Y-109553352D01*
X153907911Y-109553353D01*
X154042618Y-109603596D01*
X154042629Y-109603598D01*
X154102176Y-109610000D01*
X154749999Y-109610000D01*
X154750000Y-109609999D01*
X154750000Y-108693012D01*
X154807007Y-108725925D01*
X154934174Y-108760000D01*
X155065826Y-108760000D01*
X155192993Y-108725925D01*
X155250000Y-108693012D01*
X155250000Y-109609999D01*
X155250001Y-109610000D01*
X155897824Y-109610000D01*
X155957370Y-109603598D01*
X155957381Y-109603596D01*
X156092088Y-109553353D01*
X156092090Y-109553352D01*
X156207184Y-109467192D01*
X156207192Y-109467184D01*
X156293352Y-109352090D01*
X156293353Y-109352088D01*
X156343596Y-109217381D01*
X156343598Y-109217370D01*
X156350000Y-109157824D01*
X156350000Y-108510001D01*
X156349999Y-108510000D01*
X155433012Y-108510000D01*
X155465925Y-108452993D01*
X155500000Y-108325826D01*
X155500000Y-108194174D01*
X155465925Y-108067007D01*
X155433012Y-108010000D01*
X156349999Y-108010000D01*
X156350000Y-108009999D01*
X156350000Y-107362175D01*
X156343598Y-107302629D01*
X156343596Y-107302618D01*
X156293353Y-107167911D01*
X156293352Y-107167909D01*
X156204894Y-107049745D01*
X156185157Y-106991831D01*
X156203231Y-106933376D01*
X156204894Y-106931086D01*
X156207541Y-106927549D01*
X156207546Y-106927546D01*
X156293796Y-106812331D01*
X156344091Y-106677483D01*
X156350500Y-106617873D01*
X156350499Y-104822128D01*
X156344091Y-104762517D01*
X156327742Y-104718682D01*
X156293797Y-104627670D01*
X156232632Y-104545965D01*
X156207546Y-104512454D01*
X156207544Y-104512452D01*
X156205206Y-104509329D01*
X156185469Y-104451415D01*
X156203543Y-104392960D01*
X156205206Y-104390671D01*
X156207544Y-104387547D01*
X156207546Y-104387546D01*
X156293796Y-104272331D01*
X156344091Y-104137483D01*
X156350500Y-104077873D01*
X156350499Y-102282128D01*
X156344091Y-102222517D01*
X156313874Y-102141501D01*
X156293797Y-102087670D01*
X156232632Y-102005965D01*
X156207546Y-101972454D01*
X156207544Y-101972452D01*
X156205206Y-101969329D01*
X156185469Y-101911415D01*
X156203543Y-101852960D01*
X156205206Y-101850671D01*
X156207544Y-101847547D01*
X156207546Y-101847546D01*
X156293796Y-101732331D01*
X156312207Y-101682970D01*
X156334189Y-101624032D01*
X156344091Y-101597483D01*
X156350500Y-101537873D01*
X156350499Y-99742128D01*
X156344091Y-99682517D01*
X156344089Y-99682511D01*
X156293797Y-99547670D01*
X156207549Y-99432458D01*
X156207548Y-99432457D01*
X156207546Y-99432454D01*
X156144406Y-99385187D01*
X156092329Y-99346202D01*
X155957488Y-99295910D01*
X155957471Y-99295906D01*
X155943358Y-99294389D01*
X155887523Y-99269368D01*
X155857059Y-99216306D01*
X155863602Y-99155471D01*
X155883939Y-99125956D01*
X156038495Y-98971401D01*
X156174035Y-98777830D01*
X156273903Y-98563663D01*
X156335063Y-98335408D01*
X156341634Y-98260302D01*
X156355659Y-98100004D01*
X156355659Y-98099995D01*
X156335064Y-97864599D01*
X156335063Y-97864596D01*
X156335063Y-97864592D01*
X156273903Y-97636337D01*
X156273901Y-97636332D01*
X156174040Y-97422181D01*
X156174036Y-97422173D01*
X156038498Y-97228603D01*
X156038497Y-97228602D01*
X156038495Y-97228599D01*
X155871401Y-97061505D01*
X155871397Y-97061502D01*
X155871396Y-97061501D01*
X155712157Y-96950001D01*
X155677830Y-96925965D01*
X155664447Y-96919724D01*
X155619700Y-96877997D01*
X155608025Y-96817936D01*
X155633883Y-96762483D01*
X155664448Y-96740275D01*
X155677830Y-96734035D01*
X155871401Y-96598495D01*
X156038495Y-96431401D01*
X156174035Y-96237830D01*
X156273903Y-96023663D01*
X156335063Y-95795408D01*
X156341437Y-95722560D01*
X156355659Y-95560004D01*
X156355659Y-95559995D01*
X156335064Y-95324599D01*
X156335063Y-95324596D01*
X156335063Y-95324592D01*
X156273903Y-95096337D01*
X156174035Y-94882171D01*
X156060482Y-94720000D01*
X156038498Y-94688603D01*
X156038497Y-94688602D01*
X156038495Y-94688599D01*
X155871401Y-94521505D01*
X155871397Y-94521502D01*
X155871396Y-94521501D01*
X155749192Y-94435933D01*
X155677830Y-94385965D01*
X155664447Y-94379724D01*
X155619700Y-94337997D01*
X155608025Y-94277936D01*
X155633883Y-94222483D01*
X155664448Y-94200275D01*
X155677830Y-94194035D01*
X155871401Y-94058495D01*
X156038495Y-93891401D01*
X156174035Y-93697830D01*
X156273903Y-93483663D01*
X156335063Y-93255408D01*
X156344146Y-93151593D01*
X156355659Y-93020004D01*
X156355659Y-93019995D01*
X156335064Y-92784599D01*
X156335063Y-92784596D01*
X156335063Y-92784592D01*
X156273903Y-92556337D01*
X156248626Y-92502131D01*
X156174040Y-92342181D01*
X156174036Y-92342173D01*
X156123509Y-92270013D01*
X156038495Y-92148599D01*
X155871401Y-91981505D01*
X155871397Y-91981502D01*
X155871396Y-91981501D01*
X155744594Y-91892714D01*
X155677830Y-91845965D01*
X155664447Y-91839724D01*
X155619700Y-91797997D01*
X155608025Y-91737936D01*
X155633883Y-91682483D01*
X155664448Y-91660275D01*
X155677830Y-91654035D01*
X155871401Y-91518495D01*
X156038495Y-91351401D01*
X156174035Y-91157830D01*
X156273903Y-90943663D01*
X156335063Y-90715408D01*
X156355659Y-90480000D01*
X156335292Y-90247211D01*
X156335064Y-90244599D01*
X156335063Y-90244596D01*
X156335063Y-90244592D01*
X156273903Y-90016337D01*
X156273901Y-90016332D01*
X156174040Y-89802181D01*
X156174036Y-89802173D01*
X156172169Y-89799507D01*
X156038495Y-89608599D01*
X155871401Y-89441505D01*
X155871397Y-89441502D01*
X155871396Y-89441501D01*
X155740074Y-89349549D01*
X155677830Y-89305965D01*
X155664447Y-89299724D01*
X155619700Y-89257997D01*
X155608025Y-89197936D01*
X155633883Y-89142483D01*
X155664448Y-89120275D01*
X155677830Y-89114035D01*
X155871401Y-88978495D01*
X156038495Y-88811401D01*
X156174035Y-88617830D01*
X156273903Y-88403663D01*
X156335063Y-88175408D01*
X156339714Y-88122249D01*
X156355659Y-87940004D01*
X156355659Y-87939995D01*
X156335064Y-87704599D01*
X156335063Y-87704596D01*
X156335063Y-87704592D01*
X156273903Y-87476337D01*
X156182590Y-87280517D01*
X156174040Y-87262181D01*
X156174036Y-87262173D01*
X156038498Y-87068603D01*
X156038497Y-87068602D01*
X156038495Y-87068599D01*
X155871401Y-86901505D01*
X155871397Y-86901502D01*
X155871396Y-86901501D01*
X155726878Y-86800309D01*
X155677830Y-86765965D01*
X155664447Y-86759724D01*
X155619700Y-86717997D01*
X155608025Y-86657936D01*
X155633883Y-86602483D01*
X155664448Y-86580275D01*
X155677830Y-86574035D01*
X155871401Y-86438495D01*
X156038495Y-86271401D01*
X156174035Y-86077830D01*
X156273903Y-85863663D01*
X156335063Y-85635408D01*
X156355659Y-85400000D01*
X156335063Y-85164592D01*
X156273903Y-84936337D01*
X156191433Y-84759481D01*
X156174040Y-84722181D01*
X156174036Y-84722173D01*
X156038498Y-84528603D01*
X156038497Y-84528602D01*
X156038495Y-84528599D01*
X155871401Y-84361505D01*
X155871397Y-84361502D01*
X155871396Y-84361501D01*
X155686730Y-84232197D01*
X155677830Y-84225965D01*
X155664447Y-84219724D01*
X155619700Y-84177997D01*
X155608025Y-84117936D01*
X155633883Y-84062483D01*
X155664448Y-84040275D01*
X155677830Y-84034035D01*
X155871401Y-83898495D01*
X156038495Y-83731401D01*
X156174035Y-83537830D01*
X156273903Y-83323663D01*
X156335063Y-83095408D01*
X156335064Y-83095400D01*
X156355659Y-82860004D01*
X156355659Y-82859995D01*
X156335064Y-82624599D01*
X156335063Y-82624596D01*
X156335063Y-82624592D01*
X156273903Y-82396337D01*
X156234708Y-82312284D01*
X156174040Y-82182181D01*
X156174036Y-82182173D01*
X156165066Y-82169363D01*
X156038495Y-81988599D01*
X155871401Y-81821505D01*
X155871397Y-81821502D01*
X155871396Y-81821501D01*
X155764007Y-81746307D01*
X155677830Y-81685965D01*
X155664447Y-81679724D01*
X155619700Y-81637997D01*
X155608025Y-81577936D01*
X155633883Y-81522483D01*
X155664448Y-81500275D01*
X155677830Y-81494035D01*
X155871401Y-81358495D01*
X156038495Y-81191401D01*
X156174035Y-80997830D01*
X156273903Y-80783663D01*
X156335063Y-80555408D01*
X156342891Y-80465935D01*
X156355659Y-80320004D01*
X156355659Y-80319995D01*
X156335064Y-80084599D01*
X156335063Y-80084596D01*
X156335063Y-80084592D01*
X156273903Y-79856337D01*
X156174035Y-79642171D01*
X156038495Y-79448599D01*
X155871401Y-79281505D01*
X155871397Y-79281502D01*
X155871396Y-79281501D01*
X155764007Y-79206307D01*
X155677830Y-79145965D01*
X155664447Y-79139724D01*
X155619700Y-79097997D01*
X155608025Y-79037936D01*
X155633883Y-78982483D01*
X155664448Y-78960275D01*
X155668902Y-78958198D01*
X155677830Y-78954035D01*
X155871401Y-78818495D01*
X156038495Y-78651401D01*
X156174035Y-78457830D01*
X156273903Y-78243663D01*
X156335063Y-78015408D01*
X156355659Y-77780000D01*
X156355393Y-77776965D01*
X156335064Y-77544599D01*
X156335063Y-77544596D01*
X156335063Y-77544592D01*
X156273903Y-77316337D01*
X156273901Y-77316332D01*
X156174040Y-77102181D01*
X156174036Y-77102173D01*
X156164744Y-77088903D01*
X156052121Y-76928059D01*
X156038498Y-76908603D01*
X156038497Y-76908602D01*
X156038495Y-76908599D01*
X155871401Y-76741505D01*
X155871397Y-76741502D01*
X155871396Y-76741501D01*
X155764007Y-76666307D01*
X155677830Y-76605965D01*
X155664447Y-76599724D01*
X155619700Y-76557997D01*
X155608025Y-76497936D01*
X155633883Y-76442483D01*
X155664448Y-76420275D01*
X155677830Y-76414035D01*
X155871401Y-76278495D01*
X156038495Y-76111401D01*
X156174035Y-75917830D01*
X156273903Y-75703663D01*
X156335063Y-75475408D01*
X156355659Y-75240000D01*
X156349222Y-75166430D01*
X156335064Y-75004599D01*
X156335063Y-75004596D01*
X156335063Y-75004592D01*
X156273903Y-74776337D01*
X156273901Y-74776332D01*
X156174040Y-74562181D01*
X156174036Y-74562173D01*
X156038498Y-74368603D01*
X156038497Y-74368602D01*
X156038495Y-74368599D01*
X155871401Y-74201505D01*
X155871397Y-74201502D01*
X155871396Y-74201501D01*
X155764007Y-74126307D01*
X155677830Y-74065965D01*
X155664447Y-74059724D01*
X155619700Y-74017997D01*
X155608025Y-73957936D01*
X155633883Y-73902483D01*
X155664448Y-73880275D01*
X155677830Y-73874035D01*
X155871401Y-73738495D01*
X156038495Y-73571401D01*
X156174035Y-73377830D01*
X156273903Y-73163663D01*
X156335063Y-72935408D01*
X156355659Y-72700000D01*
X156349045Y-72624405D01*
X156335064Y-72464599D01*
X156335063Y-72464596D01*
X156335063Y-72464592D01*
X156273903Y-72236337D01*
X156174035Y-72022171D01*
X156083523Y-71892906D01*
X156038498Y-71828603D01*
X156038497Y-71828602D01*
X156038495Y-71828599D01*
X155871401Y-71661505D01*
X155871397Y-71661502D01*
X155871396Y-71661501D01*
X155764007Y-71586307D01*
X155677830Y-71525965D01*
X155664447Y-71519724D01*
X155619700Y-71477997D01*
X155608025Y-71417936D01*
X155633883Y-71362483D01*
X155664448Y-71340275D01*
X155677830Y-71334035D01*
X155871401Y-71198495D01*
X156038495Y-71031401D01*
X156174035Y-70837830D01*
X156273903Y-70623663D01*
X156335063Y-70395408D01*
X156347930Y-70248340D01*
X156355659Y-70160004D01*
X156355659Y-70159995D01*
X156335064Y-69924599D01*
X156335063Y-69924596D01*
X156335063Y-69924592D01*
X156273903Y-69696337D01*
X156273901Y-69696332D01*
X156174040Y-69482181D01*
X156174036Y-69482173D01*
X156146587Y-69442972D01*
X156078121Y-69345191D01*
X156038498Y-69288603D01*
X156038497Y-69288602D01*
X156038495Y-69288599D01*
X155871401Y-69121505D01*
X155871397Y-69121502D01*
X155871396Y-69121501D01*
X155693882Y-68997205D01*
X155677830Y-68985965D01*
X155664447Y-68979724D01*
X155619700Y-68937997D01*
X155608025Y-68877936D01*
X155633883Y-68822483D01*
X155664448Y-68800275D01*
X155677830Y-68794035D01*
X155871401Y-68658495D01*
X156038495Y-68491401D01*
X156174035Y-68297830D01*
X156273903Y-68083663D01*
X156335063Y-67855408D01*
X156355659Y-67620000D01*
X156335063Y-67384592D01*
X156273903Y-67156337D01*
X156174035Y-66942171D01*
X156038495Y-66748599D01*
X155871401Y-66581505D01*
X155871397Y-66581502D01*
X155871396Y-66581501D01*
X155727081Y-66480451D01*
X155677830Y-66445965D01*
X155664447Y-66439724D01*
X155619700Y-66397997D01*
X155608025Y-66337936D01*
X155633883Y-66282483D01*
X155664448Y-66260275D01*
X155677830Y-66254035D01*
X155871401Y-66118495D01*
X156038495Y-65951401D01*
X156174035Y-65757830D01*
X156273903Y-65543663D01*
X156335063Y-65315408D01*
X156335064Y-65315400D01*
X156355659Y-65080004D01*
X156355659Y-65079995D01*
X156335064Y-64844599D01*
X156335063Y-64844596D01*
X156335063Y-64844592D01*
X156273903Y-64616337D01*
X156271586Y-64611368D01*
X156174040Y-64402181D01*
X156174036Y-64402173D01*
X156038498Y-64208603D01*
X156038497Y-64208602D01*
X156038495Y-64208599D01*
X155871401Y-64041505D01*
X155871397Y-64041502D01*
X155871396Y-64041501D01*
X155764007Y-63966307D01*
X155677830Y-63905965D01*
X155664447Y-63899724D01*
X155619700Y-63857997D01*
X155608025Y-63797936D01*
X155633883Y-63742483D01*
X155664448Y-63720275D01*
X155677830Y-63714035D01*
X155871401Y-63578495D01*
X156038495Y-63411401D01*
X156174035Y-63217830D01*
X156273903Y-63003663D01*
X156335063Y-62775408D01*
X156336958Y-62753754D01*
X156355659Y-62540004D01*
X156355659Y-62539995D01*
X156335064Y-62304599D01*
X156335063Y-62304596D01*
X156335063Y-62304592D01*
X156273903Y-62076337D01*
X156174035Y-61862171D01*
X156038495Y-61668599D01*
X155871401Y-61501505D01*
X155871397Y-61501502D01*
X155871396Y-61501501D01*
X155726437Y-61400000D01*
X155677830Y-61365965D01*
X155664447Y-61359724D01*
X155619700Y-61317997D01*
X155608025Y-61257936D01*
X155633883Y-61202483D01*
X155664448Y-61180275D01*
X155677830Y-61174035D01*
X155871401Y-61038495D01*
X156038495Y-60871401D01*
X156174035Y-60677830D01*
X156273903Y-60463663D01*
X156335063Y-60235408D01*
X156351784Y-60044291D01*
X156355659Y-60000004D01*
X156355659Y-59999995D01*
X156335064Y-59764599D01*
X156335063Y-59764596D01*
X156335063Y-59764592D01*
X156273903Y-59536337D01*
X156174035Y-59322171D01*
X156038495Y-59128599D01*
X155871401Y-58961505D01*
X155871397Y-58961502D01*
X155871396Y-58961501D01*
X155764007Y-58886307D01*
X155677830Y-58825965D01*
X155463663Y-58726097D01*
X155235408Y-58664937D01*
X155235407Y-58664936D01*
X155235400Y-58664935D01*
X155000004Y-58644341D01*
X154999996Y-58644341D01*
X154764599Y-58664935D01*
X154536332Y-58726098D01*
X154322181Y-58825959D01*
X154322173Y-58825963D01*
X154128603Y-58961501D01*
X153961501Y-59128603D01*
X153825963Y-59322173D01*
X153825959Y-59322181D01*
X153726098Y-59536332D01*
X153664935Y-59764599D01*
X153644341Y-59999995D01*
X153644341Y-60000004D01*
X153664935Y-60235400D01*
X153664936Y-60235407D01*
X153664937Y-60235408D01*
X153726097Y-60463663D01*
X153825965Y-60677830D01*
X153961505Y-60871401D01*
X154128599Y-61038495D01*
X154322170Y-61174035D01*
X154335552Y-61180275D01*
X154380300Y-61222003D01*
X154391975Y-61282064D01*
X154366117Y-61337517D01*
X154335554Y-61359724D01*
X154322173Y-61365963D01*
X154128603Y-61501501D01*
X153961501Y-61668603D01*
X153825963Y-61862173D01*
X153825959Y-61862181D01*
X153726098Y-62076332D01*
X153664935Y-62304599D01*
X153644341Y-62539995D01*
X153644341Y-62540004D01*
X153664935Y-62775400D01*
X153664936Y-62775407D01*
X153664937Y-62775408D01*
X153723026Y-62992203D01*
X153726097Y-63003662D01*
X153825964Y-63217828D01*
X153945754Y-63388907D01*
X153961505Y-63411401D01*
X154128599Y-63578495D01*
X154322170Y-63714035D01*
X154335552Y-63720275D01*
X154380300Y-63762003D01*
X154391975Y-63822064D01*
X154366117Y-63877517D01*
X154335554Y-63899724D01*
X154322173Y-63905963D01*
X154128603Y-64041501D01*
X153961501Y-64208603D01*
X153825963Y-64402173D01*
X153825959Y-64402181D01*
X153726098Y-64616332D01*
X153664935Y-64844599D01*
X153644341Y-65079995D01*
X153644341Y-65080004D01*
X153664935Y-65315400D01*
X153664936Y-65315407D01*
X153664937Y-65315408D01*
X153726097Y-65543663D01*
X153825965Y-65757830D01*
X153886307Y-65844007D01*
X153914005Y-65883565D01*
X153961505Y-65951401D01*
X154128599Y-66118495D01*
X154322170Y-66254035D01*
X154335552Y-66260275D01*
X154380300Y-66302003D01*
X154391975Y-66362064D01*
X154366117Y-66417517D01*
X154335554Y-66439724D01*
X154322173Y-66445963D01*
X154128603Y-66581501D01*
X153961501Y-66748603D01*
X153825963Y-66942173D01*
X153825959Y-66942181D01*
X153726098Y-67156332D01*
X153664935Y-67384599D01*
X153644341Y-67619995D01*
X153644341Y-67620004D01*
X153664935Y-67855401D01*
X153709039Y-68020005D01*
X153705836Y-68081106D01*
X153683416Y-68115630D01*
X153013565Y-68785483D01*
X152905484Y-68893564D01*
X152829059Y-69025935D01*
X152829060Y-69025936D01*
X152793272Y-69159500D01*
X152789500Y-69173576D01*
X152789500Y-69173577D01*
X152789500Y-73178541D01*
X152770593Y-73236732D01*
X152760504Y-73248545D01*
X151718545Y-74290504D01*
X151664028Y-74318281D01*
X151648541Y-74319500D01*
X149504809Y-74319500D01*
X149446618Y-74300593D01*
X149410654Y-74251093D01*
X149410654Y-74189907D01*
X149434805Y-74150496D01*
X150769695Y-72815606D01*
X151120709Y-72464592D01*
X152224695Y-71360606D01*
X152263210Y-71302964D01*
X152298620Y-71249969D01*
X152327589Y-71180031D01*
X152349541Y-71127036D01*
X152375500Y-70996531D01*
X152375500Y-70863469D01*
X152375500Y-62893469D01*
X152349541Y-62762964D01*
X152298620Y-62640031D01*
X152298618Y-62640029D01*
X152298616Y-62640023D01*
X152224698Y-62529398D01*
X152224697Y-62529397D01*
X152224695Y-62529394D01*
X151019495Y-61324194D01*
X150991718Y-61269677D01*
X150990499Y-61254190D01*
X150990499Y-60002133D01*
X150990499Y-60002128D01*
X150984091Y-59942517D01*
X150953876Y-59861505D01*
X150933797Y-59807670D01*
X150847549Y-59692458D01*
X150847548Y-59692457D01*
X150847546Y-59692454D01*
X150847541Y-59692450D01*
X150732329Y-59606202D01*
X150597488Y-59555910D01*
X150597483Y-59555909D01*
X150597481Y-59555908D01*
X150597477Y-59555908D01*
X150566249Y-59552550D01*
X150537873Y-59549500D01*
X150537870Y-59549500D01*
X148742133Y-59549500D01*
X148742129Y-59549500D01*
X148742128Y-59549501D01*
X148737486Y-59550000D01*
X148682519Y-59555908D01*
X148682514Y-59555909D01*
X148547670Y-59606202D01*
X148432458Y-59692450D01*
X148432450Y-59692458D01*
X148346202Y-59807670D01*
X148295910Y-59942511D01*
X148295908Y-59942521D01*
X148294391Y-59956637D01*
X148269371Y-60012473D01*
X148216311Y-60042939D01*
X148155476Y-60036399D01*
X148125957Y-60016060D01*
X147971402Y-59861505D01*
X147971398Y-59861502D01*
X147971397Y-59861501D01*
X147832996Y-59764592D01*
X147777831Y-59725965D01*
X147563664Y-59626097D01*
X147335409Y-59564937D01*
X147335408Y-59564936D01*
X147335401Y-59564935D01*
X147100005Y-59544341D01*
X147099997Y-59544341D01*
X146864600Y-59564935D01*
X146636333Y-59626098D01*
X146422182Y-59725959D01*
X146422174Y-59725963D01*
X146228603Y-59861502D01*
X146228599Y-59861505D01*
X146073590Y-60016514D01*
X146019074Y-60044291D01*
X145958642Y-60034720D01*
X145915377Y-59991455D01*
X145905154Y-59957090D01*
X145903599Y-59942630D01*
X145903597Y-59942618D01*
X145853354Y-59807911D01*
X145853353Y-59807909D01*
X145767193Y-59692815D01*
X145767185Y-59692807D01*
X145652091Y-59606647D01*
X145652089Y-59606646D01*
X145517382Y-59556403D01*
X145517371Y-59556401D01*
X145457825Y-59550000D01*
X144810002Y-59550000D01*
X144810001Y-59550001D01*
X144810001Y-60466988D01*
X144752994Y-60434075D01*
X144625827Y-60400000D01*
X144494175Y-60400000D01*
X144367008Y-60434075D01*
X144310001Y-60466988D01*
X144310001Y-59550001D01*
X144310000Y-59550000D01*
X143662177Y-59550000D01*
X143602630Y-59556401D01*
X143602619Y-59556403D01*
X143467912Y-59606646D01*
X143467910Y-59606647D01*
X143352816Y-59692807D01*
X143352808Y-59692815D01*
X143266648Y-59807909D01*
X143266647Y-59807911D01*
X143216404Y-59942618D01*
X143216402Y-59942629D01*
X143210001Y-60002175D01*
X143210001Y-60649999D01*
X143210002Y-60650000D01*
X144126989Y-60650000D01*
X144094076Y-60707007D01*
X144060001Y-60834174D01*
X144060001Y-60965826D01*
X144094076Y-61092993D01*
X144126989Y-61150000D01*
X143210002Y-61150000D01*
X143210001Y-61150001D01*
X143210001Y-61797824D01*
X143210000Y-61797824D01*
X143216402Y-61857370D01*
X143216404Y-61857381D01*
X143266647Y-61992088D01*
X143266648Y-61992090D01*
X143352808Y-62107184D01*
X143352816Y-62107192D01*
X143467910Y-62193352D01*
X143467912Y-62193353D01*
X143602619Y-62243596D01*
X143602630Y-62243598D01*
X143662177Y-62250000D01*
X143818055Y-62250000D01*
X143876246Y-62268907D01*
X143912210Y-62318407D01*
X143912210Y-62379593D01*
X143876246Y-62429093D01*
X143849195Y-62442975D01*
X143795875Y-62460643D01*
X143646659Y-62552680D01*
X143522680Y-62676659D01*
X143430643Y-62825875D01*
X143375493Y-62992306D01*
X143365000Y-63095012D01*
X143365000Y-63369999D01*
X143365001Y-63370000D01*
X144603500Y-63370000D01*
X144661691Y-63388907D01*
X144697655Y-63438407D01*
X144702500Y-63469000D01*
X144702500Y-64844998D01*
X144702501Y-64844999D01*
X144839986Y-64844999D01*
X144942687Y-64834507D01*
X144942699Y-64834504D01*
X145109124Y-64779356D01*
X145258340Y-64687319D01*
X145382319Y-64563340D01*
X145405445Y-64525847D01*
X145452085Y-64486246D01*
X145513096Y-64481622D01*
X145565172Y-64513742D01*
X145573967Y-64525847D01*
X145597285Y-64563652D01*
X145597286Y-64563653D01*
X145597288Y-64563656D01*
X145721344Y-64687712D01*
X145721346Y-64687713D01*
X145725422Y-64691789D01*
X145723606Y-64693604D01*
X145751756Y-64735849D01*
X145749276Y-64796984D01*
X145726443Y-64832603D01*
X144783565Y-65775483D01*
X144675484Y-65883564D01*
X144675480Y-65883569D01*
X144599061Y-66015930D01*
X144599060Y-66015935D01*
X144559500Y-66163576D01*
X144559500Y-74886424D01*
X144591163Y-75004592D01*
X144599061Y-75034069D01*
X144675480Y-75166430D01*
X144675485Y-75166436D01*
X145160504Y-75651455D01*
X145188281Y-75705972D01*
X145189500Y-75721459D01*
X145189500Y-77824658D01*
X145170593Y-77882849D01*
X145121093Y-77918813D01*
X145069917Y-77921495D01*
X145027101Y-77912394D01*
X144919391Y-77889500D01*
X144740609Y-77889500D01*
X144629099Y-77913202D01*
X144565736Y-77926670D01*
X144565730Y-77926672D01*
X144402414Y-77999384D01*
X144402411Y-77999386D01*
X144402408Y-77999387D01*
X144402408Y-77999388D01*
X144370425Y-78022624D01*
X144257765Y-78104477D01*
X144257765Y-78104478D01*
X144138143Y-78237332D01*
X144138139Y-78237338D01*
X144048754Y-78392155D01*
X144048748Y-78392169D01*
X143993504Y-78562191D01*
X143974815Y-78740000D01*
X143989303Y-78877846D01*
X143976581Y-78937694D01*
X143960849Y-78958198D01*
X142693565Y-80225484D01*
X142693564Y-80225483D01*
X142585484Y-80333564D01*
X142585480Y-80333569D01*
X142509061Y-80465931D01*
X142509059Y-80465935D01*
X142498207Y-80506433D01*
X142498208Y-80506434D01*
X142498208Y-80506435D01*
X142473004Y-80600500D01*
X142469500Y-80613576D01*
X142469500Y-80613577D01*
X142469500Y-84486765D01*
X142450593Y-84544956D01*
X142401093Y-84580920D01*
X142339907Y-84580920D01*
X142330234Y-84577206D01*
X142194273Y-84516673D01*
X142194268Y-84516671D01*
X142194267Y-84516671D01*
X142194264Y-84516670D01*
X142194263Y-84516670D01*
X142161001Y-84509600D01*
X142019391Y-84479500D01*
X141840609Y-84479500D01*
X141729099Y-84503202D01*
X141665736Y-84516670D01*
X141665730Y-84516672D01*
X141502414Y-84589384D01*
X141502411Y-84589386D01*
X141357767Y-84694476D01*
X141326780Y-84728890D01*
X141273791Y-84759481D01*
X141212941Y-84753084D01*
X141172114Y-84719428D01*
X141038498Y-84528603D01*
X141038497Y-84528602D01*
X141038495Y-84528599D01*
X140871401Y-84361505D01*
X140871397Y-84361502D01*
X140871396Y-84361501D01*
X140686730Y-84232197D01*
X140677830Y-84225965D01*
X140664447Y-84219724D01*
X140619700Y-84177997D01*
X140608025Y-84117936D01*
X140633883Y-84062483D01*
X140664448Y-84040275D01*
X140677830Y-84034035D01*
X140871401Y-83898495D01*
X141038495Y-83731401D01*
X141174035Y-83537830D01*
X141273903Y-83323663D01*
X141335063Y-83095408D01*
X141335064Y-83095400D01*
X141355659Y-82860004D01*
X141355659Y-82859995D01*
X141335064Y-82624599D01*
X141335063Y-82624596D01*
X141335063Y-82624592D01*
X141273903Y-82396337D01*
X141234708Y-82312284D01*
X141174040Y-82182181D01*
X141174036Y-82182173D01*
X141165066Y-82169363D01*
X141038495Y-81988599D01*
X140871401Y-81821505D01*
X140871397Y-81821502D01*
X140871396Y-81821501D01*
X140764007Y-81746307D01*
X140677830Y-81685965D01*
X140664447Y-81679724D01*
X140619700Y-81637997D01*
X140608025Y-81577936D01*
X140633883Y-81522483D01*
X140664448Y-81500275D01*
X140677830Y-81494035D01*
X140871401Y-81358495D01*
X141038495Y-81191401D01*
X141174035Y-80997830D01*
X141273903Y-80783663D01*
X141335063Y-80555408D01*
X141342891Y-80465935D01*
X141355659Y-80320004D01*
X141355659Y-80319995D01*
X141335064Y-80084599D01*
X141335063Y-80084596D01*
X141335063Y-80084592D01*
X141273903Y-79856337D01*
X141174035Y-79642171D01*
X141038495Y-79448599D01*
X140871401Y-79281505D01*
X140871397Y-79281502D01*
X140871396Y-79281501D01*
X140764007Y-79206307D01*
X140677830Y-79145965D01*
X140664447Y-79139724D01*
X140619700Y-79097997D01*
X140608025Y-79037936D01*
X140633883Y-78982483D01*
X140664448Y-78960275D01*
X140668902Y-78958198D01*
X140677830Y-78954035D01*
X140871401Y-78818495D01*
X141038495Y-78651401D01*
X141174035Y-78457830D01*
X141273903Y-78243663D01*
X141335063Y-78015408D01*
X141355659Y-77780000D01*
X141355393Y-77776965D01*
X141335064Y-77544599D01*
X141335063Y-77544596D01*
X141335063Y-77544592D01*
X141273903Y-77316337D01*
X141273901Y-77316332D01*
X141174040Y-77102181D01*
X141174036Y-77102173D01*
X141164744Y-77088903D01*
X141052121Y-76928059D01*
X141038498Y-76908603D01*
X141038497Y-76908602D01*
X141038495Y-76908599D01*
X140871401Y-76741505D01*
X140871397Y-76741502D01*
X140871396Y-76741501D01*
X140764007Y-76666307D01*
X140677830Y-76605965D01*
X140664447Y-76599724D01*
X140619700Y-76557997D01*
X140608025Y-76497936D01*
X140633883Y-76442483D01*
X140664448Y-76420275D01*
X140677830Y-76414035D01*
X140871401Y-76278495D01*
X141038495Y-76111401D01*
X141174035Y-75917830D01*
X141273903Y-75703663D01*
X141335063Y-75475408D01*
X141355659Y-75240000D01*
X141349222Y-75166430D01*
X141335064Y-75004599D01*
X141335063Y-75004596D01*
X141335063Y-75004592D01*
X141273903Y-74776337D01*
X141273901Y-74776332D01*
X141174040Y-74562181D01*
X141174036Y-74562173D01*
X141038498Y-74368603D01*
X141038497Y-74368602D01*
X141038495Y-74368599D01*
X140871401Y-74201505D01*
X140871397Y-74201502D01*
X140871396Y-74201501D01*
X140764007Y-74126307D01*
X140677830Y-74065965D01*
X140664447Y-74059724D01*
X140619700Y-74017997D01*
X140608025Y-73957936D01*
X140633883Y-73902483D01*
X140664448Y-73880275D01*
X140677830Y-73874035D01*
X140871401Y-73738495D01*
X141038495Y-73571401D01*
X141174035Y-73377830D01*
X141273903Y-73163663D01*
X141335063Y-72935408D01*
X141355659Y-72700000D01*
X141349045Y-72624405D01*
X141335064Y-72464599D01*
X141335063Y-72464596D01*
X141335063Y-72464592D01*
X141273903Y-72236337D01*
X141174035Y-72022171D01*
X141083523Y-71892906D01*
X141038498Y-71828603D01*
X141038497Y-71828602D01*
X141038495Y-71828599D01*
X140871401Y-71661505D01*
X140871397Y-71661502D01*
X140871396Y-71661501D01*
X140764007Y-71586307D01*
X140677830Y-71525965D01*
X140664447Y-71519724D01*
X140619700Y-71477997D01*
X140608025Y-71417936D01*
X140633883Y-71362483D01*
X140664448Y-71340275D01*
X140677830Y-71334035D01*
X140871401Y-71198495D01*
X141038495Y-71031401D01*
X141174035Y-70837830D01*
X141273903Y-70623663D01*
X141335063Y-70395408D01*
X141347930Y-70248340D01*
X141355659Y-70160004D01*
X141355659Y-70159995D01*
X141335064Y-69924599D01*
X141335063Y-69924596D01*
X141335063Y-69924592D01*
X141273903Y-69696337D01*
X141273901Y-69696332D01*
X141174040Y-69482181D01*
X141174036Y-69482173D01*
X141146587Y-69442972D01*
X141078121Y-69345191D01*
X141038498Y-69288603D01*
X141038497Y-69288602D01*
X141038495Y-69288599D01*
X140871401Y-69121505D01*
X140871397Y-69121502D01*
X140871396Y-69121501D01*
X140693882Y-68997205D01*
X140677830Y-68985965D01*
X140664447Y-68979724D01*
X140619700Y-68937997D01*
X140608025Y-68877936D01*
X140633883Y-68822483D01*
X140664448Y-68800275D01*
X140677830Y-68794035D01*
X140871401Y-68658495D01*
X141038495Y-68491401D01*
X141174035Y-68297830D01*
X141273903Y-68083663D01*
X141335063Y-67855408D01*
X141355659Y-67620000D01*
X141335063Y-67384592D01*
X141273903Y-67156337D01*
X141174035Y-66942171D01*
X141038495Y-66748599D01*
X140871401Y-66581505D01*
X140871397Y-66581502D01*
X140871396Y-66581501D01*
X140727081Y-66480451D01*
X140677830Y-66445965D01*
X140664447Y-66439724D01*
X140619700Y-66397997D01*
X140608025Y-66337936D01*
X140633883Y-66282483D01*
X140664448Y-66260275D01*
X140677830Y-66254035D01*
X140871401Y-66118495D01*
X141038495Y-65951401D01*
X141174035Y-65757830D01*
X141273903Y-65543663D01*
X141335063Y-65315408D01*
X141335064Y-65315400D01*
X141355659Y-65080004D01*
X141355659Y-65079995D01*
X141335064Y-64844599D01*
X141335063Y-64844596D01*
X141335063Y-64844592D01*
X141273903Y-64616337D01*
X141271586Y-64611368D01*
X141174040Y-64402181D01*
X141174036Y-64402173D01*
X141038498Y-64208603D01*
X141038497Y-64208602D01*
X141038495Y-64208599D01*
X140871401Y-64041505D01*
X140871397Y-64041502D01*
X140871396Y-64041501D01*
X140764007Y-63966307D01*
X140677830Y-63905965D01*
X140664447Y-63899724D01*
X140632573Y-63870001D01*
X143365001Y-63870001D01*
X143365001Y-64144986D01*
X143375492Y-64247687D01*
X143375495Y-64247699D01*
X143430643Y-64414124D01*
X143522680Y-64563340D01*
X143646659Y-64687319D01*
X143795875Y-64779356D01*
X143962306Y-64834506D01*
X144065013Y-64844999D01*
X144202500Y-64844999D01*
X144202500Y-63870001D01*
X144202499Y-63870000D01*
X143365002Y-63870000D01*
X143365001Y-63870001D01*
X140632573Y-63870001D01*
X140619700Y-63857997D01*
X140608025Y-63797936D01*
X140633883Y-63742483D01*
X140664448Y-63720275D01*
X140677830Y-63714035D01*
X140871401Y-63578495D01*
X141038495Y-63411401D01*
X141174035Y-63217830D01*
X141273903Y-63003663D01*
X141335063Y-62775408D01*
X141336958Y-62753754D01*
X141355659Y-62540004D01*
X141355659Y-62539995D01*
X141335064Y-62304599D01*
X141335063Y-62304596D01*
X141335063Y-62304592D01*
X141273903Y-62076337D01*
X141174035Y-61862171D01*
X141038495Y-61668599D01*
X140871401Y-61501505D01*
X140871397Y-61501502D01*
X140871396Y-61501501D01*
X140726437Y-61400000D01*
X140677830Y-61365965D01*
X140664447Y-61359724D01*
X140619700Y-61317997D01*
X140608025Y-61257936D01*
X140633883Y-61202483D01*
X140664448Y-61180275D01*
X140677830Y-61174035D01*
X140871401Y-61038495D01*
X141038495Y-60871401D01*
X141174035Y-60677830D01*
X141273903Y-60463663D01*
X141335063Y-60235408D01*
X141351784Y-60044291D01*
X141355659Y-60000004D01*
X141355659Y-59999995D01*
X141335064Y-59764599D01*
X141335063Y-59764596D01*
X141335063Y-59764592D01*
X141273903Y-59536337D01*
X141174035Y-59322171D01*
X141038495Y-59128599D01*
X140871401Y-58961505D01*
X140871397Y-58961502D01*
X140871396Y-58961501D01*
X140764007Y-58886307D01*
X140677830Y-58825965D01*
X140463663Y-58726097D01*
X140235408Y-58664937D01*
X140235407Y-58664936D01*
X140235400Y-58664935D01*
X140000004Y-58644341D01*
X139999996Y-58644341D01*
X139764599Y-58664935D01*
X139536332Y-58726098D01*
X139322181Y-58825959D01*
X139322173Y-58825963D01*
X139128603Y-58961501D01*
X138961501Y-59128603D01*
X138825963Y-59322173D01*
X138825959Y-59322181D01*
X138726098Y-59536332D01*
X138664935Y-59764599D01*
X138644341Y-59999995D01*
X138000000Y-59999995D01*
X138000000Y-58506488D01*
X138000847Y-58493567D01*
X138002511Y-58480923D01*
X138015336Y-58383508D01*
X138022022Y-58358554D01*
X138062001Y-58262035D01*
X138074916Y-58239666D01*
X138138518Y-58156779D01*
X138156779Y-58138518D01*
X138239666Y-58074916D01*
X138262035Y-58062001D01*
X138358554Y-58022022D01*
X138383508Y-58015336D01*
X138480923Y-58002511D01*
X138493567Y-58000847D01*
X138506488Y-58000000D01*
X156493512Y-58000000D01*
X156506433Y-58000847D01*
G37*
G04 #@! TD.AperFunction*
M02*
