G04 #@! TF.GenerationSoftware,KiCad,Pcbnew,8.0.4*
G04 #@! TF.CreationDate,2024-10-13T11:01:47+03:00*
G04 #@! TF.ProjectId,stm32f0_nucleo,73746d33-3266-4305-9f6e-75636c656f2e,rev?*
G04 #@! TF.SameCoordinates,Original*
G04 #@! TF.FileFunction,Legend,Top*
G04 #@! TF.FilePolarity,Positive*
%FSLAX46Y46*%
G04 Gerber Fmt 4.6, Leading zero omitted, Abs format (unit mm)*
G04 Created by KiCad (PCBNEW 8.0.4) date 2024-10-13 11:01:47*
%MOMM*%
%LPD*%
G01*
G04 APERTURE LIST*
G04 Aperture macros list*
%AMRoundRect*
0 Rectangle with rounded corners*
0 $1 Rounding radius*
0 $2 $3 $4 $5 $6 $7 $8 $9 X,Y pos of 4 corners*
0 Add a 4 corners polygon primitive as box body*
4,1,4,$2,$3,$4,$5,$6,$7,$8,$9,$2,$3,0*
0 Add four circle primitives for the rounded corners*
1,1,$1+$1,$2,$3*
1,1,$1+$1,$4,$5*
1,1,$1+$1,$6,$7*
1,1,$1+$1,$8,$9*
0 Add four rect primitives between the rounded corners*
20,1,$1+$1,$2,$3,$4,$5,0*
20,1,$1+$1,$4,$5,$6,$7,0*
20,1,$1+$1,$6,$7,$8,$9,0*
20,1,$1+$1,$8,$9,$2,$3,0*%
G04 Aperture macros list end*
%ADD10C,0.200000*%
%ADD11C,0.100000*%
%ADD12C,0.120000*%
%ADD13C,0.150000*%
%ADD14C,0.080000*%
%ADD15C,0.250000*%
%ADD16C,0.170000*%
%ADD17C,0.125000*%
%ADD18C,0.450000*%
%ADD19RoundRect,0.250000X-0.475000X0.337500X-0.475000X-0.337500X0.475000X-0.337500X0.475000X0.337500X0*%
%ADD20O,1.700000X1.700000*%
%ADD21R,1.700000X1.700000*%
%ADD22RoundRect,0.250001X0.462499X0.624999X-0.462499X0.624999X-0.462499X-0.624999X0.462499X-0.624999X0*%
%ADD23RoundRect,0.250000X-0.450000X0.350000X-0.450000X-0.350000X0.450000X-0.350000X0.450000X0.350000X0*%
%ADD24R,0.760000X1.600000*%
%ADD25R,1.700000X2.400000*%
%ADD26RoundRect,0.075000X0.075000X-0.662500X0.075000X0.662500X-0.075000X0.662500X-0.075000X-0.662500X0*%
%ADD27RoundRect,0.075000X0.662500X-0.075000X0.662500X0.075000X-0.662500X0.075000X-0.662500X-0.075000X0*%
G04 APERTURE END LIST*
D10*
X156277219Y-101603183D02*
X157277219Y-101269850D01*
X157277219Y-101269850D02*
X156277219Y-100936517D01*
X157277219Y-100603183D02*
X156277219Y-100603183D01*
X157277219Y-100126993D02*
X156277219Y-100126993D01*
X156277219Y-100126993D02*
X157277219Y-99555565D01*
X157277219Y-99555565D02*
X156277219Y-99555565D01*
D11*
X150100074Y-109419133D02*
X150595312Y-109419133D01*
X150595312Y-109419133D02*
X150328646Y-109685800D01*
X150328646Y-109685800D02*
X150442931Y-109685800D01*
X150442931Y-109685800D02*
X150519122Y-109719133D01*
X150519122Y-109719133D02*
X150557217Y-109752466D01*
X150557217Y-109752466D02*
X150595312Y-109819133D01*
X150595312Y-109819133D02*
X150595312Y-109985800D01*
X150595312Y-109985800D02*
X150557217Y-110052466D01*
X150557217Y-110052466D02*
X150519122Y-110085800D01*
X150519122Y-110085800D02*
X150442931Y-110119133D01*
X150442931Y-110119133D02*
X150214360Y-110119133D01*
X150214360Y-110119133D02*
X150138169Y-110085800D01*
X150138169Y-110085800D02*
X150100074Y-110052466D01*
X150938170Y-110052466D02*
X150976265Y-110085800D01*
X150976265Y-110085800D02*
X150938170Y-110119133D01*
X150938170Y-110119133D02*
X150900074Y-110085800D01*
X150900074Y-110085800D02*
X150938170Y-110052466D01*
X150938170Y-110052466D02*
X150938170Y-110119133D01*
X151242931Y-109419133D02*
X151738169Y-109419133D01*
X151738169Y-109419133D02*
X151471503Y-109685800D01*
X151471503Y-109685800D02*
X151585788Y-109685800D01*
X151585788Y-109685800D02*
X151661979Y-109719133D01*
X151661979Y-109719133D02*
X151700074Y-109752466D01*
X151700074Y-109752466D02*
X151738169Y-109819133D01*
X151738169Y-109819133D02*
X151738169Y-109985800D01*
X151738169Y-109985800D02*
X151700074Y-110052466D01*
X151700074Y-110052466D02*
X151661979Y-110085800D01*
X151661979Y-110085800D02*
X151585788Y-110119133D01*
X151585788Y-110119133D02*
X151357217Y-110119133D01*
X151357217Y-110119133D02*
X151281026Y-110085800D01*
X151281026Y-110085800D02*
X151242931Y-110052466D01*
X151966741Y-109419133D02*
X152233408Y-110119133D01*
X152233408Y-110119133D02*
X152500074Y-109419133D01*
D12*
X142944532Y-66805468D02*
G75*
G02*
X142035466Y-66805468I-454533J0D01*
G01*
X142035466Y-66805468D02*
G75*
G02*
X142944532Y-66805468I454533J0D01*
G01*
D13*
X139152017Y-58524295D02*
X139152017Y-57724295D01*
X139152017Y-58486200D02*
X139075826Y-58524295D01*
X139075826Y-58524295D02*
X138923445Y-58524295D01*
X138923445Y-58524295D02*
X138847255Y-58486200D01*
X138847255Y-58486200D02*
X138809160Y-58448104D01*
X138809160Y-58448104D02*
X138771064Y-58371914D01*
X138771064Y-58371914D02*
X138771064Y-58143342D01*
X138771064Y-58143342D02*
X138809160Y-58067152D01*
X138809160Y-58067152D02*
X138847255Y-58029057D01*
X138847255Y-58029057D02*
X138923445Y-57990961D01*
X138923445Y-57990961D02*
X139075826Y-57990961D01*
X139075826Y-57990961D02*
X139152017Y-58029057D01*
X139837732Y-58486200D02*
X139761541Y-58524295D01*
X139761541Y-58524295D02*
X139609160Y-58524295D01*
X139609160Y-58524295D02*
X139532970Y-58486200D01*
X139532970Y-58486200D02*
X139494874Y-58410009D01*
X139494874Y-58410009D02*
X139494874Y-58105247D01*
X139494874Y-58105247D02*
X139532970Y-58029057D01*
X139532970Y-58029057D02*
X139609160Y-57990961D01*
X139609160Y-57990961D02*
X139761541Y-57990961D01*
X139761541Y-57990961D02*
X139837732Y-58029057D01*
X139837732Y-58029057D02*
X139875827Y-58105247D01*
X139875827Y-58105247D02*
X139875827Y-58181438D01*
X139875827Y-58181438D02*
X139494874Y-58257628D01*
X140180588Y-58486200D02*
X140256779Y-58524295D01*
X140256779Y-58524295D02*
X140409160Y-58524295D01*
X140409160Y-58524295D02*
X140485350Y-58486200D01*
X140485350Y-58486200D02*
X140523446Y-58410009D01*
X140523446Y-58410009D02*
X140523446Y-58371914D01*
X140523446Y-58371914D02*
X140485350Y-58295723D01*
X140485350Y-58295723D02*
X140409160Y-58257628D01*
X140409160Y-58257628D02*
X140294874Y-58257628D01*
X140294874Y-58257628D02*
X140218684Y-58219533D01*
X140218684Y-58219533D02*
X140180588Y-58143342D01*
X140180588Y-58143342D02*
X140180588Y-58105247D01*
X140180588Y-58105247D02*
X140218684Y-58029057D01*
X140218684Y-58029057D02*
X140294874Y-57990961D01*
X140294874Y-57990961D02*
X140409160Y-57990961D01*
X140409160Y-57990961D02*
X140485350Y-58029057D01*
X140866303Y-58524295D02*
X140866303Y-57990961D01*
X140866303Y-57724295D02*
X140828207Y-57762390D01*
X140828207Y-57762390D02*
X140866303Y-57800485D01*
X140866303Y-57800485D02*
X140904398Y-57762390D01*
X140904398Y-57762390D02*
X140866303Y-57724295D01*
X140866303Y-57724295D02*
X140866303Y-57800485D01*
X141590112Y-57990961D02*
X141590112Y-58638580D01*
X141590112Y-58638580D02*
X141552017Y-58714771D01*
X141552017Y-58714771D02*
X141513921Y-58752866D01*
X141513921Y-58752866D02*
X141437731Y-58790961D01*
X141437731Y-58790961D02*
X141323445Y-58790961D01*
X141323445Y-58790961D02*
X141247255Y-58752866D01*
X141590112Y-58486200D02*
X141513921Y-58524295D01*
X141513921Y-58524295D02*
X141361540Y-58524295D01*
X141361540Y-58524295D02*
X141285350Y-58486200D01*
X141285350Y-58486200D02*
X141247255Y-58448104D01*
X141247255Y-58448104D02*
X141209159Y-58371914D01*
X141209159Y-58371914D02*
X141209159Y-58143342D01*
X141209159Y-58143342D02*
X141247255Y-58067152D01*
X141247255Y-58067152D02*
X141285350Y-58029057D01*
X141285350Y-58029057D02*
X141361540Y-57990961D01*
X141361540Y-57990961D02*
X141513921Y-57990961D01*
X141513921Y-57990961D02*
X141590112Y-58029057D01*
X141971065Y-57990961D02*
X141971065Y-58524295D01*
X141971065Y-58067152D02*
X142009160Y-58029057D01*
X142009160Y-58029057D02*
X142085350Y-57990961D01*
X142085350Y-57990961D02*
X142199636Y-57990961D01*
X142199636Y-57990961D02*
X142275827Y-58029057D01*
X142275827Y-58029057D02*
X142313922Y-58105247D01*
X142313922Y-58105247D02*
X142313922Y-58524295D01*
X142999637Y-58486200D02*
X142923446Y-58524295D01*
X142923446Y-58524295D02*
X142771065Y-58524295D01*
X142771065Y-58524295D02*
X142694875Y-58486200D01*
X142694875Y-58486200D02*
X142656779Y-58410009D01*
X142656779Y-58410009D02*
X142656779Y-58105247D01*
X142656779Y-58105247D02*
X142694875Y-58029057D01*
X142694875Y-58029057D02*
X142771065Y-57990961D01*
X142771065Y-57990961D02*
X142923446Y-57990961D01*
X142923446Y-57990961D02*
X142999637Y-58029057D01*
X142999637Y-58029057D02*
X143037732Y-58105247D01*
X143037732Y-58105247D02*
X143037732Y-58181438D01*
X143037732Y-58181438D02*
X142656779Y-58257628D01*
X143723446Y-58524295D02*
X143723446Y-57724295D01*
X143723446Y-58486200D02*
X143647255Y-58524295D01*
X143647255Y-58524295D02*
X143494874Y-58524295D01*
X143494874Y-58524295D02*
X143418684Y-58486200D01*
X143418684Y-58486200D02*
X143380589Y-58448104D01*
X143380589Y-58448104D02*
X143342493Y-58371914D01*
X143342493Y-58371914D02*
X143342493Y-58143342D01*
X143342493Y-58143342D02*
X143380589Y-58067152D01*
X143380589Y-58067152D02*
X143418684Y-58029057D01*
X143418684Y-58029057D02*
X143494874Y-57990961D01*
X143494874Y-57990961D02*
X143647255Y-57990961D01*
X143647255Y-57990961D02*
X143723446Y-58029057D01*
X144713923Y-58524295D02*
X144713923Y-57724295D01*
X144713923Y-58029057D02*
X144790113Y-57990961D01*
X144790113Y-57990961D02*
X144942494Y-57990961D01*
X144942494Y-57990961D02*
X145018685Y-58029057D01*
X145018685Y-58029057D02*
X145056780Y-58067152D01*
X145056780Y-58067152D02*
X145094875Y-58143342D01*
X145094875Y-58143342D02*
X145094875Y-58371914D01*
X145094875Y-58371914D02*
X145056780Y-58448104D01*
X145056780Y-58448104D02*
X145018685Y-58486200D01*
X145018685Y-58486200D02*
X144942494Y-58524295D01*
X144942494Y-58524295D02*
X144790113Y-58524295D01*
X144790113Y-58524295D02*
X144713923Y-58486200D01*
X145361542Y-57990961D02*
X145552018Y-58524295D01*
X145742495Y-57990961D02*
X145552018Y-58524295D01*
X145552018Y-58524295D02*
X145475828Y-58714771D01*
X145475828Y-58714771D02*
X145437733Y-58752866D01*
X145437733Y-58752866D02*
X145361542Y-58790961D01*
D14*
X156370802Y-83174747D02*
X156572833Y-82972716D01*
X156431412Y-83316168D02*
X156219280Y-82821193D01*
X156219280Y-82821193D02*
X156714254Y-83033325D01*
X156683950Y-82356523D02*
X156603138Y-82437335D01*
X156603138Y-82437335D02*
X156579567Y-82494577D01*
X156579567Y-82494577D02*
X156576200Y-82531616D01*
X156576200Y-82531616D02*
X156586302Y-82622530D01*
X156586302Y-82622530D02*
X156633442Y-82710076D01*
X156633442Y-82710076D02*
X156768129Y-82844763D01*
X156768129Y-82844763D02*
X156822004Y-82858232D01*
X156822004Y-82858232D02*
X156859043Y-82854865D01*
X156859043Y-82854865D02*
X156916285Y-82831294D01*
X156916285Y-82831294D02*
X156997097Y-82750482D01*
X156997097Y-82750482D02*
X157020667Y-82693240D01*
X157020667Y-82693240D02*
X157024035Y-82656201D01*
X157024035Y-82656201D02*
X157010566Y-82602327D01*
X157010566Y-82602327D02*
X156926387Y-82518147D01*
X156926387Y-82518147D02*
X156872512Y-82504678D01*
X156872512Y-82504678D02*
X156835473Y-82508046D01*
X156835473Y-82508046D02*
X156778231Y-82531616D01*
X156778231Y-82531616D02*
X156697419Y-82612428D01*
X156697419Y-82612428D02*
X156673848Y-82669670D01*
X156673848Y-82669670D02*
X156670481Y-82706709D01*
X156670481Y-82706709D02*
X156683950Y-82760584D01*
D15*
G36*
X142814381Y-74594682D02*
G01*
X142814381Y-73800404D01*
X143006942Y-73840265D01*
X143470905Y-74369002D01*
X143470905Y-73910020D01*
X143696000Y-73956915D01*
X143696000Y-74810104D01*
X143482336Y-74765554D01*
X143039475Y-74264075D01*
X143039475Y-74641284D01*
X142814381Y-74594682D01*
G37*
G36*
X143203881Y-72773467D02*
G01*
X143263166Y-72782510D01*
X143283913Y-72786601D01*
X143320842Y-72794221D01*
X143320842Y-73452212D01*
X143380717Y-73452172D01*
X143435441Y-73433161D01*
X143476108Y-73386999D01*
X143489610Y-73325355D01*
X143489663Y-73320614D01*
X143480619Y-73260026D01*
X143466509Y-73223893D01*
X143431833Y-73174379D01*
X143414632Y-73155603D01*
X143452147Y-72840237D01*
X143502012Y-72879529D01*
X143546312Y-72919811D01*
X143590963Y-72968057D01*
X143628041Y-73017649D01*
X143653794Y-73061228D01*
X143677548Y-73116277D01*
X143695468Y-73178844D01*
X143706184Y-73238456D01*
X143712614Y-73303591D01*
X143714757Y-73374249D01*
X143713026Y-73435091D01*
X143706631Y-73498728D01*
X143693552Y-73561770D01*
X143671481Y-73620343D01*
X143665518Y-73631584D01*
X143629076Y-73681735D01*
X143581300Y-73723014D01*
X143528611Y-73752579D01*
X143509007Y-73760837D01*
X143445699Y-73778591D01*
X143384443Y-73784874D01*
X143318498Y-73782218D01*
X143256949Y-73772561D01*
X143194393Y-73756363D01*
X143135688Y-73734699D01*
X143080832Y-73707568D01*
X143029826Y-73674970D01*
X142982669Y-73636906D01*
X142939362Y-73593374D01*
X142923117Y-73574431D01*
X142886388Y-73524233D01*
X142855884Y-73470544D01*
X142831605Y-73413362D01*
X142813552Y-73352689D01*
X142801723Y-73288524D01*
X142796542Y-73225945D01*
X143020717Y-73225945D01*
X143028311Y-73285948D01*
X143053476Y-73342561D01*
X143066732Y-73360767D01*
X143113512Y-73399167D01*
X143152022Y-73416161D01*
X143152022Y-73092882D01*
X143091645Y-73097937D01*
X143051198Y-73123070D01*
X143025748Y-73176305D01*
X143020717Y-73225945D01*
X142796542Y-73225945D01*
X142796121Y-73220866D01*
X142795623Y-73192826D01*
X142797570Y-73127045D01*
X142803412Y-73067529D01*
X142815151Y-73006012D01*
X142835059Y-72946148D01*
X142851017Y-72914389D01*
X142885953Y-72865818D01*
X142934015Y-72823217D01*
X142985592Y-72795105D01*
X143011045Y-72785722D01*
X143075051Y-72772046D01*
X143140314Y-72769037D01*
X143203881Y-72773467D01*
G37*
G36*
X142814381Y-72520181D02*
G01*
X142814381Y-72214487D01*
X142957409Y-72244089D01*
X142916999Y-72201279D01*
X142878983Y-72154476D01*
X142845987Y-72104158D01*
X142833138Y-72079665D01*
X142811779Y-72023329D01*
X142799286Y-71961522D01*
X142795623Y-71900586D01*
X142800843Y-71837370D01*
X142819197Y-71777681D01*
X142855090Y-71725554D01*
X142879154Y-71705094D01*
X142933162Y-71679184D01*
X142993237Y-71668844D01*
X143055118Y-71669593D01*
X143115081Y-71677513D01*
X143136488Y-71681646D01*
X143696000Y-71798004D01*
X143696000Y-72127438D01*
X143210347Y-72026615D01*
X143150794Y-72019002D01*
X143092817Y-72031891D01*
X143060394Y-72083658D01*
X143058233Y-72108681D01*
X143071385Y-72168340D01*
X143104834Y-72215073D01*
X143154887Y-72249547D01*
X143209980Y-72271128D01*
X143271896Y-72286880D01*
X143696000Y-72375101D01*
X143696000Y-72703363D01*
X142814381Y-72520181D01*
G37*
G36*
X142495497Y-71321730D02*
G01*
X142495497Y-70993761D01*
X142720591Y-71040655D01*
X142720591Y-71368625D01*
X142495497Y-71321730D01*
G37*
G36*
X142814381Y-71388262D02*
G01*
X142814381Y-71060293D01*
X143696000Y-71243475D01*
X143696000Y-71571444D01*
X142814381Y-71388262D01*
G37*
G36*
X142495497Y-70378855D02*
G01*
X142814381Y-70445387D01*
X142814381Y-70264842D01*
X143058233Y-70315547D01*
X143058233Y-70496092D01*
X143382978Y-70563503D01*
X143442616Y-70571323D01*
X143460354Y-70569071D01*
X143489663Y-70518660D01*
X143480962Y-70460316D01*
X143467388Y-70412561D01*
X143688965Y-70434249D01*
X143700249Y-70496495D01*
X143708309Y-70556029D01*
X143713523Y-70619764D01*
X143714757Y-70666964D01*
X143712207Y-70730385D01*
X143702164Y-70792535D01*
X143682517Y-70841060D01*
X143641558Y-70883046D01*
X143583745Y-70906420D01*
X143522567Y-70910665D01*
X143461591Y-70905572D01*
X143396529Y-70895089D01*
X143369496Y-70889713D01*
X143058233Y-70825233D01*
X143058233Y-70945694D01*
X142814381Y-70894989D01*
X142814381Y-70774528D01*
X142660508Y-70742288D01*
X142495497Y-70378855D01*
G37*
G36*
X142495497Y-69633230D02*
G01*
X142814381Y-69699762D01*
X142814381Y-69519218D01*
X143058233Y-69569923D01*
X143058233Y-69750467D01*
X143382978Y-69817878D01*
X143442616Y-69825698D01*
X143460354Y-69823447D01*
X143489663Y-69773035D01*
X143480962Y-69714692D01*
X143467388Y-69666936D01*
X143688965Y-69688625D01*
X143700249Y-69750870D01*
X143708309Y-69810404D01*
X143713523Y-69874140D01*
X143714757Y-69921339D01*
X143712207Y-69984760D01*
X143702164Y-70046911D01*
X143682517Y-70095436D01*
X143641558Y-70137421D01*
X143583745Y-70160795D01*
X143522567Y-70165040D01*
X143461591Y-70159948D01*
X143396529Y-70149465D01*
X143369496Y-70144089D01*
X143058233Y-70079609D01*
X143058233Y-70200069D01*
X142814381Y-70149364D01*
X142814381Y-70028904D01*
X142660508Y-69996664D01*
X142495497Y-69633230D01*
G37*
G36*
X143203881Y-68483781D02*
G01*
X143263166Y-68492824D01*
X143283913Y-68496915D01*
X143320842Y-68504535D01*
X143320842Y-69162526D01*
X143380717Y-69162486D01*
X143435441Y-69143475D01*
X143476108Y-69097313D01*
X143489610Y-69035669D01*
X143489663Y-69030928D01*
X143480619Y-68970340D01*
X143466509Y-68934207D01*
X143431833Y-68884693D01*
X143414632Y-68865917D01*
X143452147Y-68550551D01*
X143502012Y-68589843D01*
X143546312Y-68630125D01*
X143590963Y-68678371D01*
X143628041Y-68727963D01*
X143653794Y-68771542D01*
X143677548Y-68826591D01*
X143695468Y-68889158D01*
X143706184Y-68948770D01*
X143712614Y-69013905D01*
X143714757Y-69084563D01*
X143713026Y-69145405D01*
X143706631Y-69209042D01*
X143693552Y-69272084D01*
X143671481Y-69330657D01*
X143665518Y-69341898D01*
X143629076Y-69392049D01*
X143581300Y-69433328D01*
X143528611Y-69462893D01*
X143509007Y-69471151D01*
X143445699Y-69488905D01*
X143384443Y-69495188D01*
X143318498Y-69492532D01*
X143256949Y-69482875D01*
X143194393Y-69466677D01*
X143135688Y-69445013D01*
X143080832Y-69417882D01*
X143029826Y-69385284D01*
X142982669Y-69347220D01*
X142939362Y-69303688D01*
X142923117Y-69284745D01*
X142886388Y-69234547D01*
X142855884Y-69180858D01*
X142831605Y-69123676D01*
X142813552Y-69063003D01*
X142801723Y-68998838D01*
X142796542Y-68936259D01*
X143020717Y-68936259D01*
X143028311Y-68996262D01*
X143053476Y-69052875D01*
X143066732Y-69071081D01*
X143113512Y-69109481D01*
X143152022Y-69126475D01*
X143152022Y-68803196D01*
X143091645Y-68808251D01*
X143051198Y-68833384D01*
X143025748Y-68886619D01*
X143020717Y-68936259D01*
X142796542Y-68936259D01*
X142796121Y-68931180D01*
X142795623Y-68903140D01*
X142797570Y-68837359D01*
X142803412Y-68777843D01*
X142815151Y-68716326D01*
X142835059Y-68656462D01*
X142851017Y-68624703D01*
X142885953Y-68576132D01*
X142934015Y-68533531D01*
X142985592Y-68505419D01*
X143011045Y-68496036D01*
X143075051Y-68482360D01*
X143140314Y-68479351D01*
X143203881Y-68483781D01*
G37*
G36*
X142495497Y-68163963D02*
G01*
X142495497Y-67828374D01*
X143086956Y-67951472D01*
X142814381Y-67649881D01*
X142814381Y-67246001D01*
X143123299Y-67617348D01*
X143696000Y-67411304D01*
X143696000Y-67781479D01*
X143343411Y-67881716D01*
X143466802Y-68030314D01*
X143696000Y-68078087D01*
X143696000Y-68413677D01*
X142495497Y-68163963D01*
G37*
D14*
X156518247Y-77908943D02*
X156595692Y-77865169D01*
X156595692Y-77865169D02*
X156632731Y-77861802D01*
X156632731Y-77861802D02*
X156686606Y-77875271D01*
X156686606Y-77875271D02*
X156737114Y-77925779D01*
X156737114Y-77925779D02*
X156750583Y-77979653D01*
X156750583Y-77979653D02*
X156747215Y-78016692D01*
X156747215Y-78016692D02*
X156723645Y-78073934D01*
X156723645Y-78073934D02*
X156562021Y-78235559D01*
X156562021Y-78235559D02*
X156208467Y-77882005D01*
X156208467Y-77882005D02*
X156349889Y-77740584D01*
X156349889Y-77740584D02*
X156407131Y-77717014D01*
X156407131Y-77717014D02*
X156444170Y-77713647D01*
X156444170Y-77713647D02*
X156498044Y-77727115D01*
X156498044Y-77727115D02*
X156531716Y-77760787D01*
X156531716Y-77760787D02*
X156545185Y-77814662D01*
X156545185Y-77814662D02*
X156541818Y-77851701D01*
X156541818Y-77851701D02*
X156518247Y-77908943D01*
X156518247Y-77908943D02*
X156376826Y-78050364D01*
X156713544Y-77376929D02*
X156753950Y-77336523D01*
X156753950Y-77336523D02*
X156811192Y-77312953D01*
X156811192Y-77312953D02*
X156848231Y-77309586D01*
X156848231Y-77309586D02*
X156902105Y-77323054D01*
X156902105Y-77323054D02*
X156989652Y-77370195D01*
X156989652Y-77370195D02*
X157073831Y-77454374D01*
X157073831Y-77454374D02*
X157120972Y-77541921D01*
X157120972Y-77541921D02*
X157134441Y-77595795D01*
X157134441Y-77595795D02*
X157131073Y-77632834D01*
X157131073Y-77632834D02*
X157107503Y-77690076D01*
X157107503Y-77690076D02*
X157067097Y-77730482D01*
X157067097Y-77730482D02*
X157009855Y-77754053D01*
X157009855Y-77754053D02*
X156972816Y-77757420D01*
X156972816Y-77757420D02*
X156918941Y-77743951D01*
X156918941Y-77743951D02*
X156831395Y-77696811D01*
X156831395Y-77696811D02*
X156747215Y-77612631D01*
X156747215Y-77612631D02*
X156700075Y-77525085D01*
X156700075Y-77525085D02*
X156686606Y-77471210D01*
X156686606Y-77471210D02*
X156689973Y-77434171D01*
X156689973Y-77434171D02*
X156713544Y-77376929D01*
X148672631Y-61919963D02*
X149105964Y-61919963D01*
X149105964Y-61919963D02*
X148872631Y-62156154D01*
X148872631Y-62156154D02*
X148972631Y-62156154D01*
X148972631Y-62156154D02*
X149039297Y-62185678D01*
X149039297Y-62185678D02*
X149072631Y-62215201D01*
X149072631Y-62215201D02*
X149105964Y-62274249D01*
X149105964Y-62274249D02*
X149105964Y-62421868D01*
X149105964Y-62421868D02*
X149072631Y-62480916D01*
X149072631Y-62480916D02*
X149039297Y-62510440D01*
X149039297Y-62510440D02*
X148972631Y-62539963D01*
X148972631Y-62539963D02*
X148772631Y-62539963D01*
X148772631Y-62539963D02*
X148705964Y-62510440D01*
X148705964Y-62510440D02*
X148672631Y-62480916D01*
X149405964Y-62480916D02*
X149439298Y-62510440D01*
X149439298Y-62510440D02*
X149405964Y-62539963D01*
X149405964Y-62539963D02*
X149372631Y-62510440D01*
X149372631Y-62510440D02*
X149405964Y-62480916D01*
X149405964Y-62480916D02*
X149405964Y-62539963D01*
X149672631Y-61919963D02*
X150105964Y-61919963D01*
X150105964Y-61919963D02*
X149872631Y-62156154D01*
X149872631Y-62156154D02*
X149972631Y-62156154D01*
X149972631Y-62156154D02*
X150039297Y-62185678D01*
X150039297Y-62185678D02*
X150072631Y-62215201D01*
X150072631Y-62215201D02*
X150105964Y-62274249D01*
X150105964Y-62274249D02*
X150105964Y-62421868D01*
X150105964Y-62421868D02*
X150072631Y-62480916D01*
X150072631Y-62480916D02*
X150039297Y-62510440D01*
X150039297Y-62510440D02*
X149972631Y-62539963D01*
X149972631Y-62539963D02*
X149772631Y-62539963D01*
X149772631Y-62539963D02*
X149705964Y-62510440D01*
X149705964Y-62510440D02*
X149672631Y-62480916D01*
X150305964Y-61919963D02*
X150539298Y-62539963D01*
X150539298Y-62539963D02*
X150772631Y-61919963D01*
X138241056Y-72498247D02*
X138099635Y-72356826D01*
X137914440Y-72542021D02*
X138267994Y-72188467D01*
X138267994Y-72188467D02*
X138470024Y-72390498D01*
X138813476Y-72733950D02*
X138732664Y-72653138D01*
X138732664Y-72653138D02*
X138675422Y-72629567D01*
X138675422Y-72629567D02*
X138638383Y-72626200D01*
X138638383Y-72626200D02*
X138547469Y-72636302D01*
X138547469Y-72636302D02*
X138459923Y-72683442D01*
X138459923Y-72683442D02*
X138325236Y-72818129D01*
X138325236Y-72818129D02*
X138311767Y-72872004D01*
X138311767Y-72872004D02*
X138315134Y-72909043D01*
X138315134Y-72909043D02*
X138338705Y-72966285D01*
X138338705Y-72966285D02*
X138419517Y-73047097D01*
X138419517Y-73047097D02*
X138476759Y-73070667D01*
X138476759Y-73070667D02*
X138513798Y-73074035D01*
X138513798Y-73074035D02*
X138567672Y-73060566D01*
X138567672Y-73060566D02*
X138651852Y-72976387D01*
X138651852Y-72976387D02*
X138665321Y-72922512D01*
X138665321Y-72922512D02*
X138661953Y-72885473D01*
X138661953Y-72885473D02*
X138638383Y-72828231D01*
X138638383Y-72828231D02*
X138557571Y-72747419D01*
X138557571Y-72747419D02*
X138500329Y-72723848D01*
X138500329Y-72723848D02*
X138463290Y-72720481D01*
X138463290Y-72720481D02*
X138409415Y-72733950D01*
D11*
X138677533Y-107735312D02*
X138710866Y-107659122D01*
X138710866Y-107659122D02*
X138710866Y-107544836D01*
X138710866Y-107544836D02*
X138677533Y-107430550D01*
X138677533Y-107430550D02*
X138610866Y-107354360D01*
X138610866Y-107354360D02*
X138544200Y-107316265D01*
X138544200Y-107316265D02*
X138410866Y-107278169D01*
X138410866Y-107278169D02*
X138310866Y-107278169D01*
X138310866Y-107278169D02*
X138177533Y-107316265D01*
X138177533Y-107316265D02*
X138110866Y-107354360D01*
X138110866Y-107354360D02*
X138044200Y-107430550D01*
X138044200Y-107430550D02*
X138010866Y-107544836D01*
X138010866Y-107544836D02*
X138010866Y-107621027D01*
X138010866Y-107621027D02*
X138044200Y-107735312D01*
X138044200Y-107735312D02*
X138077533Y-107773408D01*
X138077533Y-107773408D02*
X138310866Y-107773408D01*
X138310866Y-107773408D02*
X138310866Y-107621027D01*
X138010866Y-108116265D02*
X138710866Y-108116265D01*
X138710866Y-108116265D02*
X138010866Y-108573408D01*
X138010866Y-108573408D02*
X138710866Y-108573408D01*
X138010866Y-108954360D02*
X138710866Y-108954360D01*
X138710866Y-108954360D02*
X138710866Y-109144836D01*
X138710866Y-109144836D02*
X138677533Y-109259122D01*
X138677533Y-109259122D02*
X138610866Y-109335312D01*
X138610866Y-109335312D02*
X138544200Y-109373407D01*
X138544200Y-109373407D02*
X138410866Y-109411503D01*
X138410866Y-109411503D02*
X138310866Y-109411503D01*
X138310866Y-109411503D02*
X138177533Y-109373407D01*
X138177533Y-109373407D02*
X138110866Y-109335312D01*
X138110866Y-109335312D02*
X138044200Y-109259122D01*
X138044200Y-109259122D02*
X138010866Y-109144836D01*
X138010866Y-109144836D02*
X138010866Y-108954360D01*
D14*
X156218247Y-60348943D02*
X156295692Y-60305169D01*
X156295692Y-60305169D02*
X156332731Y-60301802D01*
X156332731Y-60301802D02*
X156386606Y-60315271D01*
X156386606Y-60315271D02*
X156437114Y-60365779D01*
X156437114Y-60365779D02*
X156450583Y-60419653D01*
X156450583Y-60419653D02*
X156447215Y-60456692D01*
X156447215Y-60456692D02*
X156423645Y-60513934D01*
X156423645Y-60513934D02*
X156262021Y-60675559D01*
X156262021Y-60675559D02*
X155908467Y-60322005D01*
X155908467Y-60322005D02*
X156049889Y-60180584D01*
X156049889Y-60180584D02*
X156107131Y-60157014D01*
X156107131Y-60157014D02*
X156144170Y-60153647D01*
X156144170Y-60153647D02*
X156198044Y-60167115D01*
X156198044Y-60167115D02*
X156231716Y-60200787D01*
X156231716Y-60200787D02*
X156245185Y-60254662D01*
X156245185Y-60254662D02*
X156241818Y-60291701D01*
X156241818Y-60291701D02*
X156218247Y-60348943D01*
X156218247Y-60348943D02*
X156076826Y-60490364D01*
X156908518Y-60029061D02*
X156666082Y-60271498D01*
X156787300Y-60150279D02*
X156433747Y-59796726D01*
X156433747Y-59796726D02*
X156443848Y-59887640D01*
X156443848Y-59887640D02*
X156437114Y-59961718D01*
X156437114Y-59961718D02*
X156413544Y-60018960D01*
X157036471Y-59429704D02*
X157272174Y-59665406D01*
X156800769Y-59396032D02*
X156952292Y-59749585D01*
X156952292Y-59749585D02*
X157214932Y-59486946D01*
X156370802Y-88244747D02*
X156572833Y-88042716D01*
X156431412Y-88386168D02*
X156219280Y-87891193D01*
X156219280Y-87891193D02*
X156714254Y-88103325D01*
X156801801Y-87544374D02*
X157037503Y-87780076D01*
X156566099Y-87510702D02*
X156717622Y-87864256D01*
X156717622Y-87864256D02*
X156980261Y-87601616D01*
X138050549Y-97920786D02*
X138013510Y-97917418D01*
X138013510Y-97917418D02*
X137936065Y-97873645D01*
X137936065Y-97873645D02*
X137895659Y-97833239D01*
X137895659Y-97833239D02*
X137851885Y-97755794D01*
X137851885Y-97755794D02*
X137845151Y-97681716D01*
X137845151Y-97681716D02*
X137858620Y-97627841D01*
X137858620Y-97627841D02*
X137905760Y-97540295D01*
X137905760Y-97540295D02*
X137956268Y-97489787D01*
X137956268Y-97489787D02*
X138043814Y-97442647D01*
X138043814Y-97442647D02*
X138097689Y-97429178D01*
X138097689Y-97429178D02*
X138171767Y-97435912D01*
X138171767Y-97435912D02*
X138249212Y-97479686D01*
X138249212Y-97479686D02*
X138289618Y-97520092D01*
X138289618Y-97520092D02*
X138333391Y-97597537D01*
X138333391Y-97597537D02*
X138336759Y-97634576D01*
X138420938Y-98358518D02*
X138178501Y-98116082D01*
X138299720Y-98237300D02*
X138653273Y-97883747D01*
X138653273Y-97883747D02*
X138562359Y-97893848D01*
X138562359Y-97893848D02*
X138488281Y-97887114D01*
X138488281Y-97887114D02*
X138431039Y-97863544D01*
X138915913Y-98146387D02*
X139178553Y-98409026D01*
X139178553Y-98409026D02*
X138902444Y-98402292D01*
X138902444Y-98402292D02*
X138963053Y-98462901D01*
X138963053Y-98462901D02*
X138986624Y-98520143D01*
X138986624Y-98520143D02*
X138989991Y-98557182D01*
X138989991Y-98557182D02*
X138976522Y-98611057D01*
X138976522Y-98611057D02*
X138892343Y-98695236D01*
X138892343Y-98695236D02*
X138838468Y-98708705D01*
X138838468Y-98708705D02*
X138801429Y-98705338D01*
X138801429Y-98705338D02*
X138744187Y-98681767D01*
X138744187Y-98681767D02*
X138622969Y-98560549D01*
X138622969Y-98560549D02*
X138599398Y-98503307D01*
X138599398Y-98503307D02*
X138596031Y-98466268D01*
D15*
G36*
X150975317Y-69655568D02*
G01*
X150975317Y-68993670D01*
X151135785Y-69026887D01*
X151522421Y-69467501D01*
X151522421Y-69085017D01*
X151710000Y-69124096D01*
X151710000Y-69835087D01*
X151531946Y-69797962D01*
X151162896Y-69380062D01*
X151162896Y-69694403D01*
X150975317Y-69655568D01*
G37*
G36*
X151299900Y-68137889D02*
G01*
X151349305Y-68145425D01*
X151366594Y-68148834D01*
X151397369Y-68155184D01*
X151397369Y-68703510D01*
X151447264Y-68703476D01*
X151492868Y-68687634D01*
X151526756Y-68649166D01*
X151538008Y-68597796D01*
X151538053Y-68593845D01*
X151530515Y-68543355D01*
X151518757Y-68513244D01*
X151489860Y-68471983D01*
X151475526Y-68456336D01*
X151506789Y-68193531D01*
X151548343Y-68226274D01*
X151585260Y-68259842D01*
X151622469Y-68300047D01*
X151653368Y-68341374D01*
X151674829Y-68377690D01*
X151694624Y-68423564D01*
X151709557Y-68475704D01*
X151718487Y-68525380D01*
X151723845Y-68579659D01*
X151725631Y-68638541D01*
X151724188Y-68689242D01*
X151718859Y-68742273D01*
X151707960Y-68794808D01*
X151689567Y-68843619D01*
X151684598Y-68852986D01*
X151654230Y-68894779D01*
X151614417Y-68929179D01*
X151570509Y-68953816D01*
X151554173Y-68960697D01*
X151501416Y-68975492D01*
X151450369Y-68980728D01*
X151395415Y-68978515D01*
X151344124Y-68970467D01*
X151291994Y-68956969D01*
X151243073Y-68938916D01*
X151197360Y-68916307D01*
X151154855Y-68889142D01*
X151115557Y-68857421D01*
X151079468Y-68821145D01*
X151065931Y-68805359D01*
X151035323Y-68763528D01*
X151009903Y-68718786D01*
X150989671Y-68671135D01*
X150974626Y-68620574D01*
X150964769Y-68567103D01*
X150960450Y-68514954D01*
X151147264Y-68514954D01*
X151153593Y-68564957D01*
X151174563Y-68612134D01*
X151185610Y-68627306D01*
X151224594Y-68659305D01*
X151256685Y-68673468D01*
X151256685Y-68404068D01*
X151206371Y-68408281D01*
X151172665Y-68429225D01*
X151151456Y-68473587D01*
X151147264Y-68514954D01*
X150960450Y-68514954D01*
X150960100Y-68510722D01*
X150959685Y-68487355D01*
X150961308Y-68432537D01*
X150966177Y-68382941D01*
X150975959Y-68331677D01*
X150992549Y-68281790D01*
X151005847Y-68255324D01*
X151034960Y-68214849D01*
X151075012Y-68179348D01*
X151117993Y-68155921D01*
X151139204Y-68148101D01*
X151192542Y-68136705D01*
X151246928Y-68134197D01*
X151299900Y-68137889D01*
G37*
G36*
X150975317Y-67924131D02*
G01*
X150975317Y-67667920D01*
X151096461Y-67693077D01*
X151056362Y-67663764D01*
X151017846Y-67629669D01*
X150988995Y-67594647D01*
X150967957Y-67549320D01*
X150959800Y-67498519D01*
X150959685Y-67491332D01*
X150965933Y-67441711D01*
X150982792Y-67394834D01*
X150997543Y-67367013D01*
X151199288Y-67493286D01*
X151181953Y-67540100D01*
X151178527Y-67565582D01*
X151189945Y-67615774D01*
X151221390Y-67655953D01*
X151224200Y-67658394D01*
X151269064Y-67688212D01*
X151316219Y-67709319D01*
X151365177Y-67725960D01*
X151422018Y-67741261D01*
X151464291Y-67750718D01*
X151710000Y-67801765D01*
X151710000Y-68076782D01*
X150975317Y-67924131D01*
G37*
G36*
X151294850Y-66565350D02*
G01*
X151340704Y-66572735D01*
X151392031Y-66586081D01*
X151440376Y-66604138D01*
X151485740Y-66626906D01*
X151528123Y-66654385D01*
X151567523Y-66686574D01*
X151603943Y-66723474D01*
X151617676Y-66739553D01*
X151648776Y-66782119D01*
X151674605Y-66827690D01*
X151695163Y-66876267D01*
X151710450Y-66927849D01*
X151720465Y-66982436D01*
X151725209Y-67040029D01*
X151725631Y-67063907D01*
X151723443Y-67115578D01*
X151715039Y-67172135D01*
X151700333Y-67222751D01*
X151679324Y-67267424D01*
X151646848Y-67312033D01*
X151635994Y-67323293D01*
X151591890Y-67358418D01*
X151542926Y-67383377D01*
X151489102Y-67398169D01*
X151430418Y-67402794D01*
X151377802Y-67398883D01*
X151344612Y-67393147D01*
X151293690Y-67379847D01*
X151245641Y-67361777D01*
X151200467Y-67338936D01*
X151158167Y-67311325D01*
X151118741Y-67278944D01*
X151082189Y-67241793D01*
X151068374Y-67225596D01*
X151037062Y-67182739D01*
X151011058Y-67137211D01*
X150990360Y-67089011D01*
X150974970Y-67038140D01*
X150964886Y-66984597D01*
X150961124Y-66940321D01*
X151147264Y-66940321D01*
X151156520Y-66990623D01*
X151181692Y-67033649D01*
X151195624Y-67049253D01*
X151234678Y-67079488D01*
X151280550Y-67101165D01*
X151330277Y-67115943D01*
X151342414Y-67118618D01*
X151394490Y-67126393D01*
X151446961Y-67125296D01*
X151490181Y-67110802D01*
X151526085Y-67074715D01*
X151538006Y-67027242D01*
X151538053Y-67023607D01*
X151529030Y-66974039D01*
X151501962Y-66928772D01*
X151490914Y-66916629D01*
X151451752Y-66886834D01*
X151404430Y-66865158D01*
X151352296Y-66850054D01*
X151339483Y-66847264D01*
X151288745Y-66839725D01*
X151237435Y-66841005D01*
X151194891Y-66855568D01*
X151159171Y-66890922D01*
X151147264Y-66940321D01*
X150961124Y-66940321D01*
X150960110Y-66928383D01*
X150959685Y-66905150D01*
X150961681Y-66853595D01*
X150969790Y-66794938D01*
X150984136Y-66742708D01*
X151004718Y-66696907D01*
X151037651Y-66650430D01*
X151079566Y-66613209D01*
X151087424Y-66607906D01*
X151134690Y-66583516D01*
X151186514Y-66568476D01*
X151242895Y-66562786D01*
X151294850Y-66565350D01*
G37*
D14*
X138311056Y-85208247D02*
X138354830Y-85285692D01*
X138354830Y-85285692D02*
X138358197Y-85322731D01*
X138358197Y-85322731D02*
X138344728Y-85376606D01*
X138344728Y-85376606D02*
X138294220Y-85427114D01*
X138294220Y-85427114D02*
X138240346Y-85440583D01*
X138240346Y-85440583D02*
X138203307Y-85437215D01*
X138203307Y-85437215D02*
X138146065Y-85413645D01*
X138146065Y-85413645D02*
X137984440Y-85252021D01*
X137984440Y-85252021D02*
X138337994Y-84898467D01*
X138337994Y-84898467D02*
X138479415Y-85039889D01*
X138479415Y-85039889D02*
X138502985Y-85097131D01*
X138502985Y-85097131D02*
X138506352Y-85134170D01*
X138506352Y-85134170D02*
X138492884Y-85188044D01*
X138492884Y-85188044D02*
X138459212Y-85221716D01*
X138459212Y-85221716D02*
X138405337Y-85235185D01*
X138405337Y-85235185D02*
X138368298Y-85231818D01*
X138368298Y-85231818D02*
X138311056Y-85208247D01*
X138311056Y-85208247D02*
X138169635Y-85066826D01*
X138964288Y-85524762D02*
X138762258Y-85322731D01*
X138762258Y-85322731D02*
X138573696Y-85470887D01*
X138573696Y-85470887D02*
X138610735Y-85474254D01*
X138610735Y-85474254D02*
X138667977Y-85497825D01*
X138667977Y-85497825D02*
X138768992Y-85598840D01*
X138768992Y-85598840D02*
X138792562Y-85656082D01*
X138792562Y-85656082D02*
X138795929Y-85693121D01*
X138795929Y-85693121D02*
X138782461Y-85746995D01*
X138782461Y-85746995D02*
X138698281Y-85831175D01*
X138698281Y-85831175D02*
X138644407Y-85844644D01*
X138644407Y-85844644D02*
X138607368Y-85841276D01*
X138607368Y-85841276D02*
X138550126Y-85817706D01*
X138550126Y-85817706D02*
X138449110Y-85716691D01*
X138449110Y-85716691D02*
X138425540Y-85659449D01*
X138425540Y-85659449D02*
X138422173Y-85622410D01*
X156380802Y-80654747D02*
X156582833Y-80452716D01*
X156441412Y-80796168D02*
X156229280Y-80301193D01*
X156229280Y-80301193D02*
X156724254Y-80513325D01*
X156471716Y-80058756D02*
X156754559Y-79775914D01*
X156754559Y-79775914D02*
X156926285Y-80311294D01*
X137835252Y-67130802D02*
X138037283Y-67332833D01*
X137693831Y-67191412D02*
X138188806Y-66979280D01*
X138188806Y-66979280D02*
X137976674Y-67474254D01*
X138340329Y-67837909D02*
X138097892Y-67595473D01*
X138219111Y-67716691D02*
X138572664Y-67363138D01*
X138572664Y-67363138D02*
X138481750Y-67373239D01*
X138481750Y-67373239D02*
X138407672Y-67366505D01*
X138407672Y-67366505D02*
X138350430Y-67342935D01*
X138744390Y-68241971D02*
X138501954Y-67999534D01*
X138623172Y-68120752D02*
X138976725Y-67767199D01*
X138976725Y-67767199D02*
X138885812Y-67777301D01*
X138885812Y-67777301D02*
X138811734Y-67770566D01*
X138811734Y-67770566D02*
X138754492Y-67746996D01*
X156218247Y-65448943D02*
X156295692Y-65405169D01*
X156295692Y-65405169D02*
X156332731Y-65401802D01*
X156332731Y-65401802D02*
X156386606Y-65415271D01*
X156386606Y-65415271D02*
X156437114Y-65465779D01*
X156437114Y-65465779D02*
X156450583Y-65519653D01*
X156450583Y-65519653D02*
X156447215Y-65556692D01*
X156447215Y-65556692D02*
X156423645Y-65613934D01*
X156423645Y-65613934D02*
X156262021Y-65775559D01*
X156262021Y-65775559D02*
X155908467Y-65422005D01*
X155908467Y-65422005D02*
X156049889Y-65280584D01*
X156049889Y-65280584D02*
X156107131Y-65257014D01*
X156107131Y-65257014D02*
X156144170Y-65253647D01*
X156144170Y-65253647D02*
X156198044Y-65267115D01*
X156198044Y-65267115D02*
X156231716Y-65300787D01*
X156231716Y-65300787D02*
X156245185Y-65354662D01*
X156245185Y-65354662D02*
X156241818Y-65391701D01*
X156241818Y-65391701D02*
X156218247Y-65448943D01*
X156218247Y-65448943D02*
X156076826Y-65590364D01*
X156908518Y-65129061D02*
X156666082Y-65371498D01*
X156787300Y-65250279D02*
X156433747Y-64896726D01*
X156433747Y-64896726D02*
X156443848Y-64987640D01*
X156443848Y-64987640D02*
X156437114Y-65061718D01*
X156437114Y-65061718D02*
X156413544Y-65118960D01*
X156750261Y-64647555D02*
X156753629Y-64610516D01*
X156753629Y-64610516D02*
X156777199Y-64553274D01*
X156777199Y-64553274D02*
X156878214Y-64452259D01*
X156878214Y-64452259D02*
X156935456Y-64428688D01*
X156935456Y-64428688D02*
X156972495Y-64425321D01*
X156972495Y-64425321D02*
X157026370Y-64438790D01*
X157026370Y-64438790D02*
X157060042Y-64472462D01*
X157060042Y-64472462D02*
X157090346Y-64543172D01*
X157090346Y-64543172D02*
X157049940Y-64987639D01*
X157049940Y-64987639D02*
X157312580Y-64725000D01*
X138291056Y-87728247D02*
X138334830Y-87805692D01*
X138334830Y-87805692D02*
X138338197Y-87842731D01*
X138338197Y-87842731D02*
X138324728Y-87896606D01*
X138324728Y-87896606D02*
X138274220Y-87947114D01*
X138274220Y-87947114D02*
X138220346Y-87960583D01*
X138220346Y-87960583D02*
X138183307Y-87957215D01*
X138183307Y-87957215D02*
X138126065Y-87933645D01*
X138126065Y-87933645D02*
X137964440Y-87772021D01*
X137964440Y-87772021D02*
X138317994Y-87418467D01*
X138317994Y-87418467D02*
X138459415Y-87559889D01*
X138459415Y-87559889D02*
X138482985Y-87617131D01*
X138482985Y-87617131D02*
X138486352Y-87654170D01*
X138486352Y-87654170D02*
X138472884Y-87708044D01*
X138472884Y-87708044D02*
X138439212Y-87741716D01*
X138439212Y-87741716D02*
X138385337Y-87755185D01*
X138385337Y-87755185D02*
X138348298Y-87751818D01*
X138348298Y-87751818D02*
X138291056Y-87728247D01*
X138291056Y-87728247D02*
X138149635Y-87586826D01*
X138924085Y-88024559D02*
X138843273Y-87943747D01*
X138843273Y-87943747D02*
X138786031Y-87920176D01*
X138786031Y-87920176D02*
X138748992Y-87916809D01*
X138748992Y-87916809D02*
X138658078Y-87926911D01*
X138658078Y-87926911D02*
X138570532Y-87974051D01*
X138570532Y-87974051D02*
X138435845Y-88108738D01*
X138435845Y-88108738D02*
X138422376Y-88162613D01*
X138422376Y-88162613D02*
X138425743Y-88199652D01*
X138425743Y-88199652D02*
X138449313Y-88256894D01*
X138449313Y-88256894D02*
X138530126Y-88337706D01*
X138530126Y-88337706D02*
X138587368Y-88361276D01*
X138587368Y-88361276D02*
X138624407Y-88364644D01*
X138624407Y-88364644D02*
X138678281Y-88351175D01*
X138678281Y-88351175D02*
X138762461Y-88266995D01*
X138762461Y-88266995D02*
X138775929Y-88213121D01*
X138775929Y-88213121D02*
X138772562Y-88176082D01*
X138772562Y-88176082D02*
X138748992Y-88118840D01*
X138748992Y-88118840D02*
X138668180Y-88038028D01*
X138668180Y-88038028D02*
X138610938Y-88014457D01*
X138610938Y-88014457D02*
X138573899Y-88011090D01*
X138573899Y-88011090D02*
X138520024Y-88024559D01*
D16*
G36*
X150939440Y-59141372D02*
G01*
X150949727Y-59161947D01*
X150744937Y-59202905D01*
X150744937Y-59174273D01*
X150761388Y-59141372D01*
X150794289Y-59124921D01*
X150906538Y-59124921D01*
X150939440Y-59141372D01*
G37*
G36*
X152898747Y-59482626D02*
G01*
X152887489Y-59488255D01*
X152737145Y-59488255D01*
X152704245Y-59471805D01*
X152687794Y-59438902D01*
X152687794Y-59402845D01*
X152704245Y-59369942D01*
X152737145Y-59353493D01*
X152898747Y-59353493D01*
X152898747Y-59482626D01*
G37*
G36*
X153727432Y-59747144D02*
G01*
X145724164Y-59747144D01*
X145724164Y-58771359D01*
X145813053Y-58771359D01*
X145818796Y-58804022D01*
X145826321Y-58818890D01*
X146079699Y-59217054D01*
X146079699Y-59573255D01*
X146081332Y-59589838D01*
X146094024Y-59620478D01*
X146117476Y-59643930D01*
X146148116Y-59656622D01*
X146181282Y-59656622D01*
X146211922Y-59643930D01*
X146235374Y-59620478D01*
X146248066Y-59589838D01*
X146249699Y-59573255D01*
X146249699Y-59217053D01*
X146362420Y-59039921D01*
X146613032Y-59039921D01*
X146613032Y-59458969D01*
X146614665Y-59475552D01*
X146615833Y-59478373D01*
X146616050Y-59481419D01*
X146622005Y-59496982D01*
X146660101Y-59573173D01*
X146661847Y-59575947D01*
X146662283Y-59577255D01*
X146663695Y-59578883D01*
X146668977Y-59587275D01*
X146677028Y-59594258D01*
X146684012Y-59602310D01*
X146692403Y-59607591D01*
X146694032Y-59609004D01*
X146695339Y-59609439D01*
X146698114Y-59611186D01*
X146774304Y-59649281D01*
X146789866Y-59655237D01*
X146792912Y-59655453D01*
X146795734Y-59656622D01*
X146812317Y-59658255D01*
X146926603Y-59658255D01*
X146943186Y-59656622D01*
X146946007Y-59655453D01*
X146949053Y-59655237D01*
X146964616Y-59649282D01*
X146987550Y-59637814D01*
X146993666Y-59643930D01*
X147024306Y-59656622D01*
X147057472Y-59656622D01*
X147088112Y-59643930D01*
X147111564Y-59620478D01*
X147124256Y-59589838D01*
X147125889Y-59573255D01*
X147125889Y-59154207D01*
X147298746Y-59154207D01*
X147298746Y-59192302D01*
X147300379Y-59208885D01*
X147301547Y-59211706D01*
X147301764Y-59214753D01*
X147307720Y-59230316D01*
X147345816Y-59306506D01*
X147347561Y-59309279D01*
X147347998Y-59310588D01*
X147349411Y-59312217D01*
X147354693Y-59320608D01*
X147362741Y-59327588D01*
X147369727Y-59335643D01*
X147378118Y-59340925D01*
X147379747Y-59342337D01*
X147381054Y-59342772D01*
X147383829Y-59344519D01*
X147460019Y-59382614D01*
X147475581Y-59388570D01*
X147478627Y-59388786D01*
X147481449Y-59389955D01*
X147498032Y-59391588D01*
X147592253Y-59391588D01*
X147625152Y-59408037D01*
X147641095Y-59439921D01*
X147625152Y-59471805D01*
X147592253Y-59488255D01*
X147480002Y-59488255D01*
X147421759Y-59459133D01*
X147406196Y-59453178D01*
X147373115Y-59450828D01*
X147341651Y-59461316D01*
X147316596Y-59483045D01*
X147301764Y-59512710D01*
X147299414Y-59545791D01*
X147309902Y-59577255D01*
X147331631Y-59602310D01*
X147345733Y-59611187D01*
X147421924Y-59649282D01*
X147437487Y-59655237D01*
X147440532Y-59655453D01*
X147443354Y-59656622D01*
X147459937Y-59658255D01*
X147612318Y-59658255D01*
X147628901Y-59656622D01*
X147631722Y-59655453D01*
X147634769Y-59655237D01*
X147650331Y-59649281D01*
X147726521Y-59611186D01*
X147729292Y-59609441D01*
X147730602Y-59609005D01*
X147732231Y-59607591D01*
X147740623Y-59602310D01*
X147747607Y-59594255D01*
X147755657Y-59587275D01*
X147760939Y-59578883D01*
X147762352Y-59577255D01*
X147762787Y-59575948D01*
X147764534Y-59573174D01*
X147802630Y-59496983D01*
X147808586Y-59481420D01*
X147808802Y-59478373D01*
X147809971Y-59475552D01*
X147811604Y-59458969D01*
X147811604Y-59420874D01*
X147809971Y-59404291D01*
X147808802Y-59401469D01*
X147808586Y-59398423D01*
X147802630Y-59382860D01*
X147764534Y-59306669D01*
X147762787Y-59303894D01*
X147762352Y-59302588D01*
X147760939Y-59300959D01*
X147755657Y-59292568D01*
X147747607Y-59285587D01*
X147740623Y-59277533D01*
X147732231Y-59272251D01*
X147730602Y-59270838D01*
X147729292Y-59270401D01*
X147726521Y-59268657D01*
X147650331Y-59230562D01*
X147634769Y-59224606D01*
X147631722Y-59224389D01*
X147628901Y-59223221D01*
X147612318Y-59221588D01*
X147518097Y-59221588D01*
X147485197Y-59205138D01*
X147469255Y-59173254D01*
X147485197Y-59141372D01*
X147518098Y-59124921D01*
X147592252Y-59124921D01*
X147650494Y-59154043D01*
X147666056Y-59159998D01*
X147699137Y-59162349D01*
X147730602Y-59151862D01*
X147755657Y-59130133D01*
X147770489Y-59100468D01*
X147772840Y-59067387D01*
X147763685Y-59039921D01*
X147984461Y-59039921D01*
X147984461Y-59458969D01*
X147986094Y-59475552D01*
X147987262Y-59478373D01*
X147987479Y-59481419D01*
X147993434Y-59496982D01*
X148031530Y-59573173D01*
X148033276Y-59575947D01*
X148033712Y-59577255D01*
X148035124Y-59578883D01*
X148040406Y-59587275D01*
X148048457Y-59594258D01*
X148055441Y-59602310D01*
X148063832Y-59607591D01*
X148065461Y-59609004D01*
X148066768Y-59609439D01*
X148069543Y-59611186D01*
X148145733Y-59649281D01*
X148161295Y-59655237D01*
X148164341Y-59655453D01*
X148167163Y-59656622D01*
X148183746Y-59658255D01*
X148298032Y-59658255D01*
X148314615Y-59656622D01*
X148317436Y-59655453D01*
X148320482Y-59655237D01*
X148336045Y-59649282D01*
X148358979Y-59637814D01*
X148365095Y-59643930D01*
X148395735Y-59656622D01*
X148428901Y-59656622D01*
X148459541Y-59643930D01*
X148482993Y-59620478D01*
X148495685Y-59589838D01*
X148497318Y-59573255D01*
X148497318Y-59039921D01*
X148495685Y-59023338D01*
X148595618Y-59023338D01*
X148595618Y-59056504D01*
X148608310Y-59087144D01*
X148631762Y-59110596D01*
X148662402Y-59123288D01*
X148678985Y-59124921D01*
X148708271Y-59124921D01*
X148708271Y-59573255D01*
X148709904Y-59589838D01*
X148722596Y-59620478D01*
X148746048Y-59643930D01*
X148776688Y-59656622D01*
X148809854Y-59656622D01*
X148840494Y-59643930D01*
X148863946Y-59620478D01*
X148876638Y-59589838D01*
X148878271Y-59573255D01*
X148878271Y-59124921D01*
X148983747Y-59124921D01*
X149000330Y-59123288D01*
X149030970Y-59110596D01*
X149054422Y-59087144D01*
X149067114Y-59056504D01*
X149067114Y-59023338D01*
X149054422Y-58992698D01*
X149030970Y-58969246D01*
X149000330Y-58956554D01*
X148983747Y-58954921D01*
X148878271Y-58954921D01*
X148878271Y-58907605D01*
X148894721Y-58874705D01*
X148927621Y-58858255D01*
X148983747Y-58858255D01*
X149000330Y-58856622D01*
X149030970Y-58843930D01*
X149054422Y-58820478D01*
X149067114Y-58789838D01*
X149067114Y-58773255D01*
X149774938Y-58773255D01*
X149774938Y-59573255D01*
X149776571Y-59589838D01*
X149789263Y-59620478D01*
X149812715Y-59643930D01*
X149843355Y-59656622D01*
X149876521Y-59656622D01*
X149907161Y-59643930D01*
X149930613Y-59620478D01*
X149943305Y-59589838D01*
X149944938Y-59573255D01*
X149944938Y-59093328D01*
X150243280Y-59615427D01*
X150245762Y-59618923D01*
X150246406Y-59620478D01*
X150247990Y-59622062D01*
X150252926Y-59629015D01*
X150261867Y-59635939D01*
X150269858Y-59643930D01*
X150274862Y-59646003D01*
X150279147Y-59649321D01*
X150290051Y-59652294D01*
X150300498Y-59656622D01*
X150305920Y-59656622D01*
X150311145Y-59658047D01*
X150322356Y-59656622D01*
X150333664Y-59656622D01*
X150338670Y-59654548D01*
X150344045Y-59653865D01*
X150353861Y-59648255D01*
X150364304Y-59643930D01*
X150368134Y-59640099D01*
X150372841Y-59637410D01*
X150379765Y-59628468D01*
X150387756Y-59620478D01*
X150389829Y-59615473D01*
X150393147Y-59611189D01*
X150396120Y-59600284D01*
X150400448Y-59589838D01*
X150401283Y-59581352D01*
X150401873Y-59579191D01*
X150401660Y-59577521D01*
X150402081Y-59573255D01*
X150402081Y-59154207D01*
X150574937Y-59154207D01*
X150574937Y-59458969D01*
X150576570Y-59475552D01*
X150577738Y-59478373D01*
X150577955Y-59481420D01*
X150583911Y-59496983D01*
X150622007Y-59573173D01*
X150623752Y-59575946D01*
X150624189Y-59577255D01*
X150625602Y-59578884D01*
X150630884Y-59587275D01*
X150638932Y-59594255D01*
X150645918Y-59602310D01*
X150654309Y-59607592D01*
X150655938Y-59609004D01*
X150657245Y-59609439D01*
X150660020Y-59611186D01*
X150736210Y-59649281D01*
X150751772Y-59655237D01*
X150754818Y-59655453D01*
X150757640Y-59656622D01*
X150774223Y-59658255D01*
X150926604Y-59658255D01*
X150943187Y-59656622D01*
X150946008Y-59655453D01*
X150949054Y-59655237D01*
X150964617Y-59649282D01*
X151040808Y-59611186D01*
X151054910Y-59602310D01*
X151076639Y-59577255D01*
X151087127Y-59545791D01*
X151084777Y-59512710D01*
X151069945Y-59483045D01*
X151044890Y-59461316D01*
X151013426Y-59450828D01*
X150980345Y-59453178D01*
X150964782Y-59459133D01*
X150906537Y-59488255D01*
X150794288Y-59488255D01*
X150761388Y-59471805D01*
X150744937Y-59438902D01*
X150744937Y-59376271D01*
X151057470Y-59313765D01*
X151057473Y-59313765D01*
X151057475Y-59313763D01*
X151057560Y-59313747D01*
X151073500Y-59308894D01*
X151080419Y-59304259D01*
X151088113Y-59301073D01*
X151094064Y-59295121D01*
X151101056Y-59290439D01*
X151105674Y-59283511D01*
X151111565Y-59277621D01*
X151114786Y-59269843D01*
X151119453Y-59262844D01*
X151121068Y-59254677D01*
X151124257Y-59246981D01*
X151125890Y-59230398D01*
X151125890Y-59154207D01*
X151124257Y-59137624D01*
X151123088Y-59134802D01*
X151122872Y-59131756D01*
X151116916Y-59116194D01*
X151084990Y-59052343D01*
X151223468Y-59052343D01*
X151227508Y-59068510D01*
X151417984Y-59601844D01*
X151425099Y-59616911D01*
X151427962Y-59620074D01*
X151429789Y-59623930D01*
X151439012Y-59632280D01*
X151447357Y-59641497D01*
X151451210Y-59643322D01*
X151454376Y-59646188D01*
X151466101Y-59650375D01*
X151477331Y-59655695D01*
X151481587Y-59655906D01*
X151485609Y-59657343D01*
X151498031Y-59656724D01*
X151510454Y-59657343D01*
X151514475Y-59655906D01*
X151518733Y-59655695D01*
X151529967Y-59650374D01*
X151541688Y-59646188D01*
X151544851Y-59643324D01*
X151548707Y-59641498D01*
X151557057Y-59632274D01*
X151566274Y-59623930D01*
X151568099Y-59620076D01*
X151570965Y-59616911D01*
X151578080Y-59601844D01*
X151590623Y-59566723D01*
X151832332Y-59566723D01*
X151833713Y-59578233D01*
X151833713Y-59589838D01*
X151835673Y-59594569D01*
X151836283Y-59599653D01*
X151841966Y-59609763D01*
X151846405Y-59620478D01*
X151850024Y-59624097D01*
X151852535Y-59628563D01*
X151861657Y-59635730D01*
X151869857Y-59643930D01*
X151874587Y-59645889D01*
X151878614Y-59649053D01*
X151889778Y-59652181D01*
X151900497Y-59656622D01*
X151908395Y-59657399D01*
X151910548Y-59658003D01*
X151912338Y-59657788D01*
X151917080Y-59658255D01*
X152336128Y-59658255D01*
X152352711Y-59656622D01*
X152383351Y-59643930D01*
X152406803Y-59620478D01*
X152419495Y-59589838D01*
X152419495Y-59556672D01*
X152406803Y-59526032D01*
X152383351Y-59502580D01*
X152352711Y-59489888D01*
X152336128Y-59488255D01*
X152091964Y-59488255D01*
X152174838Y-59382779D01*
X152517794Y-59382779D01*
X152517794Y-59458969D01*
X152519427Y-59475552D01*
X152520595Y-59478373D01*
X152520812Y-59481420D01*
X152526768Y-59496983D01*
X152564864Y-59573173D01*
X152566609Y-59575946D01*
X152567046Y-59577255D01*
X152568459Y-59578884D01*
X152573741Y-59587275D01*
X152581789Y-59594255D01*
X152588775Y-59602310D01*
X152597166Y-59607592D01*
X152598795Y-59609004D01*
X152600102Y-59609439D01*
X152602877Y-59611186D01*
X152679067Y-59649281D01*
X152694629Y-59655237D01*
X152697675Y-59655453D01*
X152700497Y-59656622D01*
X152717080Y-59658255D01*
X152907556Y-59658255D01*
X152924139Y-59656622D01*
X152926960Y-59655453D01*
X152930006Y-59655237D01*
X152945569Y-59649282D01*
X152947324Y-59648404D01*
X152967164Y-59656622D01*
X153000330Y-59656622D01*
X153030970Y-59643930D01*
X153054422Y-59620478D01*
X153067114Y-59589838D01*
X153068747Y-59573255D01*
X153068747Y-59154207D01*
X153067114Y-59137624D01*
X153065945Y-59134802D01*
X153065729Y-59131756D01*
X153059773Y-59116194D01*
X153021678Y-59040004D01*
X153019931Y-59037229D01*
X153019496Y-59035922D01*
X153018084Y-59034293D01*
X153012802Y-59025902D01*
X153009846Y-59023338D01*
X153167047Y-59023338D01*
X153167047Y-59056504D01*
X153179739Y-59087144D01*
X153203191Y-59110596D01*
X153233831Y-59123288D01*
X153250414Y-59124921D01*
X153279700Y-59124921D01*
X153279700Y-59458969D01*
X153281333Y-59475552D01*
X153282501Y-59478373D01*
X153282718Y-59481419D01*
X153288673Y-59496982D01*
X153326769Y-59573173D01*
X153328515Y-59575947D01*
X153328951Y-59577255D01*
X153330363Y-59578883D01*
X153335645Y-59587275D01*
X153343696Y-59594258D01*
X153350680Y-59602310D01*
X153359071Y-59607591D01*
X153360700Y-59609004D01*
X153362007Y-59609439D01*
X153364782Y-59611186D01*
X153440972Y-59649281D01*
X153456534Y-59655237D01*
X153459580Y-59655453D01*
X153462402Y-59656622D01*
X153478985Y-59658255D01*
X153555176Y-59658255D01*
X153571759Y-59656622D01*
X153602399Y-59643930D01*
X153625851Y-59620478D01*
X153638543Y-59589838D01*
X153638543Y-59556672D01*
X153625851Y-59526032D01*
X153602399Y-59502580D01*
X153571759Y-59489888D01*
X153555176Y-59488255D01*
X153499050Y-59488255D01*
X153466151Y-59471805D01*
X153449700Y-59438902D01*
X153449700Y-59124921D01*
X153555176Y-59124921D01*
X153571759Y-59123288D01*
X153602399Y-59110596D01*
X153625851Y-59087144D01*
X153638543Y-59056504D01*
X153638543Y-59023338D01*
X153625851Y-58992698D01*
X153602399Y-58969246D01*
X153571759Y-58956554D01*
X153555176Y-58954921D01*
X153449700Y-58954921D01*
X153449700Y-58773255D01*
X153448067Y-58756672D01*
X153435375Y-58726032D01*
X153411923Y-58702580D01*
X153381283Y-58689888D01*
X153348117Y-58689888D01*
X153317477Y-58702580D01*
X153294025Y-58726032D01*
X153281333Y-58756672D01*
X153279700Y-58773255D01*
X153279700Y-58954921D01*
X153250414Y-58954921D01*
X153233831Y-58956554D01*
X153203191Y-58969246D01*
X153179739Y-58992698D01*
X153167047Y-59023338D01*
X153009846Y-59023338D01*
X153004747Y-59018916D01*
X152997767Y-59010868D01*
X152989376Y-59005586D01*
X152987747Y-59004173D01*
X152986438Y-59003736D01*
X152983665Y-59001991D01*
X152907475Y-58963895D01*
X152891912Y-58957939D01*
X152888865Y-58957722D01*
X152886044Y-58956554D01*
X152869461Y-58954921D01*
X152717080Y-58954921D01*
X152700497Y-58956554D01*
X152697673Y-58957723D01*
X152694628Y-58957940D01*
X152679066Y-58963895D01*
X152602876Y-59001991D01*
X152588774Y-59010868D01*
X152567045Y-59035923D01*
X152556557Y-59067387D01*
X152558908Y-59100468D01*
X152573741Y-59130133D01*
X152598796Y-59151862D01*
X152630260Y-59162350D01*
X152663341Y-59159999D01*
X152678904Y-59154043D01*
X152737146Y-59124921D01*
X152849395Y-59124921D01*
X152882297Y-59141372D01*
X152898747Y-59174272D01*
X152898747Y-59177864D01*
X152887489Y-59183493D01*
X152717080Y-59183493D01*
X152700497Y-59185126D01*
X152697675Y-59186294D01*
X152694629Y-59186511D01*
X152679067Y-59192467D01*
X152602877Y-59230562D01*
X152600102Y-59232308D01*
X152598795Y-59232744D01*
X152597166Y-59234155D01*
X152588775Y-59239438D01*
X152581789Y-59247492D01*
X152573741Y-59254473D01*
X152568459Y-59262863D01*
X152567046Y-59264493D01*
X152566609Y-59265801D01*
X152564864Y-59268575D01*
X152526768Y-59344765D01*
X152520812Y-59360328D01*
X152520595Y-59363374D01*
X152519427Y-59366196D01*
X152517794Y-59382779D01*
X152174838Y-59382779D01*
X152402965Y-59092436D01*
X152405526Y-59088420D01*
X152406803Y-59087144D01*
X152407659Y-59085076D01*
X152411926Y-59078388D01*
X152415055Y-59067221D01*
X152419495Y-59056504D01*
X152419495Y-59051380D01*
X152420876Y-59046453D01*
X152419495Y-59034942D01*
X152419495Y-59023338D01*
X152417534Y-59018606D01*
X152416925Y-59013523D01*
X152411241Y-59003412D01*
X152406803Y-58992698D01*
X152403183Y-58989078D01*
X152400673Y-58984613D01*
X152391550Y-58977445D01*
X152383351Y-58969246D01*
X152378620Y-58967286D01*
X152374594Y-58964123D01*
X152363429Y-58960994D01*
X152352711Y-58956554D01*
X152344812Y-58955776D01*
X152342660Y-58955173D01*
X152340869Y-58955387D01*
X152336128Y-58954921D01*
X151917080Y-58954921D01*
X151900497Y-58956554D01*
X151869857Y-58969246D01*
X151846405Y-58992698D01*
X151833713Y-59023338D01*
X151833713Y-59056504D01*
X151846405Y-59087144D01*
X151869857Y-59110596D01*
X151900497Y-59123288D01*
X151917080Y-59124921D01*
X152161244Y-59124921D01*
X151850243Y-59520740D01*
X151847682Y-59524754D01*
X151846405Y-59526032D01*
X151845548Y-59528100D01*
X151841282Y-59534789D01*
X151838153Y-59545953D01*
X151833713Y-59556672D01*
X151833713Y-59561795D01*
X151832332Y-59566723D01*
X151590623Y-59566723D01*
X151768557Y-59068510D01*
X151772597Y-59052344D01*
X151770949Y-59019220D01*
X151756751Y-58989247D01*
X151732165Y-58966989D01*
X151700931Y-58955834D01*
X151667808Y-58957481D01*
X151637834Y-58971679D01*
X151615576Y-58996265D01*
X151608461Y-59011333D01*
X151498032Y-59320531D01*
X151387604Y-59011332D01*
X151380489Y-58996265D01*
X151358231Y-58971679D01*
X151328257Y-58957481D01*
X151295134Y-58955833D01*
X151263900Y-58966988D01*
X151239314Y-58989246D01*
X151225116Y-59019220D01*
X151223468Y-59052343D01*
X151084990Y-59052343D01*
X151078821Y-59040004D01*
X151077074Y-59037229D01*
X151076639Y-59035922D01*
X151075227Y-59034293D01*
X151069945Y-59025902D01*
X151061890Y-59018916D01*
X151054910Y-59010868D01*
X151046519Y-59005586D01*
X151044890Y-59004173D01*
X151043581Y-59003736D01*
X151040808Y-59001991D01*
X150964618Y-58963895D01*
X150949055Y-58957939D01*
X150946008Y-58957722D01*
X150943187Y-58956554D01*
X150926604Y-58954921D01*
X150774223Y-58954921D01*
X150757640Y-58956554D01*
X150754816Y-58957723D01*
X150751771Y-58957940D01*
X150736209Y-58963895D01*
X150660019Y-59001991D01*
X150657243Y-59003738D01*
X150655939Y-59004173D01*
X150654314Y-59005582D01*
X150645917Y-59010868D01*
X150638931Y-59018922D01*
X150630884Y-59025902D01*
X150625601Y-59034293D01*
X150624188Y-59035923D01*
X150623751Y-59037231D01*
X150622007Y-59040003D01*
X150583911Y-59116193D01*
X150577955Y-59131756D01*
X150577738Y-59134803D01*
X150576570Y-59137624D01*
X150574937Y-59154207D01*
X150402081Y-59154207D01*
X150402081Y-58773255D01*
X150400448Y-58756672D01*
X150387756Y-58726032D01*
X150364304Y-58702580D01*
X150333664Y-58689888D01*
X150300498Y-58689888D01*
X150269858Y-58702580D01*
X150246406Y-58726032D01*
X150233714Y-58756672D01*
X150232081Y-58773255D01*
X150232081Y-59253181D01*
X149933739Y-58731083D01*
X149931256Y-58727586D01*
X149930613Y-58726032D01*
X149929028Y-58724447D01*
X149924093Y-58717495D01*
X149915151Y-58710570D01*
X149907161Y-58702580D01*
X149902156Y-58700506D01*
X149897872Y-58697189D01*
X149886967Y-58694215D01*
X149876521Y-58689888D01*
X149871099Y-58689888D01*
X149865874Y-58688463D01*
X149854663Y-58689888D01*
X149843355Y-58689888D01*
X149838348Y-58691961D01*
X149832974Y-58692645D01*
X149823157Y-58698254D01*
X149812715Y-58702580D01*
X149808884Y-58706410D01*
X149804178Y-58709100D01*
X149797253Y-58718041D01*
X149789263Y-58726032D01*
X149787189Y-58731036D01*
X149783872Y-58735321D01*
X149780898Y-58746225D01*
X149776571Y-58756672D01*
X149775735Y-58765157D01*
X149775146Y-58767319D01*
X149775358Y-58768988D01*
X149774938Y-58773255D01*
X149067114Y-58773255D01*
X149067114Y-58756672D01*
X149054422Y-58726032D01*
X149030970Y-58702580D01*
X149000330Y-58689888D01*
X148983747Y-58688255D01*
X148907556Y-58688255D01*
X148890973Y-58689888D01*
X148888151Y-58691056D01*
X148885105Y-58691273D01*
X148869543Y-58697229D01*
X148793353Y-58735324D01*
X148790578Y-58737070D01*
X148789271Y-58737506D01*
X148787642Y-58738918D01*
X148779251Y-58744200D01*
X148772267Y-58752251D01*
X148764216Y-58759235D01*
X148758934Y-58767626D01*
X148757522Y-58769255D01*
X148757086Y-58770562D01*
X148755340Y-58773337D01*
X148717245Y-58849527D01*
X148711289Y-58865089D01*
X148711072Y-58868135D01*
X148709904Y-58870957D01*
X148708271Y-58887540D01*
X148708271Y-58954921D01*
X148678985Y-58954921D01*
X148662402Y-58956554D01*
X148631762Y-58969246D01*
X148608310Y-58992698D01*
X148595618Y-59023338D01*
X148495685Y-59023338D01*
X148482993Y-58992698D01*
X148459541Y-58969246D01*
X148428901Y-58956554D01*
X148395735Y-58956554D01*
X148365095Y-58969246D01*
X148341643Y-58992698D01*
X148328951Y-59023338D01*
X148327318Y-59039921D01*
X148327318Y-59461856D01*
X148323873Y-59465301D01*
X148277965Y-59488255D01*
X148203811Y-59488255D01*
X148170912Y-59471805D01*
X148154461Y-59438902D01*
X148154461Y-59039921D01*
X148152828Y-59023338D01*
X148140136Y-58992698D01*
X148116684Y-58969246D01*
X148086044Y-58956554D01*
X148052878Y-58956554D01*
X148022238Y-58969246D01*
X147998786Y-58992698D01*
X147986094Y-59023338D01*
X147984461Y-59039921D01*
X147763685Y-59039921D01*
X147762352Y-59035923D01*
X147740623Y-59010868D01*
X147726522Y-59001991D01*
X147650332Y-58963895D01*
X147634769Y-58957939D01*
X147631721Y-58957722D01*
X147628901Y-58956554D01*
X147612318Y-58954921D01*
X147498032Y-58954921D01*
X147481449Y-58956554D01*
X147478625Y-58957723D01*
X147475580Y-58957940D01*
X147460018Y-58963895D01*
X147383828Y-59001991D01*
X147381052Y-59003738D01*
X147379748Y-59004173D01*
X147378123Y-59005582D01*
X147369726Y-59010868D01*
X147362740Y-59018922D01*
X147354693Y-59025902D01*
X147349410Y-59034293D01*
X147347997Y-59035923D01*
X147347560Y-59037231D01*
X147345816Y-59040003D01*
X147307720Y-59116193D01*
X147301764Y-59131756D01*
X147301547Y-59134803D01*
X147300379Y-59137624D01*
X147298746Y-59154207D01*
X147125889Y-59154207D01*
X147125889Y-59039921D01*
X147124256Y-59023338D01*
X147111564Y-58992698D01*
X147088112Y-58969246D01*
X147057472Y-58956554D01*
X147024306Y-58956554D01*
X146993666Y-58969246D01*
X146970214Y-58992698D01*
X146957522Y-59023338D01*
X146955889Y-59039921D01*
X146955889Y-59461856D01*
X146952444Y-59465301D01*
X146906536Y-59488255D01*
X146832382Y-59488255D01*
X146799483Y-59471805D01*
X146783032Y-59438902D01*
X146783032Y-59039921D01*
X146781399Y-59023338D01*
X146768707Y-58992698D01*
X146745255Y-58969246D01*
X146714615Y-58956554D01*
X146681449Y-58956554D01*
X146650809Y-58969246D01*
X146627357Y-58992698D01*
X146614665Y-59023338D01*
X146613032Y-59039921D01*
X146362420Y-59039921D01*
X146503076Y-58818890D01*
X146510601Y-58804022D01*
X146516344Y-58771359D01*
X146509149Y-58738982D01*
X146490113Y-58711825D01*
X146462132Y-58694019D01*
X146429468Y-58688277D01*
X146397092Y-58695471D01*
X146369934Y-58714507D01*
X146359654Y-58727621D01*
X146164698Y-59033979D01*
X145969743Y-58727620D01*
X145959462Y-58714507D01*
X145932305Y-58695471D01*
X145899928Y-58688276D01*
X145867265Y-58694019D01*
X145839284Y-58711825D01*
X145820248Y-58738982D01*
X145813053Y-58771359D01*
X145724164Y-58771359D01*
X145724164Y-58599366D01*
X153727432Y-58599366D01*
X153727432Y-59747144D01*
G37*
D11*
X147651027Y-109929800D02*
X147722455Y-109953609D01*
X147722455Y-109953609D02*
X147841503Y-109953609D01*
X147841503Y-109953609D02*
X147889122Y-109929800D01*
X147889122Y-109929800D02*
X147912931Y-109905990D01*
X147912931Y-109905990D02*
X147936741Y-109858371D01*
X147936741Y-109858371D02*
X147936741Y-109810752D01*
X147936741Y-109810752D02*
X147912931Y-109763133D01*
X147912931Y-109763133D02*
X147889122Y-109739323D01*
X147889122Y-109739323D02*
X147841503Y-109715514D01*
X147841503Y-109715514D02*
X147746265Y-109691704D01*
X147746265Y-109691704D02*
X147698646Y-109667895D01*
X147698646Y-109667895D02*
X147674836Y-109644085D01*
X147674836Y-109644085D02*
X147651027Y-109596466D01*
X147651027Y-109596466D02*
X147651027Y-109548847D01*
X147651027Y-109548847D02*
X147674836Y-109501228D01*
X147674836Y-109501228D02*
X147698646Y-109477419D01*
X147698646Y-109477419D02*
X147746265Y-109453609D01*
X147746265Y-109453609D02*
X147865312Y-109453609D01*
X147865312Y-109453609D02*
X147936741Y-109477419D01*
X148103407Y-109453609D02*
X148222455Y-109953609D01*
X148222455Y-109953609D02*
X148317693Y-109596466D01*
X148317693Y-109596466D02*
X148412931Y-109953609D01*
X148412931Y-109953609D02*
X148531979Y-109453609D01*
X148722455Y-109953609D02*
X148722455Y-109453609D01*
X148722455Y-109453609D02*
X148841503Y-109453609D01*
X148841503Y-109453609D02*
X148912931Y-109477419D01*
X148912931Y-109477419D02*
X148960550Y-109525038D01*
X148960550Y-109525038D02*
X148984360Y-109572657D01*
X148984360Y-109572657D02*
X149008169Y-109667895D01*
X149008169Y-109667895D02*
X149008169Y-109739323D01*
X149008169Y-109739323D02*
X148984360Y-109834561D01*
X148984360Y-109834561D02*
X148960550Y-109882180D01*
X148960550Y-109882180D02*
X148912931Y-109929800D01*
X148912931Y-109929800D02*
X148841503Y-109953609D01*
X148841503Y-109953609D02*
X148722455Y-109953609D01*
X149222455Y-109953609D02*
X149222455Y-109453609D01*
X149555788Y-109453609D02*
X149651026Y-109453609D01*
X149651026Y-109453609D02*
X149698645Y-109477419D01*
X149698645Y-109477419D02*
X149746264Y-109525038D01*
X149746264Y-109525038D02*
X149770074Y-109620276D01*
X149770074Y-109620276D02*
X149770074Y-109786942D01*
X149770074Y-109786942D02*
X149746264Y-109882180D01*
X149746264Y-109882180D02*
X149698645Y-109929800D01*
X149698645Y-109929800D02*
X149651026Y-109953609D01*
X149651026Y-109953609D02*
X149555788Y-109953609D01*
X149555788Y-109953609D02*
X149508169Y-109929800D01*
X149508169Y-109929800D02*
X149460550Y-109882180D01*
X149460550Y-109882180D02*
X149436741Y-109786942D01*
X149436741Y-109786942D02*
X149436741Y-109620276D01*
X149436741Y-109620276D02*
X149460550Y-109525038D01*
X149460550Y-109525038D02*
X149508169Y-109477419D01*
X149508169Y-109477419D02*
X149555788Y-109453609D01*
D14*
X138041056Y-105318247D02*
X138084830Y-105395692D01*
X138084830Y-105395692D02*
X138088197Y-105432731D01*
X138088197Y-105432731D02*
X138074728Y-105486606D01*
X138074728Y-105486606D02*
X138024220Y-105537114D01*
X138024220Y-105537114D02*
X137970346Y-105550583D01*
X137970346Y-105550583D02*
X137933307Y-105547215D01*
X137933307Y-105547215D02*
X137876065Y-105523645D01*
X137876065Y-105523645D02*
X137714440Y-105362021D01*
X137714440Y-105362021D02*
X138067994Y-105008467D01*
X138067994Y-105008467D02*
X138209415Y-105149889D01*
X138209415Y-105149889D02*
X138232985Y-105207131D01*
X138232985Y-105207131D02*
X138236352Y-105244170D01*
X138236352Y-105244170D02*
X138222884Y-105298044D01*
X138222884Y-105298044D02*
X138189212Y-105331716D01*
X138189212Y-105331716D02*
X138135337Y-105345185D01*
X138135337Y-105345185D02*
X138098298Y-105341818D01*
X138098298Y-105341818D02*
X138041056Y-105318247D01*
X138041056Y-105318247D02*
X137899635Y-105176826D01*
X138360938Y-106008518D02*
X138118501Y-105766082D01*
X138239720Y-105887300D02*
X138593273Y-105533747D01*
X138593273Y-105533747D02*
X138502359Y-105543848D01*
X138502359Y-105543848D02*
X138428281Y-105537114D01*
X138428281Y-105537114D02*
X138371039Y-105513544D01*
X139098350Y-106038823D02*
X138896319Y-105836793D01*
X138896319Y-105836793D02*
X138707757Y-105984948D01*
X138707757Y-105984948D02*
X138744796Y-105988316D01*
X138744796Y-105988316D02*
X138802038Y-106011886D01*
X138802038Y-106011886D02*
X138903053Y-106112901D01*
X138903053Y-106112901D02*
X138926624Y-106170143D01*
X138926624Y-106170143D02*
X138929991Y-106207182D01*
X138929991Y-106207182D02*
X138916522Y-106261057D01*
X138916522Y-106261057D02*
X138832343Y-106345236D01*
X138832343Y-106345236D02*
X138778468Y-106358705D01*
X138778468Y-106358705D02*
X138741429Y-106355338D01*
X138741429Y-106355338D02*
X138684187Y-106331767D01*
X138684187Y-106331767D02*
X138583172Y-106230752D01*
X138583172Y-106230752D02*
X138559602Y-106173510D01*
X138559602Y-106173510D02*
X138556234Y-106136471D01*
X156208247Y-62868943D02*
X156285692Y-62825169D01*
X156285692Y-62825169D02*
X156322731Y-62821802D01*
X156322731Y-62821802D02*
X156376606Y-62835271D01*
X156376606Y-62835271D02*
X156427114Y-62885779D01*
X156427114Y-62885779D02*
X156440583Y-62939653D01*
X156440583Y-62939653D02*
X156437215Y-62976692D01*
X156437215Y-62976692D02*
X156413645Y-63033934D01*
X156413645Y-63033934D02*
X156252021Y-63195559D01*
X156252021Y-63195559D02*
X155898467Y-62842005D01*
X155898467Y-62842005D02*
X156039889Y-62700584D01*
X156039889Y-62700584D02*
X156097131Y-62677014D01*
X156097131Y-62677014D02*
X156134170Y-62673647D01*
X156134170Y-62673647D02*
X156188044Y-62687115D01*
X156188044Y-62687115D02*
X156221716Y-62720787D01*
X156221716Y-62720787D02*
X156235185Y-62774662D01*
X156235185Y-62774662D02*
X156231818Y-62811701D01*
X156231818Y-62811701D02*
X156208247Y-62868943D01*
X156208247Y-62868943D02*
X156066826Y-63010364D01*
X156898518Y-62549061D02*
X156656082Y-62791498D01*
X156777300Y-62670279D02*
X156423747Y-62316726D01*
X156423747Y-62316726D02*
X156433848Y-62407640D01*
X156433848Y-62407640D02*
X156427114Y-62481718D01*
X156427114Y-62481718D02*
X156403544Y-62538960D01*
X156686387Y-62054086D02*
X156949026Y-61791446D01*
X156949026Y-61791446D02*
X156942292Y-62067555D01*
X156942292Y-62067555D02*
X157002901Y-62006946D01*
X157002901Y-62006946D02*
X157060143Y-61983375D01*
X157060143Y-61983375D02*
X157097182Y-61980008D01*
X157097182Y-61980008D02*
X157151057Y-61993477D01*
X157151057Y-61993477D02*
X157235236Y-62077656D01*
X157235236Y-62077656D02*
X157248705Y-62131531D01*
X157248705Y-62131531D02*
X157245338Y-62168570D01*
X157245338Y-62168570D02*
X157221767Y-62225812D01*
X157221767Y-62225812D02*
X157100549Y-62347030D01*
X157100549Y-62347030D02*
X157043307Y-62370601D01*
X157043307Y-62370601D02*
X157006268Y-62373968D01*
X138005252Y-59780802D02*
X138207283Y-59982833D01*
X137863831Y-59841412D02*
X138358806Y-59629280D01*
X138358806Y-59629280D02*
X138146674Y-60124254D01*
X138550735Y-60124254D02*
X138527165Y-60067013D01*
X138527165Y-60067013D02*
X138523798Y-60029974D01*
X138523798Y-60029974D02*
X138537266Y-59976099D01*
X138537266Y-59976099D02*
X138554102Y-59959263D01*
X138554102Y-59959263D02*
X138607977Y-59945794D01*
X138607977Y-59945794D02*
X138645016Y-59949161D01*
X138645016Y-59949161D02*
X138702258Y-59972732D01*
X138702258Y-59972732D02*
X138783070Y-60053544D01*
X138783070Y-60053544D02*
X138806640Y-60110786D01*
X138806640Y-60110786D02*
X138810008Y-60147825D01*
X138810008Y-60147825D02*
X138796539Y-60201700D01*
X138796539Y-60201700D02*
X138779703Y-60218535D01*
X138779703Y-60218535D02*
X138725828Y-60232004D01*
X138725828Y-60232004D02*
X138688789Y-60228637D01*
X138688789Y-60228637D02*
X138631547Y-60205067D01*
X138631547Y-60205067D02*
X138550735Y-60124254D01*
X138550735Y-60124254D02*
X138493493Y-60100684D01*
X138493493Y-60100684D02*
X138456454Y-60097317D01*
X138456454Y-60097317D02*
X138402579Y-60110786D01*
X138402579Y-60110786D02*
X138335236Y-60178129D01*
X138335236Y-60178129D02*
X138321767Y-60232004D01*
X138321767Y-60232004D02*
X138325134Y-60269043D01*
X138325134Y-60269043D02*
X138348705Y-60326285D01*
X138348705Y-60326285D02*
X138429517Y-60407097D01*
X138429517Y-60407097D02*
X138486759Y-60430667D01*
X138486759Y-60430667D02*
X138523798Y-60434035D01*
X138523798Y-60434035D02*
X138577672Y-60420566D01*
X138577672Y-60420566D02*
X138645016Y-60353222D01*
X138645016Y-60353222D02*
X138658485Y-60299348D01*
X138658485Y-60299348D02*
X138655117Y-60262309D01*
X138655117Y-60262309D02*
X138631547Y-60205067D01*
X156380802Y-85724747D02*
X156582833Y-85522716D01*
X156441412Y-85866168D02*
X156229280Y-85371193D01*
X156229280Y-85371193D02*
X156724254Y-85583325D01*
X156714153Y-84886320D02*
X156512122Y-85088350D01*
X156512122Y-85088350D02*
X156660278Y-85276912D01*
X156660278Y-85276912D02*
X156663645Y-85239873D01*
X156663645Y-85239873D02*
X156687216Y-85182631D01*
X156687216Y-85182631D02*
X156788231Y-85081616D01*
X156788231Y-85081616D02*
X156845473Y-85058046D01*
X156845473Y-85058046D02*
X156882512Y-85054678D01*
X156882512Y-85054678D02*
X156936387Y-85068147D01*
X156936387Y-85068147D02*
X157020566Y-85152327D01*
X157020566Y-85152327D02*
X157034035Y-85206201D01*
X157034035Y-85206201D02*
X157030667Y-85243240D01*
X157030667Y-85243240D02*
X157007097Y-85300482D01*
X157007097Y-85300482D02*
X156906082Y-85401498D01*
X156906082Y-85401498D02*
X156848840Y-85425068D01*
X156848840Y-85425068D02*
X156811801Y-85428435D01*
X137965252Y-62310802D02*
X138167283Y-62512833D01*
X137823831Y-62371412D02*
X138318806Y-62159280D01*
X138318806Y-62159280D02*
X138106674Y-62654254D01*
X138268298Y-62815879D02*
X138349111Y-62896691D01*
X138349111Y-62896691D02*
X138406353Y-62920261D01*
X138406353Y-62920261D02*
X138443392Y-62923629D01*
X138443392Y-62923629D02*
X138534305Y-62913527D01*
X138534305Y-62913527D02*
X138621852Y-62866387D01*
X138621852Y-62866387D02*
X138756539Y-62731700D01*
X138756539Y-62731700D02*
X138770008Y-62677825D01*
X138770008Y-62677825D02*
X138766640Y-62640786D01*
X138766640Y-62640786D02*
X138743070Y-62583544D01*
X138743070Y-62583544D02*
X138662258Y-62502732D01*
X138662258Y-62502732D02*
X138605016Y-62479161D01*
X138605016Y-62479161D02*
X138567977Y-62475794D01*
X138567977Y-62475794D02*
X138514102Y-62489263D01*
X138514102Y-62489263D02*
X138429923Y-62573442D01*
X138429923Y-62573442D02*
X138416454Y-62627317D01*
X138416454Y-62627317D02*
X138419821Y-62664356D01*
X138419821Y-62664356D02*
X138443392Y-62721598D01*
X138443392Y-62721598D02*
X138524204Y-62802410D01*
X138524204Y-62802410D02*
X138581446Y-62825980D01*
X138581446Y-62825980D02*
X138618485Y-62829348D01*
X138618485Y-62829348D02*
X138672359Y-62815879D01*
X156370802Y-95874747D02*
X156572833Y-95672716D01*
X156431412Y-96016168D02*
X156219280Y-95521193D01*
X156219280Y-95521193D02*
X156714254Y-95733325D01*
X157077909Y-95369670D02*
X156835473Y-95612107D01*
X156956691Y-95490888D02*
X156603138Y-95137335D01*
X156603138Y-95137335D02*
X156613239Y-95228249D01*
X156613239Y-95228249D02*
X156606505Y-95302327D01*
X156606505Y-95302327D02*
X156582935Y-95359569D01*
X156218247Y-70518943D02*
X156295692Y-70475169D01*
X156295692Y-70475169D02*
X156332731Y-70471802D01*
X156332731Y-70471802D02*
X156386606Y-70485271D01*
X156386606Y-70485271D02*
X156437114Y-70535779D01*
X156437114Y-70535779D02*
X156450583Y-70589653D01*
X156450583Y-70589653D02*
X156447215Y-70626692D01*
X156447215Y-70626692D02*
X156423645Y-70683934D01*
X156423645Y-70683934D02*
X156262021Y-70845559D01*
X156262021Y-70845559D02*
X155908467Y-70492005D01*
X155908467Y-70492005D02*
X156049889Y-70350584D01*
X156049889Y-70350584D02*
X156107131Y-70327014D01*
X156107131Y-70327014D02*
X156144170Y-70323647D01*
X156144170Y-70323647D02*
X156198044Y-70337115D01*
X156198044Y-70337115D02*
X156231716Y-70370787D01*
X156231716Y-70370787D02*
X156245185Y-70424662D01*
X156245185Y-70424662D02*
X156241818Y-70461701D01*
X156241818Y-70461701D02*
X156218247Y-70518943D01*
X156218247Y-70518943D02*
X156076826Y-70660364D01*
X156908518Y-70199061D02*
X156666082Y-70441498D01*
X156787300Y-70320279D02*
X156433747Y-69966726D01*
X156433747Y-69966726D02*
X156443848Y-70057640D01*
X156443848Y-70057640D02*
X156437114Y-70131718D01*
X156437114Y-70131718D02*
X156413544Y-70188960D01*
X156817605Y-69582868D02*
X156858011Y-69542462D01*
X156858011Y-69542462D02*
X156915253Y-69518891D01*
X156915253Y-69518891D02*
X156952292Y-69515524D01*
X156952292Y-69515524D02*
X157006167Y-69528993D01*
X157006167Y-69528993D02*
X157093713Y-69576133D01*
X157093713Y-69576133D02*
X157177893Y-69660313D01*
X157177893Y-69660313D02*
X157225033Y-69747859D01*
X157225033Y-69747859D02*
X157238502Y-69801734D01*
X157238502Y-69801734D02*
X157235135Y-69838773D01*
X157235135Y-69838773D02*
X157211564Y-69896015D01*
X157211564Y-69896015D02*
X157171158Y-69936421D01*
X157171158Y-69936421D02*
X157113916Y-69959991D01*
X157113916Y-69959991D02*
X157076877Y-69963359D01*
X157076877Y-69963359D02*
X157023003Y-69949890D01*
X157023003Y-69949890D02*
X156935456Y-69902749D01*
X156935456Y-69902749D02*
X156851277Y-69818570D01*
X156851277Y-69818570D02*
X156804136Y-69731023D01*
X156804136Y-69731023D02*
X156790668Y-69677149D01*
X156790668Y-69677149D02*
X156794035Y-69640110D01*
X156794035Y-69640110D02*
X156817605Y-69582868D01*
X156360802Y-93324747D02*
X156562833Y-93122716D01*
X156421412Y-93466168D02*
X156209280Y-92971193D01*
X156209280Y-92971193D02*
X156704254Y-93183325D01*
X156505591Y-92742225D02*
X156508958Y-92705186D01*
X156508958Y-92705186D02*
X156532529Y-92647944D01*
X156532529Y-92647944D02*
X156633544Y-92546929D01*
X156633544Y-92546929D02*
X156690786Y-92523359D01*
X156690786Y-92523359D02*
X156727825Y-92519991D01*
X156727825Y-92519991D02*
X156781700Y-92533460D01*
X156781700Y-92533460D02*
X156815371Y-92567132D01*
X156815371Y-92567132D02*
X156845676Y-92637843D01*
X156845676Y-92637843D02*
X156805270Y-93082310D01*
X156805270Y-93082310D02*
X157067909Y-92819670D01*
D11*
X142955312Y-109442466D02*
X142879122Y-109409133D01*
X142879122Y-109409133D02*
X142764836Y-109409133D01*
X142764836Y-109409133D02*
X142650550Y-109442466D01*
X142650550Y-109442466D02*
X142574360Y-109509133D01*
X142574360Y-109509133D02*
X142536265Y-109575800D01*
X142536265Y-109575800D02*
X142498169Y-109709133D01*
X142498169Y-109709133D02*
X142498169Y-109809133D01*
X142498169Y-109809133D02*
X142536265Y-109942466D01*
X142536265Y-109942466D02*
X142574360Y-110009133D01*
X142574360Y-110009133D02*
X142650550Y-110075800D01*
X142650550Y-110075800D02*
X142764836Y-110109133D01*
X142764836Y-110109133D02*
X142841027Y-110109133D01*
X142841027Y-110109133D02*
X142955312Y-110075800D01*
X142955312Y-110075800D02*
X142993408Y-110042466D01*
X142993408Y-110042466D02*
X142993408Y-109809133D01*
X142993408Y-109809133D02*
X142841027Y-109809133D01*
X143336265Y-110109133D02*
X143336265Y-109409133D01*
X143336265Y-109409133D02*
X143793408Y-110109133D01*
X143793408Y-110109133D02*
X143793408Y-109409133D01*
X144174360Y-110109133D02*
X144174360Y-109409133D01*
X144174360Y-109409133D02*
X144364836Y-109409133D01*
X144364836Y-109409133D02*
X144479122Y-109442466D01*
X144479122Y-109442466D02*
X144555312Y-109509133D01*
X144555312Y-109509133D02*
X144593407Y-109575800D01*
X144593407Y-109575800D02*
X144631503Y-109709133D01*
X144631503Y-109709133D02*
X144631503Y-109809133D01*
X144631503Y-109809133D02*
X144593407Y-109942466D01*
X144593407Y-109942466D02*
X144555312Y-110009133D01*
X144555312Y-110009133D02*
X144479122Y-110075800D01*
X144479122Y-110075800D02*
X144364836Y-110109133D01*
X144364836Y-110109133D02*
X144174360Y-110109133D01*
D14*
X156360802Y-98394747D02*
X156562833Y-98192716D01*
X156421412Y-98536168D02*
X156209280Y-98041193D01*
X156209280Y-98041193D02*
X156704254Y-98253325D01*
X156572935Y-97677538D02*
X156613341Y-97637132D01*
X156613341Y-97637132D02*
X156670583Y-97613562D01*
X156670583Y-97613562D02*
X156707622Y-97610195D01*
X156707622Y-97610195D02*
X156761496Y-97623663D01*
X156761496Y-97623663D02*
X156849043Y-97670804D01*
X156849043Y-97670804D02*
X156933222Y-97754983D01*
X156933222Y-97754983D02*
X156980363Y-97842530D01*
X156980363Y-97842530D02*
X156993832Y-97896404D01*
X156993832Y-97896404D02*
X156990464Y-97933443D01*
X156990464Y-97933443D02*
X156966894Y-97990685D01*
X156966894Y-97990685D02*
X156926488Y-98031091D01*
X156926488Y-98031091D02*
X156869246Y-98054662D01*
X156869246Y-98054662D02*
X156832207Y-98058029D01*
X156832207Y-98058029D02*
X156778332Y-98044560D01*
X156778332Y-98044560D02*
X156690786Y-97997420D01*
X156690786Y-97997420D02*
X156606606Y-97913240D01*
X156606606Y-97913240D02*
X156559466Y-97825694D01*
X156559466Y-97825694D02*
X156545997Y-97771819D01*
X156545997Y-97771819D02*
X156549364Y-97734780D01*
X156549364Y-97734780D02*
X156572935Y-97677538D01*
D11*
X144035312Y-61932466D02*
X143959122Y-61899133D01*
X143959122Y-61899133D02*
X143844836Y-61899133D01*
X143844836Y-61899133D02*
X143730550Y-61932466D01*
X143730550Y-61932466D02*
X143654360Y-61999133D01*
X143654360Y-61999133D02*
X143616265Y-62065800D01*
X143616265Y-62065800D02*
X143578169Y-62199133D01*
X143578169Y-62199133D02*
X143578169Y-62299133D01*
X143578169Y-62299133D02*
X143616265Y-62432466D01*
X143616265Y-62432466D02*
X143654360Y-62499133D01*
X143654360Y-62499133D02*
X143730550Y-62565800D01*
X143730550Y-62565800D02*
X143844836Y-62599133D01*
X143844836Y-62599133D02*
X143921027Y-62599133D01*
X143921027Y-62599133D02*
X144035312Y-62565800D01*
X144035312Y-62565800D02*
X144073408Y-62532466D01*
X144073408Y-62532466D02*
X144073408Y-62299133D01*
X144073408Y-62299133D02*
X143921027Y-62299133D01*
X144416265Y-62599133D02*
X144416265Y-61899133D01*
X144416265Y-61899133D02*
X144873408Y-62599133D01*
X144873408Y-62599133D02*
X144873408Y-61899133D01*
X145254360Y-62599133D02*
X145254360Y-61899133D01*
X145254360Y-61899133D02*
X145444836Y-61899133D01*
X145444836Y-61899133D02*
X145559122Y-61932466D01*
X145559122Y-61932466D02*
X145635312Y-61999133D01*
X145635312Y-61999133D02*
X145673407Y-62065800D01*
X145673407Y-62065800D02*
X145711503Y-62199133D01*
X145711503Y-62199133D02*
X145711503Y-62299133D01*
X145711503Y-62299133D02*
X145673407Y-62432466D01*
X145673407Y-62432466D02*
X145635312Y-62499133D01*
X145635312Y-62499133D02*
X145559122Y-62565800D01*
X145559122Y-62565800D02*
X145444836Y-62599133D01*
X145444836Y-62599133D02*
X145254360Y-62599133D01*
D14*
X137855252Y-69690802D02*
X138057283Y-69892833D01*
X137713831Y-69751412D02*
X138208806Y-69539280D01*
X138208806Y-69539280D02*
X137996674Y-70034254D01*
X138360329Y-70397909D02*
X138117892Y-70155473D01*
X138239111Y-70276691D02*
X138592664Y-69923138D01*
X138592664Y-69923138D02*
X138501750Y-69933239D01*
X138501750Y-69933239D02*
X138427672Y-69926505D01*
X138427672Y-69926505D02*
X138370430Y-69902935D01*
X138841835Y-70239652D02*
X138878874Y-70243020D01*
X138878874Y-70243020D02*
X138936116Y-70266590D01*
X138936116Y-70266590D02*
X139037131Y-70367605D01*
X139037131Y-70367605D02*
X139060702Y-70424847D01*
X139060702Y-70424847D02*
X139064069Y-70461886D01*
X139064069Y-70461886D02*
X139050600Y-70515761D01*
X139050600Y-70515761D02*
X139016928Y-70549433D01*
X139016928Y-70549433D02*
X138946218Y-70579737D01*
X138946218Y-70579737D02*
X138501751Y-70539331D01*
X138501751Y-70539331D02*
X138764390Y-70801971D01*
X156208247Y-67968943D02*
X156285692Y-67925169D01*
X156285692Y-67925169D02*
X156322731Y-67921802D01*
X156322731Y-67921802D02*
X156376606Y-67935271D01*
X156376606Y-67935271D02*
X156427114Y-67985779D01*
X156427114Y-67985779D02*
X156440583Y-68039653D01*
X156440583Y-68039653D02*
X156437215Y-68076692D01*
X156437215Y-68076692D02*
X156413645Y-68133934D01*
X156413645Y-68133934D02*
X156252021Y-68295559D01*
X156252021Y-68295559D02*
X155898467Y-67942005D01*
X155898467Y-67942005D02*
X156039889Y-67800584D01*
X156039889Y-67800584D02*
X156097131Y-67777014D01*
X156097131Y-67777014D02*
X156134170Y-67773647D01*
X156134170Y-67773647D02*
X156188044Y-67787115D01*
X156188044Y-67787115D02*
X156221716Y-67820787D01*
X156221716Y-67820787D02*
X156235185Y-67874662D01*
X156235185Y-67874662D02*
X156231818Y-67911701D01*
X156231818Y-67911701D02*
X156208247Y-67968943D01*
X156208247Y-67968943D02*
X156066826Y-68110364D01*
X156898518Y-67649061D02*
X156656082Y-67891498D01*
X156777300Y-67770279D02*
X156423747Y-67416726D01*
X156423747Y-67416726D02*
X156433848Y-67507640D01*
X156433848Y-67507640D02*
X156427114Y-67581718D01*
X156427114Y-67581718D02*
X156403544Y-67638960D01*
X157302580Y-67245000D02*
X157060143Y-67487436D01*
X157181361Y-67366218D02*
X156827808Y-67012665D01*
X156827808Y-67012665D02*
X156837910Y-67103578D01*
X156837910Y-67103578D02*
X156831175Y-67177656D01*
X156831175Y-67177656D02*
X156807605Y-67234898D01*
X138311056Y-92728247D02*
X138354830Y-92805692D01*
X138354830Y-92805692D02*
X138358197Y-92842731D01*
X138358197Y-92842731D02*
X138344728Y-92896606D01*
X138344728Y-92896606D02*
X138294220Y-92947114D01*
X138294220Y-92947114D02*
X138240346Y-92960583D01*
X138240346Y-92960583D02*
X138203307Y-92957215D01*
X138203307Y-92957215D02*
X138146065Y-92933645D01*
X138146065Y-92933645D02*
X137984440Y-92772021D01*
X137984440Y-92772021D02*
X138337994Y-92418467D01*
X138337994Y-92418467D02*
X138479415Y-92559889D01*
X138479415Y-92559889D02*
X138502985Y-92617131D01*
X138502985Y-92617131D02*
X138506352Y-92654170D01*
X138506352Y-92654170D02*
X138492884Y-92708044D01*
X138492884Y-92708044D02*
X138459212Y-92741716D01*
X138459212Y-92741716D02*
X138405337Y-92755185D01*
X138405337Y-92755185D02*
X138368298Y-92751818D01*
X138368298Y-92751818D02*
X138311056Y-92728247D01*
X138311056Y-92728247D02*
X138169635Y-92586826D01*
X138671344Y-93054863D02*
X138647774Y-92997621D01*
X138647774Y-92997621D02*
X138644407Y-92960583D01*
X138644407Y-92960583D02*
X138657875Y-92906708D01*
X138657875Y-92906708D02*
X138674711Y-92889872D01*
X138674711Y-92889872D02*
X138728586Y-92876403D01*
X138728586Y-92876403D02*
X138765625Y-92879770D01*
X138765625Y-92879770D02*
X138822867Y-92903341D01*
X138822867Y-92903341D02*
X138903679Y-92984153D01*
X138903679Y-92984153D02*
X138927249Y-93041395D01*
X138927249Y-93041395D02*
X138930616Y-93078434D01*
X138930616Y-93078434D02*
X138917148Y-93132308D01*
X138917148Y-93132308D02*
X138900312Y-93149144D01*
X138900312Y-93149144D02*
X138846437Y-93162613D01*
X138846437Y-93162613D02*
X138809398Y-93159246D01*
X138809398Y-93159246D02*
X138752156Y-93135676D01*
X138752156Y-93135676D02*
X138671344Y-93054863D01*
X138671344Y-93054863D02*
X138614102Y-93031293D01*
X138614102Y-93031293D02*
X138577063Y-93027926D01*
X138577063Y-93027926D02*
X138523188Y-93041395D01*
X138523188Y-93041395D02*
X138455845Y-93108738D01*
X138455845Y-93108738D02*
X138442376Y-93162613D01*
X138442376Y-93162613D02*
X138445743Y-93199652D01*
X138445743Y-93199652D02*
X138469313Y-93256894D01*
X138469313Y-93256894D02*
X138550126Y-93337706D01*
X138550126Y-93337706D02*
X138607368Y-93361276D01*
X138607368Y-93361276D02*
X138644407Y-93364644D01*
X138644407Y-93364644D02*
X138698281Y-93351175D01*
X138698281Y-93351175D02*
X138765625Y-93283831D01*
X138765625Y-93283831D02*
X138779094Y-93229957D01*
X138779094Y-93229957D02*
X138775726Y-93192918D01*
X138775726Y-93192918D02*
X138752156Y-93135676D01*
D11*
X144991027Y-109929800D02*
X145062455Y-109953609D01*
X145062455Y-109953609D02*
X145181503Y-109953609D01*
X145181503Y-109953609D02*
X145229122Y-109929800D01*
X145229122Y-109929800D02*
X145252931Y-109905990D01*
X145252931Y-109905990D02*
X145276741Y-109858371D01*
X145276741Y-109858371D02*
X145276741Y-109810752D01*
X145276741Y-109810752D02*
X145252931Y-109763133D01*
X145252931Y-109763133D02*
X145229122Y-109739323D01*
X145229122Y-109739323D02*
X145181503Y-109715514D01*
X145181503Y-109715514D02*
X145086265Y-109691704D01*
X145086265Y-109691704D02*
X145038646Y-109667895D01*
X145038646Y-109667895D02*
X145014836Y-109644085D01*
X145014836Y-109644085D02*
X144991027Y-109596466D01*
X144991027Y-109596466D02*
X144991027Y-109548847D01*
X144991027Y-109548847D02*
X145014836Y-109501228D01*
X145014836Y-109501228D02*
X145038646Y-109477419D01*
X145038646Y-109477419D02*
X145086265Y-109453609D01*
X145086265Y-109453609D02*
X145205312Y-109453609D01*
X145205312Y-109453609D02*
X145276741Y-109477419D01*
X145443407Y-109453609D02*
X145562455Y-109953609D01*
X145562455Y-109953609D02*
X145657693Y-109596466D01*
X145657693Y-109596466D02*
X145752931Y-109953609D01*
X145752931Y-109953609D02*
X145871979Y-109453609D01*
X146348169Y-109905990D02*
X146324360Y-109929800D01*
X146324360Y-109929800D02*
X146252931Y-109953609D01*
X146252931Y-109953609D02*
X146205312Y-109953609D01*
X146205312Y-109953609D02*
X146133884Y-109929800D01*
X146133884Y-109929800D02*
X146086265Y-109882180D01*
X146086265Y-109882180D02*
X146062455Y-109834561D01*
X146062455Y-109834561D02*
X146038646Y-109739323D01*
X146038646Y-109739323D02*
X146038646Y-109667895D01*
X146038646Y-109667895D02*
X146062455Y-109572657D01*
X146062455Y-109572657D02*
X146086265Y-109525038D01*
X146086265Y-109525038D02*
X146133884Y-109477419D01*
X146133884Y-109477419D02*
X146205312Y-109453609D01*
X146205312Y-109453609D02*
X146252931Y-109453609D01*
X146252931Y-109453609D02*
X146324360Y-109477419D01*
X146324360Y-109477419D02*
X146348169Y-109501228D01*
X146800550Y-109953609D02*
X146562455Y-109953609D01*
X146562455Y-109953609D02*
X146562455Y-109453609D01*
X146967217Y-109953609D02*
X146967217Y-109453609D01*
X147252931Y-109953609D02*
X147038646Y-109667895D01*
X147252931Y-109453609D02*
X146967217Y-109739323D01*
D14*
X156528247Y-75388943D02*
X156605692Y-75345169D01*
X156605692Y-75345169D02*
X156642731Y-75341802D01*
X156642731Y-75341802D02*
X156696606Y-75355271D01*
X156696606Y-75355271D02*
X156747114Y-75405779D01*
X156747114Y-75405779D02*
X156760583Y-75459653D01*
X156760583Y-75459653D02*
X156757215Y-75496692D01*
X156757215Y-75496692D02*
X156733645Y-75553934D01*
X156733645Y-75553934D02*
X156572021Y-75715559D01*
X156572021Y-75715559D02*
X156218467Y-75362005D01*
X156218467Y-75362005D02*
X156359889Y-75220584D01*
X156359889Y-75220584D02*
X156417131Y-75197014D01*
X156417131Y-75197014D02*
X156454170Y-75193647D01*
X156454170Y-75193647D02*
X156508044Y-75207115D01*
X156508044Y-75207115D02*
X156541716Y-75240787D01*
X156541716Y-75240787D02*
X156555185Y-75294662D01*
X156555185Y-75294662D02*
X156551818Y-75331701D01*
X156551818Y-75331701D02*
X156528247Y-75388943D01*
X156528247Y-75388943D02*
X156386826Y-75530364D01*
X157218518Y-75069061D02*
X156976082Y-75311498D01*
X157097300Y-75190279D02*
X156743747Y-74836726D01*
X156743747Y-74836726D02*
X156753848Y-74927640D01*
X156753848Y-74927640D02*
X156747114Y-75001718D01*
X156747114Y-75001718D02*
X156723544Y-75058960D01*
X138311056Y-82768247D02*
X138354830Y-82845692D01*
X138354830Y-82845692D02*
X138358197Y-82882731D01*
X138358197Y-82882731D02*
X138344728Y-82936606D01*
X138344728Y-82936606D02*
X138294220Y-82987114D01*
X138294220Y-82987114D02*
X138240346Y-83000583D01*
X138240346Y-83000583D02*
X138203307Y-82997215D01*
X138203307Y-82997215D02*
X138146065Y-82973645D01*
X138146065Y-82973645D02*
X137984440Y-82812021D01*
X137984440Y-82812021D02*
X138337994Y-82458467D01*
X138337994Y-82458467D02*
X138479415Y-82599889D01*
X138479415Y-82599889D02*
X138502985Y-82657131D01*
X138502985Y-82657131D02*
X138506352Y-82694170D01*
X138506352Y-82694170D02*
X138492884Y-82748044D01*
X138492884Y-82748044D02*
X138459212Y-82781716D01*
X138459212Y-82781716D02*
X138405337Y-82795185D01*
X138405337Y-82795185D02*
X138368298Y-82791818D01*
X138368298Y-82791818D02*
X138311056Y-82768247D01*
X138311056Y-82768247D02*
X138169635Y-82626826D01*
X138826234Y-83182410D02*
X138590532Y-83418112D01*
X138859906Y-82946708D02*
X138506352Y-83098231D01*
X138506352Y-83098231D02*
X138768992Y-83360870D01*
D11*
X153099133Y-100742782D02*
X153099133Y-101123734D01*
X153099133Y-101123734D02*
X153432466Y-101161830D01*
X153432466Y-101161830D02*
X153399133Y-101123734D01*
X153399133Y-101123734D02*
X153365800Y-101047544D01*
X153365800Y-101047544D02*
X153365800Y-100857068D01*
X153365800Y-100857068D02*
X153399133Y-100780877D01*
X153399133Y-100780877D02*
X153432466Y-100742782D01*
X153432466Y-100742782D02*
X153499133Y-100704687D01*
X153499133Y-100704687D02*
X153665800Y-100704687D01*
X153665800Y-100704687D02*
X153732466Y-100742782D01*
X153732466Y-100742782D02*
X153765800Y-100780877D01*
X153765800Y-100780877D02*
X153799133Y-100857068D01*
X153799133Y-100857068D02*
X153799133Y-101047544D01*
X153799133Y-101047544D02*
X153765800Y-101123734D01*
X153765800Y-101123734D02*
X153732466Y-101161830D01*
X153099133Y-100476115D02*
X153799133Y-100209448D01*
X153799133Y-100209448D02*
X153099133Y-99942782D01*
X146221503Y-62161704D02*
X146292931Y-62185514D01*
X146292931Y-62185514D02*
X146316741Y-62209323D01*
X146316741Y-62209323D02*
X146340550Y-62256942D01*
X146340550Y-62256942D02*
X146340550Y-62328371D01*
X146340550Y-62328371D02*
X146316741Y-62375990D01*
X146316741Y-62375990D02*
X146292931Y-62399800D01*
X146292931Y-62399800D02*
X146245312Y-62423609D01*
X146245312Y-62423609D02*
X146054836Y-62423609D01*
X146054836Y-62423609D02*
X146054836Y-61923609D01*
X146054836Y-61923609D02*
X146221503Y-61923609D01*
X146221503Y-61923609D02*
X146269122Y-61947419D01*
X146269122Y-61947419D02*
X146292931Y-61971228D01*
X146292931Y-61971228D02*
X146316741Y-62018847D01*
X146316741Y-62018847D02*
X146316741Y-62066466D01*
X146316741Y-62066466D02*
X146292931Y-62114085D01*
X146292931Y-62114085D02*
X146269122Y-62137895D01*
X146269122Y-62137895D02*
X146221503Y-62161704D01*
X146221503Y-62161704D02*
X146054836Y-62161704D01*
X146650074Y-61923609D02*
X146745312Y-61923609D01*
X146745312Y-61923609D02*
X146792931Y-61947419D01*
X146792931Y-61947419D02*
X146840550Y-61995038D01*
X146840550Y-61995038D02*
X146864360Y-62090276D01*
X146864360Y-62090276D02*
X146864360Y-62256942D01*
X146864360Y-62256942D02*
X146840550Y-62352180D01*
X146840550Y-62352180D02*
X146792931Y-62399800D01*
X146792931Y-62399800D02*
X146745312Y-62423609D01*
X146745312Y-62423609D02*
X146650074Y-62423609D01*
X146650074Y-62423609D02*
X146602455Y-62399800D01*
X146602455Y-62399800D02*
X146554836Y-62352180D01*
X146554836Y-62352180D02*
X146531027Y-62256942D01*
X146531027Y-62256942D02*
X146531027Y-62090276D01*
X146531027Y-62090276D02*
X146554836Y-61995038D01*
X146554836Y-61995038D02*
X146602455Y-61947419D01*
X146602455Y-61947419D02*
X146650074Y-61923609D01*
X147173884Y-61923609D02*
X147269122Y-61923609D01*
X147269122Y-61923609D02*
X147316741Y-61947419D01*
X147316741Y-61947419D02*
X147364360Y-61995038D01*
X147364360Y-61995038D02*
X147388170Y-62090276D01*
X147388170Y-62090276D02*
X147388170Y-62256942D01*
X147388170Y-62256942D02*
X147364360Y-62352180D01*
X147364360Y-62352180D02*
X147316741Y-62399800D01*
X147316741Y-62399800D02*
X147269122Y-62423609D01*
X147269122Y-62423609D02*
X147173884Y-62423609D01*
X147173884Y-62423609D02*
X147126265Y-62399800D01*
X147126265Y-62399800D02*
X147078646Y-62352180D01*
X147078646Y-62352180D02*
X147054837Y-62256942D01*
X147054837Y-62256942D02*
X147054837Y-62090276D01*
X147054837Y-62090276D02*
X147078646Y-61995038D01*
X147078646Y-61995038D02*
X147126265Y-61947419D01*
X147126265Y-61947419D02*
X147173884Y-61923609D01*
X147531028Y-61923609D02*
X147816742Y-61923609D01*
X147673885Y-62423609D02*
X147673885Y-61923609D01*
X148078646Y-61923609D02*
X148126265Y-61923609D01*
X148126265Y-61923609D02*
X148173884Y-61947419D01*
X148173884Y-61947419D02*
X148197694Y-61971228D01*
X148197694Y-61971228D02*
X148221503Y-62018847D01*
X148221503Y-62018847D02*
X148245313Y-62114085D01*
X148245313Y-62114085D02*
X148245313Y-62233133D01*
X148245313Y-62233133D02*
X148221503Y-62328371D01*
X148221503Y-62328371D02*
X148197694Y-62375990D01*
X148197694Y-62375990D02*
X148173884Y-62399800D01*
X148173884Y-62399800D02*
X148126265Y-62423609D01*
X148126265Y-62423609D02*
X148078646Y-62423609D01*
X148078646Y-62423609D02*
X148031027Y-62399800D01*
X148031027Y-62399800D02*
X148007218Y-62375990D01*
X148007218Y-62375990D02*
X147983408Y-62328371D01*
X147983408Y-62328371D02*
X147959599Y-62233133D01*
X147959599Y-62233133D02*
X147959599Y-62114085D01*
X147959599Y-62114085D02*
X147983408Y-62018847D01*
X147983408Y-62018847D02*
X148007218Y-61971228D01*
X148007218Y-61971228D02*
X148031027Y-61947419D01*
X148031027Y-61947419D02*
X148078646Y-61923609D01*
D14*
X138231056Y-75078247D02*
X138089635Y-74936826D01*
X137904440Y-75122021D02*
X138257994Y-74768467D01*
X138257994Y-74768467D02*
X138460024Y-74970498D01*
X138581243Y-75091716D02*
X138864085Y-75374559D01*
X138864085Y-75374559D02*
X138328705Y-75546285D01*
X156369963Y-106737369D02*
X156369963Y-106304035D01*
X156369963Y-106304035D02*
X156606154Y-106537369D01*
X156606154Y-106537369D02*
X156606154Y-106437369D01*
X156606154Y-106437369D02*
X156635678Y-106370702D01*
X156635678Y-106370702D02*
X156665201Y-106337369D01*
X156665201Y-106337369D02*
X156724249Y-106304035D01*
X156724249Y-106304035D02*
X156871868Y-106304035D01*
X156871868Y-106304035D02*
X156930916Y-106337369D01*
X156930916Y-106337369D02*
X156960440Y-106370702D01*
X156960440Y-106370702D02*
X156989963Y-106437369D01*
X156989963Y-106437369D02*
X156989963Y-106637369D01*
X156989963Y-106637369D02*
X156960440Y-106704035D01*
X156960440Y-106704035D02*
X156930916Y-106737369D01*
X156930916Y-106004035D02*
X156960440Y-105970702D01*
X156960440Y-105970702D02*
X156989963Y-106004035D01*
X156989963Y-106004035D02*
X156960440Y-106037368D01*
X156960440Y-106037368D02*
X156930916Y-106004035D01*
X156930916Y-106004035D02*
X156989963Y-106004035D01*
X156369963Y-105737369D02*
X156369963Y-105304035D01*
X156369963Y-105304035D02*
X156606154Y-105537369D01*
X156606154Y-105537369D02*
X156606154Y-105437369D01*
X156606154Y-105437369D02*
X156635678Y-105370702D01*
X156635678Y-105370702D02*
X156665201Y-105337369D01*
X156665201Y-105337369D02*
X156724249Y-105304035D01*
X156724249Y-105304035D02*
X156871868Y-105304035D01*
X156871868Y-105304035D02*
X156930916Y-105337369D01*
X156930916Y-105337369D02*
X156960440Y-105370702D01*
X156960440Y-105370702D02*
X156989963Y-105437369D01*
X156989963Y-105437369D02*
X156989963Y-105637369D01*
X156989963Y-105637369D02*
X156960440Y-105704035D01*
X156960440Y-105704035D02*
X156930916Y-105737369D01*
X156369963Y-105104035D02*
X156989963Y-104870702D01*
X156989963Y-104870702D02*
X156369963Y-104637368D01*
X137805252Y-77310802D02*
X138007283Y-77512833D01*
X137663831Y-77371412D02*
X138158806Y-77159280D01*
X138158806Y-77159280D02*
X137946674Y-77654254D01*
X138310329Y-78017909D02*
X138067892Y-77775473D01*
X138189111Y-77896691D02*
X138542664Y-77543138D01*
X138542664Y-77543138D02*
X138451750Y-77553239D01*
X138451750Y-77553239D02*
X138377672Y-77546505D01*
X138377672Y-77546505D02*
X138320430Y-77522935D01*
X139047741Y-78048214D02*
X138845710Y-77846184D01*
X138845710Y-77846184D02*
X138657148Y-77994339D01*
X138657148Y-77994339D02*
X138694187Y-77997707D01*
X138694187Y-77997707D02*
X138751429Y-78021277D01*
X138751429Y-78021277D02*
X138852444Y-78122292D01*
X138852444Y-78122292D02*
X138876015Y-78179534D01*
X138876015Y-78179534D02*
X138879382Y-78216573D01*
X138879382Y-78216573D02*
X138865913Y-78270448D01*
X138865913Y-78270448D02*
X138781734Y-78354627D01*
X138781734Y-78354627D02*
X138727859Y-78368096D01*
X138727859Y-78368096D02*
X138690820Y-78364729D01*
X138690820Y-78364729D02*
X138633578Y-78341159D01*
X138633578Y-78341159D02*
X138532563Y-78240143D01*
X138532563Y-78240143D02*
X138508993Y-78182901D01*
X138508993Y-78182901D02*
X138505625Y-78145862D01*
X156370802Y-90804747D02*
X156572833Y-90602716D01*
X156431412Y-90946168D02*
X156219280Y-90451193D01*
X156219280Y-90451193D02*
X156714254Y-90663325D01*
X156461716Y-90208756D02*
X156724356Y-89946117D01*
X156724356Y-89946117D02*
X156717622Y-90222225D01*
X156717622Y-90222225D02*
X156778231Y-90161616D01*
X156778231Y-90161616D02*
X156835473Y-90138046D01*
X156835473Y-90138046D02*
X156872512Y-90134678D01*
X156872512Y-90134678D02*
X156926387Y-90148147D01*
X156926387Y-90148147D02*
X157010566Y-90232327D01*
X157010566Y-90232327D02*
X157024035Y-90286201D01*
X157024035Y-90286201D02*
X157020667Y-90323240D01*
X157020667Y-90323240D02*
X156997097Y-90380482D01*
X156997097Y-90380482D02*
X156875879Y-90501701D01*
X156875879Y-90501701D02*
X156818637Y-90525271D01*
X156818637Y-90525271D02*
X156781598Y-90528638D01*
X138030549Y-100500786D02*
X137993510Y-100497418D01*
X137993510Y-100497418D02*
X137916065Y-100453645D01*
X137916065Y-100453645D02*
X137875659Y-100413239D01*
X137875659Y-100413239D02*
X137831885Y-100335794D01*
X137831885Y-100335794D02*
X137825151Y-100261716D01*
X137825151Y-100261716D02*
X137838620Y-100207841D01*
X137838620Y-100207841D02*
X137885760Y-100120295D01*
X137885760Y-100120295D02*
X137936268Y-100069787D01*
X137936268Y-100069787D02*
X138023814Y-100022647D01*
X138023814Y-100022647D02*
X138077689Y-100009178D01*
X138077689Y-100009178D02*
X138151767Y-100015912D01*
X138151767Y-100015912D02*
X138229212Y-100059686D01*
X138229212Y-100059686D02*
X138269618Y-100100092D01*
X138269618Y-100100092D02*
X138313391Y-100177537D01*
X138313391Y-100177537D02*
X138316759Y-100214576D01*
X138400938Y-100938518D02*
X138158501Y-100696082D01*
X138279720Y-100817300D02*
X138633273Y-100463747D01*
X138633273Y-100463747D02*
X138542359Y-100473848D01*
X138542359Y-100473848D02*
X138468281Y-100467114D01*
X138468281Y-100467114D02*
X138411039Y-100443544D01*
X139000295Y-101066471D02*
X138764593Y-101302174D01*
X139033967Y-100830769D02*
X138680414Y-100982292D01*
X138680414Y-100982292D02*
X138943053Y-101244932D01*
X138121056Y-95148247D02*
X138164830Y-95225692D01*
X138164830Y-95225692D02*
X138168197Y-95262731D01*
X138168197Y-95262731D02*
X138154728Y-95316606D01*
X138154728Y-95316606D02*
X138104220Y-95367114D01*
X138104220Y-95367114D02*
X138050346Y-95380583D01*
X138050346Y-95380583D02*
X138013307Y-95377215D01*
X138013307Y-95377215D02*
X137956065Y-95353645D01*
X137956065Y-95353645D02*
X137794440Y-95192021D01*
X137794440Y-95192021D02*
X138147994Y-94838467D01*
X138147994Y-94838467D02*
X138289415Y-94979889D01*
X138289415Y-94979889D02*
X138312985Y-95037131D01*
X138312985Y-95037131D02*
X138316352Y-95074170D01*
X138316352Y-95074170D02*
X138302884Y-95128044D01*
X138302884Y-95128044D02*
X138269212Y-95161716D01*
X138269212Y-95161716D02*
X138215337Y-95175185D01*
X138215337Y-95175185D02*
X138178298Y-95171818D01*
X138178298Y-95171818D02*
X138121056Y-95148247D01*
X138121056Y-95148247D02*
X137979635Y-95006826D01*
X138238907Y-95636488D02*
X138319720Y-95717300D01*
X138319720Y-95717300D02*
X138376962Y-95740870D01*
X138376962Y-95740870D02*
X138414000Y-95744237D01*
X138414000Y-95744237D02*
X138504914Y-95734136D01*
X138504914Y-95734136D02*
X138592461Y-95686995D01*
X138592461Y-95686995D02*
X138727148Y-95552308D01*
X138727148Y-95552308D02*
X138740616Y-95498434D01*
X138740616Y-95498434D02*
X138737249Y-95461395D01*
X138737249Y-95461395D02*
X138713679Y-95404153D01*
X138713679Y-95404153D02*
X138632867Y-95323341D01*
X138632867Y-95323341D02*
X138575625Y-95299770D01*
X138575625Y-95299770D02*
X138538586Y-95296403D01*
X138538586Y-95296403D02*
X138484711Y-95309872D01*
X138484711Y-95309872D02*
X138400532Y-95394051D01*
X138400532Y-95394051D02*
X138387063Y-95447926D01*
X138387063Y-95447926D02*
X138390430Y-95484965D01*
X138390430Y-95484965D02*
X138414000Y-95542207D01*
X138414000Y-95542207D02*
X138494813Y-95623019D01*
X138494813Y-95623019D02*
X138552055Y-95646589D01*
X138552055Y-95646589D02*
X138589094Y-95649957D01*
X138589094Y-95649957D02*
X138642968Y-95636488D01*
D15*
G36*
X149452976Y-75063353D02*
G01*
X149452976Y-74070505D01*
X149693677Y-74120331D01*
X150273632Y-74781252D01*
X150273632Y-74207526D01*
X150555000Y-74266144D01*
X150555000Y-75332630D01*
X150287920Y-75276943D01*
X149734344Y-74650094D01*
X149734344Y-75121605D01*
X149452976Y-75063353D01*
G37*
G36*
X149939851Y-72786834D02*
G01*
X150013958Y-72798138D01*
X150039891Y-72803251D01*
X150086053Y-72812777D01*
X150086053Y-73635265D01*
X150160896Y-73635215D01*
X150229302Y-73611451D01*
X150280135Y-73553749D01*
X150297013Y-73476694D01*
X150297079Y-73470767D01*
X150285773Y-73395033D01*
X150268136Y-73349867D01*
X150224791Y-73287974D01*
X150203290Y-73264504D01*
X150250184Y-72870296D01*
X150312515Y-72919412D01*
X150367890Y-72969764D01*
X150423704Y-73030071D01*
X150470052Y-73092061D01*
X150502243Y-73146535D01*
X150531936Y-73215347D01*
X150554335Y-73293556D01*
X150567731Y-73368071D01*
X150575768Y-73449489D01*
X150578447Y-73537812D01*
X150576283Y-73613864D01*
X150568289Y-73693410D01*
X150551940Y-73772213D01*
X150524351Y-73845429D01*
X150516898Y-73859480D01*
X150471345Y-73922169D01*
X150411625Y-73973768D01*
X150345763Y-74010724D01*
X150321259Y-74021046D01*
X150242124Y-74043238D01*
X150165554Y-74051092D01*
X150083122Y-74047772D01*
X150006186Y-74035701D01*
X149927992Y-74015454D01*
X149854610Y-73988374D01*
X149786040Y-73954460D01*
X149722282Y-73913713D01*
X149663336Y-73866132D01*
X149609203Y-73811718D01*
X149588897Y-73788039D01*
X149542985Y-73725292D01*
X149504855Y-73658180D01*
X149474506Y-73586703D01*
X149451940Y-73510861D01*
X149437154Y-73430655D01*
X149430677Y-73352431D01*
X149710896Y-73352431D01*
X149720389Y-73427435D01*
X149751845Y-73498201D01*
X149768415Y-73520959D01*
X149826891Y-73568958D01*
X149875027Y-73590202D01*
X149875027Y-73186102D01*
X149799556Y-73192422D01*
X149748998Y-73223838D01*
X149717185Y-73290381D01*
X149710896Y-73352431D01*
X149430677Y-73352431D01*
X149430151Y-73346083D01*
X149429528Y-73311032D01*
X149431963Y-73228806D01*
X149439266Y-73154412D01*
X149453939Y-73077515D01*
X149478823Y-73002685D01*
X149498771Y-72962986D01*
X149542441Y-72902273D01*
X149602519Y-72849022D01*
X149666990Y-72813882D01*
X149698806Y-72802152D01*
X149778814Y-72785057D01*
X149860393Y-72781296D01*
X149939851Y-72786834D01*
G37*
G36*
X149452976Y-72470226D02*
G01*
X149452976Y-72088108D01*
X149631762Y-72125111D01*
X149581249Y-72071599D01*
X149533728Y-72013095D01*
X149492484Y-71950198D01*
X149476423Y-71919581D01*
X149449724Y-71849162D01*
X149434108Y-71771903D01*
X149429528Y-71695732D01*
X149436054Y-71616712D01*
X149458997Y-71542101D01*
X149503862Y-71476943D01*
X149533942Y-71451367D01*
X149601453Y-71418981D01*
X149676546Y-71406055D01*
X149753898Y-71406991D01*
X149828851Y-71416892D01*
X149855610Y-71422058D01*
X150555000Y-71567505D01*
X150555000Y-71979298D01*
X149947934Y-71853269D01*
X149873493Y-71843753D01*
X149801022Y-71859863D01*
X149760493Y-71924573D01*
X149757791Y-71955851D01*
X149774231Y-72030425D01*
X149816043Y-72088841D01*
X149878609Y-72131934D01*
X149947475Y-72158910D01*
X150024870Y-72178600D01*
X150555000Y-72288876D01*
X150555000Y-72699204D01*
X149452976Y-72470226D01*
G37*
G36*
X150555000Y-70172756D02*
G01*
X150555000Y-70556706D01*
X150407355Y-70525931D01*
X150460420Y-70586059D01*
X150504908Y-70646167D01*
X150534849Y-70699954D01*
X150561417Y-70774641D01*
X150575722Y-70852522D01*
X150578447Y-70906217D01*
X150572445Y-70983356D01*
X150550270Y-71061011D01*
X150511757Y-71125377D01*
X150456905Y-71176456D01*
X150407721Y-71204804D01*
X150329505Y-71233487D01*
X150256853Y-71248111D01*
X150179024Y-71253537D01*
X150096016Y-71249768D01*
X150022888Y-71239602D01*
X149992630Y-71233747D01*
X149910361Y-71213541D01*
X149834371Y-71188416D01*
X149764660Y-71158372D01*
X149689295Y-71115825D01*
X149622971Y-71066194D01*
X149574609Y-71019424D01*
X149525304Y-70958982D01*
X149486200Y-70895810D01*
X149453472Y-70818658D01*
X149434629Y-70737790D01*
X149429528Y-70665516D01*
X149434063Y-70597006D01*
X149710896Y-70597006D01*
X149730128Y-70670430D01*
X149779040Y-70731095D01*
X149843079Y-70773736D01*
X149916202Y-70803053D01*
X149987631Y-70822436D01*
X150007285Y-70826716D01*
X150085431Y-70838988D01*
X150163705Y-70839739D01*
X150227470Y-70822686D01*
X150283755Y-70770947D01*
X150297079Y-70713876D01*
X150279494Y-70638313D01*
X150235255Y-70576854D01*
X150226737Y-70568429D01*
X150161461Y-70522662D01*
X150087938Y-70491843D01*
X150016600Y-70471980D01*
X149997027Y-70467679D01*
X149921656Y-70456229D01*
X149845358Y-70457032D01*
X149781971Y-70476472D01*
X149726513Y-70529831D01*
X149710896Y-70597006D01*
X149434063Y-70597006D01*
X149434426Y-70591517D01*
X149452249Y-70516051D01*
X149459204Y-70497721D01*
X149496024Y-70431775D01*
X149547864Y-70377554D01*
X149054371Y-70274972D01*
X149054371Y-69860614D01*
X150555000Y-70172756D01*
G37*
G36*
X150555000Y-68772145D02*
G01*
X150555000Y-69155362D01*
X150376580Y-69118360D01*
X150427253Y-69171849D01*
X150474899Y-69230272D01*
X150516215Y-69293012D01*
X150532285Y-69323524D01*
X150558567Y-69393403D01*
X150573939Y-69470556D01*
X150578447Y-69547006D01*
X150571944Y-69625728D01*
X150549082Y-69700168D01*
X150504374Y-69765341D01*
X150474399Y-69791004D01*
X150406799Y-69823391D01*
X150331820Y-69836317D01*
X150254718Y-69835380D01*
X150180091Y-69825480D01*
X150153464Y-69820314D01*
X149452976Y-69674867D01*
X149452976Y-69262707D01*
X150059309Y-69388736D01*
X150133633Y-69398076D01*
X150206587Y-69382142D01*
X150247460Y-69317776D01*
X150250184Y-69286521D01*
X150233848Y-69212415D01*
X150192299Y-69153897D01*
X150129732Y-69110567D01*
X150060867Y-69083491D01*
X149983471Y-69063771D01*
X149452976Y-68953496D01*
X149452976Y-68543168D01*
X150555000Y-68772145D01*
G37*
G36*
X149054371Y-68173140D02*
G01*
X149054371Y-67763178D01*
X149335739Y-67821796D01*
X149335739Y-68231758D01*
X149054371Y-68173140D01*
G37*
G36*
X149452976Y-68256304D02*
G01*
X149452976Y-67846343D01*
X150555000Y-68075321D01*
X150555000Y-68485282D01*
X149452976Y-68256304D01*
G37*
G36*
X149452976Y-67572669D02*
G01*
X149452976Y-67190551D01*
X149631762Y-67227554D01*
X149581249Y-67174042D01*
X149533728Y-67115537D01*
X149492484Y-67052640D01*
X149476423Y-67022023D01*
X149449724Y-66951604D01*
X149434108Y-66874346D01*
X149429528Y-66798175D01*
X149436054Y-66719154D01*
X149458997Y-66644544D01*
X149503862Y-66579385D01*
X149533942Y-66553810D01*
X149601453Y-66521423D01*
X149676546Y-66508497D01*
X149753898Y-66509434D01*
X149828851Y-66519334D01*
X149855610Y-66524501D01*
X150555000Y-66669947D01*
X150555000Y-67081741D01*
X149947934Y-66955711D01*
X149873493Y-66946195D01*
X149801022Y-66962306D01*
X149760493Y-67027015D01*
X149757791Y-67058293D01*
X149774231Y-67132867D01*
X149816043Y-67191284D01*
X149878609Y-67234376D01*
X149947475Y-67261352D01*
X150024870Y-67281043D01*
X150555000Y-67391318D01*
X150555000Y-67801646D01*
X149452976Y-67572669D01*
G37*
G36*
X149932276Y-65096693D02*
G01*
X150001057Y-65107770D01*
X150078047Y-65127789D01*
X150150565Y-65154875D01*
X150218611Y-65189027D01*
X150282184Y-65230244D01*
X150341285Y-65278528D01*
X150395914Y-65333878D01*
X150416514Y-65357997D01*
X150463164Y-65421846D01*
X150501908Y-65490203D01*
X150532745Y-65563068D01*
X150555675Y-65640441D01*
X150570698Y-65722322D01*
X150577814Y-65808711D01*
X150578447Y-65844528D01*
X150575164Y-65922034D01*
X150562559Y-66006870D01*
X150540500Y-66082793D01*
X150508987Y-66149804D01*
X150460273Y-66216717D01*
X150443991Y-66233607D01*
X150377835Y-66286295D01*
X150304389Y-66323733D01*
X150223653Y-66345921D01*
X150135627Y-66352859D01*
X150056703Y-66346991D01*
X150006919Y-66338387D01*
X149930535Y-66318438D01*
X149858462Y-66291333D01*
X149790701Y-66257072D01*
X149727251Y-66215655D01*
X149668112Y-66167084D01*
X149613284Y-66111356D01*
X149592561Y-66087062D01*
X149545593Y-66022776D01*
X149506587Y-65954484D01*
X149475540Y-65882184D01*
X149452455Y-65805877D01*
X149437330Y-65725563D01*
X149431687Y-65659148D01*
X149710896Y-65659148D01*
X149724781Y-65734602D01*
X149762539Y-65799141D01*
X149783436Y-65822547D01*
X149842017Y-65867900D01*
X149910825Y-65900415D01*
X149985416Y-65922581D01*
X150003621Y-65926594D01*
X150081735Y-65938257D01*
X150160442Y-65936612D01*
X150225272Y-65914870D01*
X150279127Y-65860740D01*
X150297009Y-65789530D01*
X150297079Y-65784078D01*
X150283545Y-65709726D01*
X150242943Y-65641826D01*
X150226371Y-65623611D01*
X150167629Y-65578919D01*
X150096646Y-65546404D01*
X150018445Y-65523748D01*
X149999225Y-65519563D01*
X149923117Y-65508255D01*
X149846153Y-65510175D01*
X149782337Y-65532020D01*
X149728756Y-65585051D01*
X149710896Y-65659148D01*
X149431687Y-65659148D01*
X149430165Y-65641242D01*
X149429528Y-65606392D01*
X149432522Y-65529060D01*
X149444685Y-65441074D01*
X149466204Y-65362729D01*
X149497078Y-65294027D01*
X149546477Y-65224312D01*
X149609349Y-65168482D01*
X149621137Y-65160526D01*
X149692035Y-65123941D01*
X149769771Y-65101381D01*
X149854343Y-65092846D01*
X149932276Y-65096693D01*
G37*
D14*
X137855252Y-64610802D02*
X138057283Y-64812833D01*
X137713831Y-64671412D02*
X138208806Y-64459280D01*
X138208806Y-64459280D02*
X137996674Y-64954254D01*
X138360329Y-65317909D02*
X138117892Y-65075473D01*
X138239111Y-65196691D02*
X138592664Y-64843138D01*
X138592664Y-64843138D02*
X138501750Y-64853239D01*
X138501750Y-64853239D02*
X138427672Y-64846505D01*
X138427672Y-64846505D02*
X138370430Y-64822935D01*
X138976522Y-65226996D02*
X139016928Y-65267402D01*
X139016928Y-65267402D02*
X139040499Y-65324644D01*
X139040499Y-65324644D02*
X139043866Y-65361683D01*
X139043866Y-65361683D02*
X139030397Y-65415558D01*
X139030397Y-65415558D02*
X138983257Y-65503104D01*
X138983257Y-65503104D02*
X138899077Y-65587284D01*
X138899077Y-65587284D02*
X138811531Y-65634424D01*
X138811531Y-65634424D02*
X138757656Y-65647893D01*
X138757656Y-65647893D02*
X138720617Y-65644526D01*
X138720617Y-65644526D02*
X138663375Y-65620955D01*
X138663375Y-65620955D02*
X138622969Y-65580549D01*
X138622969Y-65580549D02*
X138599399Y-65523307D01*
X138599399Y-65523307D02*
X138596031Y-65486268D01*
X138596031Y-65486268D02*
X138609500Y-65432394D01*
X138609500Y-65432394D02*
X138656641Y-65344847D01*
X138656641Y-65344847D02*
X138740820Y-65260668D01*
X138740820Y-65260668D02*
X138828367Y-65213527D01*
X138828367Y-65213527D02*
X138882241Y-65200059D01*
X138882241Y-65200059D02*
X138919280Y-65203426D01*
X138919280Y-65203426D02*
X138976522Y-65226996D01*
D17*
G36*
X142734999Y-66717041D02*
G01*
X142581980Y-66800083D01*
X142559988Y-66813297D01*
X142543390Y-66828293D01*
X142533420Y-66851077D01*
X142531788Y-66866395D01*
X142531788Y-66880195D01*
X142734999Y-66880195D01*
X142734999Y-67036388D01*
X142234789Y-67036388D01*
X142234789Y-66811807D01*
X142336394Y-66811807D01*
X142336394Y-66880195D01*
X142437999Y-66880195D01*
X142437999Y-66814616D01*
X142434466Y-66788947D01*
X142431160Y-66773339D01*
X142419227Y-66751253D01*
X142415529Y-66748060D01*
X142392472Y-66738633D01*
X142386464Y-66738290D01*
X142361711Y-66743757D01*
X142349339Y-66753799D01*
X142339239Y-66777834D01*
X142336508Y-66804055D01*
X142336394Y-66811807D01*
X142234789Y-66811807D01*
X142234789Y-66777124D01*
X142235223Y-66751257D01*
X142236825Y-66724106D01*
X142240101Y-66697070D01*
X142245630Y-66671745D01*
X142247123Y-66666849D01*
X142258016Y-66642400D01*
X142273901Y-66621443D01*
X142292675Y-66605422D01*
X142314855Y-66593057D01*
X142339873Y-66585272D01*
X142364816Y-66582180D01*
X142373641Y-66581974D01*
X142398547Y-66583727D01*
X142423354Y-66589706D01*
X142445449Y-66599926D01*
X142466474Y-66615188D01*
X142484306Y-66634227D01*
X142494419Y-66649019D01*
X142505349Y-66672619D01*
X142512701Y-66697234D01*
X142514203Y-66703607D01*
X142523576Y-66679549D01*
X142532888Y-66663063D01*
X142550381Y-66645913D01*
X142559754Y-66638272D01*
X142579761Y-66623302D01*
X142591262Y-66616413D01*
X142734999Y-66541186D01*
X142734999Y-66717041D01*
G37*
D14*
X138010549Y-103020786D02*
X137973510Y-103017418D01*
X137973510Y-103017418D02*
X137896065Y-102973645D01*
X137896065Y-102973645D02*
X137855659Y-102933239D01*
X137855659Y-102933239D02*
X137811885Y-102855794D01*
X137811885Y-102855794D02*
X137805151Y-102781716D01*
X137805151Y-102781716D02*
X137818620Y-102727841D01*
X137818620Y-102727841D02*
X137865760Y-102640295D01*
X137865760Y-102640295D02*
X137916268Y-102589787D01*
X137916268Y-102589787D02*
X138003814Y-102542647D01*
X138003814Y-102542647D02*
X138057689Y-102529178D01*
X138057689Y-102529178D02*
X138131767Y-102535912D01*
X138131767Y-102535912D02*
X138209212Y-102579686D01*
X138209212Y-102579686D02*
X138249618Y-102620092D01*
X138249618Y-102620092D02*
X138293391Y-102697537D01*
X138293391Y-102697537D02*
X138296759Y-102734576D01*
X138380938Y-103458518D02*
X138138501Y-103216082D01*
X138259720Y-103337300D02*
X138613273Y-102983747D01*
X138613273Y-102983747D02*
X138522359Y-102993848D01*
X138522359Y-102993848D02*
X138448281Y-102987114D01*
X138448281Y-102987114D02*
X138391039Y-102963544D01*
X139118350Y-103488823D02*
X138916319Y-103286793D01*
X138916319Y-103286793D02*
X138727757Y-103434948D01*
X138727757Y-103434948D02*
X138764796Y-103438316D01*
X138764796Y-103438316D02*
X138822038Y-103461886D01*
X138822038Y-103461886D02*
X138923053Y-103562901D01*
X138923053Y-103562901D02*
X138946624Y-103620143D01*
X138946624Y-103620143D02*
X138949991Y-103657182D01*
X138949991Y-103657182D02*
X138936522Y-103711057D01*
X138936522Y-103711057D02*
X138852343Y-103795236D01*
X138852343Y-103795236D02*
X138798468Y-103808705D01*
X138798468Y-103808705D02*
X138761429Y-103805338D01*
X138761429Y-103805338D02*
X138704187Y-103781767D01*
X138704187Y-103781767D02*
X138603172Y-103680752D01*
X138603172Y-103680752D02*
X138579602Y-103623510D01*
X138579602Y-103623510D02*
X138576234Y-103586471D01*
X138311056Y-80178247D02*
X138354830Y-80255692D01*
X138354830Y-80255692D02*
X138358197Y-80292731D01*
X138358197Y-80292731D02*
X138344728Y-80346606D01*
X138344728Y-80346606D02*
X138294220Y-80397114D01*
X138294220Y-80397114D02*
X138240346Y-80410583D01*
X138240346Y-80410583D02*
X138203307Y-80407215D01*
X138203307Y-80407215D02*
X138146065Y-80383645D01*
X138146065Y-80383645D02*
X137984440Y-80222021D01*
X137984440Y-80222021D02*
X138337994Y-79868467D01*
X138337994Y-79868467D02*
X138479415Y-80009889D01*
X138479415Y-80009889D02*
X138502985Y-80067131D01*
X138502985Y-80067131D02*
X138506352Y-80104170D01*
X138506352Y-80104170D02*
X138492884Y-80158044D01*
X138492884Y-80158044D02*
X138459212Y-80191716D01*
X138459212Y-80191716D02*
X138405337Y-80205185D01*
X138405337Y-80205185D02*
X138368298Y-80201818D01*
X138368298Y-80201818D02*
X138311056Y-80178247D01*
X138311056Y-80178247D02*
X138169635Y-80036826D01*
X138721852Y-80252325D02*
X138984491Y-80514965D01*
X138984491Y-80514965D02*
X138708383Y-80508231D01*
X138708383Y-80508231D02*
X138768992Y-80568840D01*
X138768992Y-80568840D02*
X138792562Y-80626082D01*
X138792562Y-80626082D02*
X138795929Y-80663121D01*
X138795929Y-80663121D02*
X138782461Y-80716995D01*
X138782461Y-80716995D02*
X138698281Y-80801175D01*
X138698281Y-80801175D02*
X138644407Y-80814644D01*
X138644407Y-80814644D02*
X138607368Y-80811276D01*
X138607368Y-80811276D02*
X138550126Y-80787706D01*
X138550126Y-80787706D02*
X138428907Y-80666488D01*
X138428907Y-80666488D02*
X138405337Y-80609246D01*
X138405337Y-80609246D02*
X138401970Y-80572207D01*
X156369963Y-104197369D02*
X156369963Y-103764035D01*
X156369963Y-103764035D02*
X156606154Y-103997369D01*
X156606154Y-103997369D02*
X156606154Y-103897369D01*
X156606154Y-103897369D02*
X156635678Y-103830702D01*
X156635678Y-103830702D02*
X156665201Y-103797369D01*
X156665201Y-103797369D02*
X156724249Y-103764035D01*
X156724249Y-103764035D02*
X156871868Y-103764035D01*
X156871868Y-103764035D02*
X156930916Y-103797369D01*
X156930916Y-103797369D02*
X156960440Y-103830702D01*
X156960440Y-103830702D02*
X156989963Y-103897369D01*
X156989963Y-103897369D02*
X156989963Y-104097369D01*
X156989963Y-104097369D02*
X156960440Y-104164035D01*
X156960440Y-104164035D02*
X156930916Y-104197369D01*
X156930916Y-103464035D02*
X156960440Y-103430702D01*
X156960440Y-103430702D02*
X156989963Y-103464035D01*
X156989963Y-103464035D02*
X156960440Y-103497368D01*
X156960440Y-103497368D02*
X156930916Y-103464035D01*
X156930916Y-103464035D02*
X156989963Y-103464035D01*
X156369963Y-103197369D02*
X156369963Y-102764035D01*
X156369963Y-102764035D02*
X156606154Y-102997369D01*
X156606154Y-102997369D02*
X156606154Y-102897369D01*
X156606154Y-102897369D02*
X156635678Y-102830702D01*
X156635678Y-102830702D02*
X156665201Y-102797369D01*
X156665201Y-102797369D02*
X156724249Y-102764035D01*
X156724249Y-102764035D02*
X156871868Y-102764035D01*
X156871868Y-102764035D02*
X156930916Y-102797369D01*
X156930916Y-102797369D02*
X156960440Y-102830702D01*
X156960440Y-102830702D02*
X156989963Y-102897369D01*
X156989963Y-102897369D02*
X156989963Y-103097369D01*
X156989963Y-103097369D02*
X156960440Y-103164035D01*
X156960440Y-103164035D02*
X156930916Y-103197369D01*
X156369963Y-102564035D02*
X156989963Y-102330702D01*
X156989963Y-102330702D02*
X156369963Y-102097368D01*
X138311056Y-90288247D02*
X138354830Y-90365692D01*
X138354830Y-90365692D02*
X138358197Y-90402731D01*
X138358197Y-90402731D02*
X138344728Y-90456606D01*
X138344728Y-90456606D02*
X138294220Y-90507114D01*
X138294220Y-90507114D02*
X138240346Y-90520583D01*
X138240346Y-90520583D02*
X138203307Y-90517215D01*
X138203307Y-90517215D02*
X138146065Y-90493645D01*
X138146065Y-90493645D02*
X137984440Y-90332021D01*
X137984440Y-90332021D02*
X138337994Y-89978467D01*
X138337994Y-89978467D02*
X138479415Y-90119889D01*
X138479415Y-90119889D02*
X138502985Y-90177131D01*
X138502985Y-90177131D02*
X138506352Y-90214170D01*
X138506352Y-90214170D02*
X138492884Y-90268044D01*
X138492884Y-90268044D02*
X138459212Y-90301716D01*
X138459212Y-90301716D02*
X138405337Y-90315185D01*
X138405337Y-90315185D02*
X138368298Y-90311818D01*
X138368298Y-90311818D02*
X138311056Y-90288247D01*
X138311056Y-90288247D02*
X138169635Y-90146826D01*
X138721852Y-90362325D02*
X139004694Y-90645168D01*
X139004694Y-90645168D02*
X138469313Y-90816894D01*
X156518247Y-72828943D02*
X156595692Y-72785169D01*
X156595692Y-72785169D02*
X156632731Y-72781802D01*
X156632731Y-72781802D02*
X156686606Y-72795271D01*
X156686606Y-72795271D02*
X156737114Y-72845779D01*
X156737114Y-72845779D02*
X156750583Y-72899653D01*
X156750583Y-72899653D02*
X156747215Y-72936692D01*
X156747215Y-72936692D02*
X156723645Y-72993934D01*
X156723645Y-72993934D02*
X156562021Y-73155559D01*
X156562021Y-73155559D02*
X156208467Y-72802005D01*
X156208467Y-72802005D02*
X156349889Y-72660584D01*
X156349889Y-72660584D02*
X156407131Y-72637014D01*
X156407131Y-72637014D02*
X156444170Y-72633647D01*
X156444170Y-72633647D02*
X156498044Y-72647115D01*
X156498044Y-72647115D02*
X156531716Y-72680787D01*
X156531716Y-72680787D02*
X156545185Y-72734662D01*
X156545185Y-72734662D02*
X156541818Y-72771701D01*
X156541818Y-72771701D02*
X156518247Y-72828943D01*
X156518247Y-72828943D02*
X156376826Y-72970364D01*
X156646200Y-72431616D02*
X156649567Y-72394577D01*
X156649567Y-72394577D02*
X156673138Y-72337335D01*
X156673138Y-72337335D02*
X156774153Y-72236320D01*
X156774153Y-72236320D02*
X156831395Y-72212750D01*
X156831395Y-72212750D02*
X156868434Y-72209383D01*
X156868434Y-72209383D02*
X156922308Y-72222851D01*
X156922308Y-72222851D02*
X156955980Y-72256523D01*
X156955980Y-72256523D02*
X156986285Y-72327234D01*
X156986285Y-72327234D02*
X156945879Y-72771701D01*
X156945879Y-72771701D02*
X157208518Y-72509061D01*
D11*
X156342466Y-108844687D02*
X156309133Y-108920877D01*
X156309133Y-108920877D02*
X156309133Y-109035163D01*
X156309133Y-109035163D02*
X156342466Y-109149449D01*
X156342466Y-109149449D02*
X156409133Y-109225639D01*
X156409133Y-109225639D02*
X156475800Y-109263734D01*
X156475800Y-109263734D02*
X156609133Y-109301830D01*
X156609133Y-109301830D02*
X156709133Y-109301830D01*
X156709133Y-109301830D02*
X156842466Y-109263734D01*
X156842466Y-109263734D02*
X156909133Y-109225639D01*
X156909133Y-109225639D02*
X156975800Y-109149449D01*
X156975800Y-109149449D02*
X157009133Y-109035163D01*
X157009133Y-109035163D02*
X157009133Y-108958972D01*
X157009133Y-108958972D02*
X156975800Y-108844687D01*
X156975800Y-108844687D02*
X156942466Y-108806591D01*
X156942466Y-108806591D02*
X156709133Y-108806591D01*
X156709133Y-108806591D02*
X156709133Y-108958972D01*
X157009133Y-108463734D02*
X156309133Y-108463734D01*
X156309133Y-108463734D02*
X157009133Y-108006591D01*
X157009133Y-108006591D02*
X156309133Y-108006591D01*
X157009133Y-107625639D02*
X156309133Y-107625639D01*
X156309133Y-107625639D02*
X156309133Y-107435163D01*
X156309133Y-107435163D02*
X156342466Y-107320877D01*
X156342466Y-107320877D02*
X156409133Y-107244687D01*
X156409133Y-107244687D02*
X156475800Y-107206592D01*
X156475800Y-107206592D02*
X156609133Y-107168496D01*
X156609133Y-107168496D02*
X156709133Y-107168496D01*
X156709133Y-107168496D02*
X156842466Y-107206592D01*
X156842466Y-107206592D02*
X156909133Y-107244687D01*
X156909133Y-107244687D02*
X156975800Y-107320877D01*
X156975800Y-107320877D02*
X157009133Y-107435163D01*
X157009133Y-107435163D02*
X157009133Y-107625639D01*
D13*
X143843333Y-93609580D02*
X143795714Y-93657200D01*
X143795714Y-93657200D02*
X143652857Y-93704819D01*
X143652857Y-93704819D02*
X143557619Y-93704819D01*
X143557619Y-93704819D02*
X143414762Y-93657200D01*
X143414762Y-93657200D02*
X143319524Y-93561961D01*
X143319524Y-93561961D02*
X143271905Y-93466723D01*
X143271905Y-93466723D02*
X143224286Y-93276247D01*
X143224286Y-93276247D02*
X143224286Y-93133390D01*
X143224286Y-93133390D02*
X143271905Y-92942914D01*
X143271905Y-92942914D02*
X143319524Y-92847676D01*
X143319524Y-92847676D02*
X143414762Y-92752438D01*
X143414762Y-92752438D02*
X143557619Y-92704819D01*
X143557619Y-92704819D02*
X143652857Y-92704819D01*
X143652857Y-92704819D02*
X143795714Y-92752438D01*
X143795714Y-92752438D02*
X143843333Y-92800057D01*
X144176667Y-92704819D02*
X144795714Y-92704819D01*
X144795714Y-92704819D02*
X144462381Y-93085771D01*
X144462381Y-93085771D02*
X144605238Y-93085771D01*
X144605238Y-93085771D02*
X144700476Y-93133390D01*
X144700476Y-93133390D02*
X144748095Y-93181009D01*
X144748095Y-93181009D02*
X144795714Y-93276247D01*
X144795714Y-93276247D02*
X144795714Y-93514342D01*
X144795714Y-93514342D02*
X144748095Y-93609580D01*
X144748095Y-93609580D02*
X144700476Y-93657200D01*
X144700476Y-93657200D02*
X144605238Y-93704819D01*
X144605238Y-93704819D02*
X144319524Y-93704819D01*
X144319524Y-93704819D02*
X144224286Y-93657200D01*
X144224286Y-93657200D02*
X144176667Y-93609580D01*
X146911905Y-96924819D02*
X146911905Y-95924819D01*
X146911905Y-95924819D02*
X147150000Y-95924819D01*
X147150000Y-95924819D02*
X147292857Y-95972438D01*
X147292857Y-95972438D02*
X147388095Y-96067676D01*
X147388095Y-96067676D02*
X147435714Y-96162914D01*
X147435714Y-96162914D02*
X147483333Y-96353390D01*
X147483333Y-96353390D02*
X147483333Y-96496247D01*
X147483333Y-96496247D02*
X147435714Y-96686723D01*
X147435714Y-96686723D02*
X147388095Y-96781961D01*
X147388095Y-96781961D02*
X147292857Y-96877200D01*
X147292857Y-96877200D02*
X147150000Y-96924819D01*
X147150000Y-96924819D02*
X146911905Y-96924819D01*
X148435714Y-96924819D02*
X147864286Y-96924819D01*
X148150000Y-96924819D02*
X148150000Y-95924819D01*
X148150000Y-95924819D02*
X148054762Y-96067676D01*
X148054762Y-96067676D02*
X147959524Y-96162914D01*
X147959524Y-96162914D02*
X147864286Y-96210533D01*
X146831905Y-103584819D02*
X146831905Y-102584819D01*
X146831905Y-102584819D02*
X147070000Y-102584819D01*
X147070000Y-102584819D02*
X147212857Y-102632438D01*
X147212857Y-102632438D02*
X147308095Y-102727676D01*
X147308095Y-102727676D02*
X147355714Y-102822914D01*
X147355714Y-102822914D02*
X147403333Y-103013390D01*
X147403333Y-103013390D02*
X147403333Y-103156247D01*
X147403333Y-103156247D02*
X147355714Y-103346723D01*
X147355714Y-103346723D02*
X147308095Y-103441961D01*
X147308095Y-103441961D02*
X147212857Y-103537200D01*
X147212857Y-103537200D02*
X147070000Y-103584819D01*
X147070000Y-103584819D02*
X146831905Y-103584819D01*
X147784286Y-102680057D02*
X147831905Y-102632438D01*
X147831905Y-102632438D02*
X147927143Y-102584819D01*
X147927143Y-102584819D02*
X148165238Y-102584819D01*
X148165238Y-102584819D02*
X148260476Y-102632438D01*
X148260476Y-102632438D02*
X148308095Y-102680057D01*
X148308095Y-102680057D02*
X148355714Y-102775295D01*
X148355714Y-102775295D02*
X148355714Y-102870533D01*
X148355714Y-102870533D02*
X148308095Y-103013390D01*
X148308095Y-103013390D02*
X147736667Y-103584819D01*
X147736667Y-103584819D02*
X148355714Y-103584819D01*
X151743333Y-97854819D02*
X151410000Y-97378628D01*
X151171905Y-97854819D02*
X151171905Y-96854819D01*
X151171905Y-96854819D02*
X151552857Y-96854819D01*
X151552857Y-96854819D02*
X151648095Y-96902438D01*
X151648095Y-96902438D02*
X151695714Y-96950057D01*
X151695714Y-96950057D02*
X151743333Y-97045295D01*
X151743333Y-97045295D02*
X151743333Y-97188152D01*
X151743333Y-97188152D02*
X151695714Y-97283390D01*
X151695714Y-97283390D02*
X151648095Y-97331009D01*
X151648095Y-97331009D02*
X151552857Y-97378628D01*
X151552857Y-97378628D02*
X151171905Y-97378628D01*
X152076667Y-96854819D02*
X152695714Y-96854819D01*
X152695714Y-96854819D02*
X152362381Y-97235771D01*
X152362381Y-97235771D02*
X152505238Y-97235771D01*
X152505238Y-97235771D02*
X152600476Y-97283390D01*
X152600476Y-97283390D02*
X152648095Y-97331009D01*
X152648095Y-97331009D02*
X152695714Y-97426247D01*
X152695714Y-97426247D02*
X152695714Y-97664342D01*
X152695714Y-97664342D02*
X152648095Y-97759580D01*
X152648095Y-97759580D02*
X152600476Y-97807200D01*
X152600476Y-97807200D02*
X152505238Y-97854819D01*
X152505238Y-97854819D02*
X152219524Y-97854819D01*
X152219524Y-97854819D02*
X152124286Y-97807200D01*
X152124286Y-97807200D02*
X152076667Y-97759580D01*
X147007200Y-71483332D02*
X147054819Y-71340475D01*
X147054819Y-71340475D02*
X147054819Y-71102380D01*
X147054819Y-71102380D02*
X147007200Y-71007142D01*
X147007200Y-71007142D02*
X146959580Y-70959523D01*
X146959580Y-70959523D02*
X146864342Y-70911904D01*
X146864342Y-70911904D02*
X146769104Y-70911904D01*
X146769104Y-70911904D02*
X146673866Y-70959523D01*
X146673866Y-70959523D02*
X146626247Y-71007142D01*
X146626247Y-71007142D02*
X146578628Y-71102380D01*
X146578628Y-71102380D02*
X146531009Y-71292856D01*
X146531009Y-71292856D02*
X146483390Y-71388094D01*
X146483390Y-71388094D02*
X146435771Y-71435713D01*
X146435771Y-71435713D02*
X146340533Y-71483332D01*
X146340533Y-71483332D02*
X146245295Y-71483332D01*
X146245295Y-71483332D02*
X146150057Y-71435713D01*
X146150057Y-71435713D02*
X146102438Y-71388094D01*
X146102438Y-71388094D02*
X146054819Y-71292856D01*
X146054819Y-71292856D02*
X146054819Y-71054761D01*
X146054819Y-71054761D02*
X146102438Y-70911904D01*
X146054819Y-70578570D02*
X147054819Y-70340475D01*
X147054819Y-70340475D02*
X146340533Y-70149999D01*
X146340533Y-70149999D02*
X147054819Y-69959523D01*
X147054819Y-69959523D02*
X146054819Y-69721428D01*
X146150057Y-69388094D02*
X146102438Y-69340475D01*
X146102438Y-69340475D02*
X146054819Y-69245237D01*
X146054819Y-69245237D02*
X146054819Y-69007142D01*
X146054819Y-69007142D02*
X146102438Y-68911904D01*
X146102438Y-68911904D02*
X146150057Y-68864285D01*
X146150057Y-68864285D02*
X146245295Y-68816666D01*
X146245295Y-68816666D02*
X146340533Y-68816666D01*
X146340533Y-68816666D02*
X146483390Y-68864285D01*
X146483390Y-68864285D02*
X147054819Y-69435713D01*
X147054819Y-69435713D02*
X147054819Y-68816666D01*
X143153809Y-89508628D02*
X143153809Y-89984819D01*
X142820476Y-88984819D02*
X143153809Y-89508628D01*
X143153809Y-89508628D02*
X143487142Y-88984819D01*
X144344285Y-89984819D02*
X143772857Y-89984819D01*
X144058571Y-89984819D02*
X144058571Y-88984819D01*
X144058571Y-88984819D02*
X143963333Y-89127676D01*
X143963333Y-89127676D02*
X143868095Y-89222914D01*
X143868095Y-89222914D02*
X143772857Y-89270533D01*
X143963333Y-97824819D02*
X143630000Y-97348628D01*
X143391905Y-97824819D02*
X143391905Y-96824819D01*
X143391905Y-96824819D02*
X143772857Y-96824819D01*
X143772857Y-96824819D02*
X143868095Y-96872438D01*
X143868095Y-96872438D02*
X143915714Y-96920057D01*
X143915714Y-96920057D02*
X143963333Y-97015295D01*
X143963333Y-97015295D02*
X143963333Y-97158152D01*
X143963333Y-97158152D02*
X143915714Y-97253390D01*
X143915714Y-97253390D02*
X143868095Y-97301009D01*
X143868095Y-97301009D02*
X143772857Y-97348628D01*
X143772857Y-97348628D02*
X143391905Y-97348628D01*
X144344286Y-96920057D02*
X144391905Y-96872438D01*
X144391905Y-96872438D02*
X144487143Y-96824819D01*
X144487143Y-96824819D02*
X144725238Y-96824819D01*
X144725238Y-96824819D02*
X144820476Y-96872438D01*
X144820476Y-96872438D02*
X144868095Y-96920057D01*
X144868095Y-96920057D02*
X144915714Y-97015295D01*
X144915714Y-97015295D02*
X144915714Y-97110533D01*
X144915714Y-97110533D02*
X144868095Y-97253390D01*
X144868095Y-97253390D02*
X144296667Y-97824819D01*
X144296667Y-97824819D02*
X144915714Y-97824819D01*
X150553333Y-93639580D02*
X150505714Y-93687200D01*
X150505714Y-93687200D02*
X150362857Y-93734819D01*
X150362857Y-93734819D02*
X150267619Y-93734819D01*
X150267619Y-93734819D02*
X150124762Y-93687200D01*
X150124762Y-93687200D02*
X150029524Y-93591961D01*
X150029524Y-93591961D02*
X149981905Y-93496723D01*
X149981905Y-93496723D02*
X149934286Y-93306247D01*
X149934286Y-93306247D02*
X149934286Y-93163390D01*
X149934286Y-93163390D02*
X149981905Y-92972914D01*
X149981905Y-92972914D02*
X150029524Y-92877676D01*
X150029524Y-92877676D02*
X150124762Y-92782438D01*
X150124762Y-92782438D02*
X150267619Y-92734819D01*
X150267619Y-92734819D02*
X150362857Y-92734819D01*
X150362857Y-92734819D02*
X150505714Y-92782438D01*
X150505714Y-92782438D02*
X150553333Y-92830057D01*
X151410476Y-93068152D02*
X151410476Y-93734819D01*
X151172381Y-92687200D02*
X150934286Y-93401485D01*
X150934286Y-93401485D02*
X151553333Y-93401485D01*
X142568095Y-76644819D02*
X142568095Y-77454342D01*
X142568095Y-77454342D02*
X142615714Y-77549580D01*
X142615714Y-77549580D02*
X142663333Y-77597200D01*
X142663333Y-77597200D02*
X142758571Y-77644819D01*
X142758571Y-77644819D02*
X142949047Y-77644819D01*
X142949047Y-77644819D02*
X143044285Y-77597200D01*
X143044285Y-77597200D02*
X143091904Y-77549580D01*
X143091904Y-77549580D02*
X143139523Y-77454342D01*
X143139523Y-77454342D02*
X143139523Y-76644819D01*
X144139523Y-77644819D02*
X143568095Y-77644819D01*
X143853809Y-77644819D02*
X143853809Y-76644819D01*
X143853809Y-76644819D02*
X143758571Y-76787676D01*
X143758571Y-76787676D02*
X143663333Y-76882914D01*
X143663333Y-76882914D02*
X143568095Y-76930533D01*
D12*
X145145000Y-92996247D02*
X145145000Y-93518753D01*
X146615000Y-92996247D02*
X146615000Y-93518753D01*
X145970000Y-99475000D02*
X150030000Y-99475000D01*
X150030000Y-97205000D02*
X145970000Y-97205000D01*
X150030000Y-99475000D02*
X150030000Y-97205000D01*
X146000000Y-102335000D02*
X150060000Y-102335000D01*
X150060000Y-100065000D02*
X146000000Y-100065000D01*
X150060000Y-102335000D02*
X150060000Y-100065000D01*
X151195000Y-99582936D02*
X151195000Y-100037064D01*
X152665000Y-99582936D02*
X152665000Y-100037064D01*
X145270000Y-67390000D02*
X145270000Y-72910000D01*
X146539000Y-67390000D02*
X145270000Y-67390000D01*
X146539000Y-72910000D02*
X145270000Y-72910000D01*
X147280000Y-65540000D02*
X147280000Y-67390000D01*
X147930000Y-67390000D02*
X147280000Y-67390000D01*
X147930000Y-67390000D02*
X147930000Y-72910000D01*
X147930000Y-72910000D02*
X146661000Y-72910000D01*
X149820000Y-87767499D02*
X144820000Y-87767499D01*
X149820000Y-91187501D02*
X144820000Y-91187501D01*
X143395000Y-99452936D02*
X143395000Y-99907064D01*
X144865000Y-99452936D02*
X144865000Y-99907064D01*
X148225000Y-92996247D02*
X148225000Y-93518753D01*
X149695000Y-92996247D02*
X149695000Y-93518753D01*
X143850000Y-77890000D02*
X144300000Y-77890000D01*
X143850000Y-78340000D02*
X143850000Y-77890000D01*
X143850000Y-84660000D02*
X143850000Y-85110000D01*
X143850000Y-85110000D02*
X144300000Y-85110000D01*
X151070000Y-77890000D02*
X150620000Y-77890000D01*
X151070000Y-78340000D02*
X151070000Y-77890000D01*
X151070000Y-84660000D02*
X151070000Y-85110000D01*
X151070000Y-85110000D02*
X150620000Y-85110000D01*
D18*
X143585000Y-85600000D02*
G75*
G02*
X143135000Y-85600000I-225000J0D01*
G01*
X143135000Y-85600000D02*
G75*
G02*
X143585000Y-85600000I225000J0D01*
G01*
%LPC*%
D19*
X145880000Y-92220000D03*
X145880000Y-94295000D03*
D20*
X140000000Y-60000000D03*
X140000000Y-62540000D03*
X140000000Y-65080000D03*
X140000000Y-67620000D03*
X140000000Y-70160000D03*
X140000000Y-72700000D03*
X140000000Y-75240000D03*
X140000000Y-77780000D03*
X140000000Y-80320000D03*
X140000000Y-82860000D03*
X140000000Y-85400000D03*
X140000000Y-87940000D03*
X140000000Y-90480000D03*
X140000000Y-93020000D03*
X140000000Y-95560000D03*
X140000000Y-98100000D03*
X140000000Y-100640000D03*
X140000000Y-103180000D03*
X140000000Y-105720000D03*
D21*
X140000000Y-108260000D03*
D22*
X149057500Y-98340000D03*
X146082500Y-98340000D03*
X149087500Y-101200000D03*
X146112500Y-101200000D03*
D23*
X151930000Y-98810000D03*
X151930000Y-100810000D03*
D24*
X146600000Y-66340000D03*
X146600000Y-73960000D03*
D20*
X155000000Y-60000000D03*
X155000000Y-62540000D03*
X155000000Y-65080000D03*
X155000000Y-67620000D03*
X155000000Y-70160000D03*
X155000000Y-72700000D03*
X155000000Y-75240000D03*
X155000000Y-77780000D03*
X155000000Y-80320000D03*
X155000000Y-82860000D03*
X155000000Y-85400000D03*
X155000000Y-87940000D03*
X155000000Y-90480000D03*
X155000000Y-93020000D03*
X155000000Y-95560000D03*
X155000000Y-98100000D03*
D21*
X155000000Y-100640000D03*
X155000000Y-103180000D03*
X155000000Y-105720000D03*
X155000000Y-108260000D03*
D25*
X149170001Y-89477500D03*
X145469999Y-89477500D03*
D23*
X144130000Y-98680000D03*
X144130000Y-100680000D03*
D19*
X148960000Y-92220000D03*
X148960000Y-94295000D03*
D21*
X144560001Y-60900000D03*
D20*
X147100001Y-60900000D03*
D21*
X149640000Y-60900000D03*
D26*
X144710000Y-85662500D03*
X145210000Y-85662500D03*
X145710000Y-85662500D03*
X146210001Y-85662500D03*
X146710000Y-85662500D03*
X147210000Y-85662500D03*
X147710000Y-85662500D03*
X148210000Y-85662500D03*
X148709999Y-85662500D03*
X149210000Y-85662500D03*
X149710000Y-85662500D03*
X150210000Y-85662500D03*
D27*
X151622500Y-84250000D03*
X151622500Y-83750000D03*
X151622500Y-83250000D03*
X151622500Y-82749999D03*
X151622500Y-82250000D03*
X151622500Y-81750000D03*
X151622500Y-81250000D03*
X151622500Y-80750000D03*
X151622500Y-80250001D03*
X151622500Y-79750000D03*
X151622500Y-79250000D03*
X151622500Y-78750000D03*
D26*
X150210000Y-77337500D03*
X149710000Y-77337500D03*
X149210000Y-77337500D03*
X148709999Y-77337500D03*
X148210000Y-77337500D03*
X147710000Y-77337500D03*
X147210000Y-77337500D03*
X146710000Y-77337500D03*
X146210001Y-77337500D03*
X145710000Y-77337500D03*
X145210000Y-77337500D03*
X144710000Y-77337500D03*
D27*
X143297500Y-78750000D03*
X143297500Y-79250000D03*
X143297500Y-79750000D03*
X143297500Y-80250001D03*
X143297500Y-80750000D03*
X143297500Y-81250000D03*
X143297500Y-81750000D03*
X143297500Y-82250000D03*
X143297500Y-82749999D03*
X143297500Y-83250000D03*
X143297500Y-83750000D03*
X143297500Y-84250000D03*
D21*
X143640001Y-108260000D03*
D20*
X146180001Y-108260000D03*
X148720000Y-108260000D03*
D21*
X151260001Y-108260000D03*
%LPD*%
M02*
