G04 #@! TF.GenerationSoftware,KiCad,Pcbnew,8.0.4*
G04 #@! TF.CreationDate,2024-10-13T11:01:47+03:00*
G04 #@! TF.ProjectId,stm32f0_nucleo,73746d33-3266-4305-9f6e-75636c656f2e,rev?*
G04 #@! TF.SameCoordinates,Original*
G04 #@! TF.FileFunction,Paste,Top*
G04 #@! TF.FilePolarity,Positive*
%FSLAX46Y46*%
G04 Gerber Fmt 4.6, Leading zero omitted, Abs format (unit mm)*
G04 Created by KiCad (PCBNEW 8.0.4) date 2024-10-13 11:01:47*
%MOMM*%
%LPD*%
G01*
G04 APERTURE LIST*
G04 Aperture macros list*
%AMRoundRect*
0 Rectangle with rounded corners*
0 $1 Rounding radius*
0 $2 $3 $4 $5 $6 $7 $8 $9 X,Y pos of 4 corners*
0 Add a 4 corners polygon primitive as box body*
4,1,4,$2,$3,$4,$5,$6,$7,$8,$9,$2,$3,0*
0 Add four circle primitives for the rounded corners*
1,1,$1+$1,$2,$3*
1,1,$1+$1,$4,$5*
1,1,$1+$1,$6,$7*
1,1,$1+$1,$8,$9*
0 Add four rect primitives between the rounded corners*
20,1,$1+$1,$2,$3,$4,$5,0*
20,1,$1+$1,$4,$5,$6,$7,0*
20,1,$1+$1,$6,$7,$8,$9,0*
20,1,$1+$1,$8,$9,$2,$3,0*%
G04 Aperture macros list end*
%ADD10RoundRect,0.250000X-0.475000X0.337500X-0.475000X-0.337500X0.475000X-0.337500X0.475000X0.337500X0*%
%ADD11RoundRect,0.250001X0.462499X0.624999X-0.462499X0.624999X-0.462499X-0.624999X0.462499X-0.624999X0*%
%ADD12RoundRect,0.250000X-0.450000X0.350000X-0.450000X-0.350000X0.450000X-0.350000X0.450000X0.350000X0*%
%ADD13R,0.760000X1.600000*%
%ADD14R,1.700000X2.400000*%
%ADD15RoundRect,0.075000X0.075000X-0.662500X0.075000X0.662500X-0.075000X0.662500X-0.075000X-0.662500X0*%
%ADD16RoundRect,0.075000X0.662500X-0.075000X0.662500X0.075000X-0.662500X0.075000X-0.662500X-0.075000X0*%
G04 APERTURE END LIST*
D10*
X145880000Y-92220000D03*
X145880000Y-94295000D03*
D11*
X149057500Y-98340000D03*
X146082500Y-98340000D03*
X149087500Y-101200000D03*
X146112500Y-101200000D03*
D12*
X151930000Y-98810000D03*
X151930000Y-100810000D03*
D13*
X146600000Y-66340000D03*
X146600000Y-73960000D03*
D14*
X149170001Y-89477500D03*
X145469999Y-89477500D03*
D12*
X144130000Y-98680000D03*
X144130000Y-100680000D03*
D10*
X148960000Y-92220000D03*
X148960000Y-94295000D03*
D15*
X144710000Y-85662500D03*
X145210000Y-85662500D03*
X145710000Y-85662500D03*
X146210001Y-85662500D03*
X146710000Y-85662500D03*
X147210000Y-85662500D03*
X147710000Y-85662500D03*
X148210000Y-85662500D03*
X148709999Y-85662500D03*
X149210000Y-85662500D03*
X149710000Y-85662500D03*
X150210000Y-85662500D03*
D16*
X151622500Y-84250000D03*
X151622500Y-83750000D03*
X151622500Y-83250000D03*
X151622500Y-82749999D03*
X151622500Y-82250000D03*
X151622500Y-81750000D03*
X151622500Y-81250000D03*
X151622500Y-80750000D03*
X151622500Y-80250001D03*
X151622500Y-79750000D03*
X151622500Y-79250000D03*
X151622500Y-78750000D03*
D15*
X150210000Y-77337500D03*
X149710000Y-77337500D03*
X149210000Y-77337500D03*
X148709999Y-77337500D03*
X148210000Y-77337500D03*
X147710000Y-77337500D03*
X147210000Y-77337500D03*
X146710000Y-77337500D03*
X146210001Y-77337500D03*
X145710000Y-77337500D03*
X145210000Y-77337500D03*
X144710000Y-77337500D03*
D16*
X143297500Y-78750000D03*
X143297500Y-79250000D03*
X143297500Y-79750000D03*
X143297500Y-80250001D03*
X143297500Y-80750000D03*
X143297500Y-81250000D03*
X143297500Y-81750000D03*
X143297500Y-82250000D03*
X143297500Y-82749999D03*
X143297500Y-83250000D03*
X143297500Y-83750000D03*
X143297500Y-84250000D03*
M02*
