G04 #@! TF.GenerationSoftware,KiCad,Pcbnew,8.0.4*
G04 #@! TF.CreationDate,2024-10-13T11:01:47+03:00*
G04 #@! TF.ProjectId,stm32f0_nucleo,73746d33-3266-4305-9f6e-75636c656f2e,rev?*
G04 #@! TF.SameCoordinates,Original*
G04 #@! TF.FileFunction,Soldermask,Bot*
G04 #@! TF.FilePolarity,Negative*
%FSLAX46Y46*%
G04 Gerber Fmt 4.6, Leading zero omitted, Abs format (unit mm)*
G04 Created by KiCad (PCBNEW 8.0.4) date 2024-10-13 11:01:47*
%MOMM*%
%LPD*%
G01*
G04 APERTURE LIST*
G04 Aperture macros list*
%AMRoundRect*
0 Rectangle with rounded corners*
0 $1 Rounding radius*
0 $2 $3 $4 $5 $6 $7 $8 $9 X,Y pos of 4 corners*
0 Add a 4 corners polygon primitive as box body*
4,1,4,$2,$3,$4,$5,$6,$7,$8,$9,$2,$3,0*
0 Add four circle primitives for the rounded corners*
1,1,$1+$1,$2,$3*
1,1,$1+$1,$4,$5*
1,1,$1+$1,$6,$7*
1,1,$1+$1,$8,$9*
0 Add four rect primitives between the rounded corners*
20,1,$1+$1,$2,$3,$4,$5,0*
20,1,$1+$1,$4,$5,$6,$7,0*
20,1,$1+$1,$6,$7,$8,$9,0*
20,1,$1+$1,$8,$9,$2,$3,0*%
G04 Aperture macros list end*
%ADD10O,1.700000X1.700000*%
%ADD11R,1.700000X1.700000*%
%ADD12RoundRect,0.250000X0.412500X0.650000X-0.412500X0.650000X-0.412500X-0.650000X0.412500X-0.650000X0*%
%ADD13RoundRect,0.250000X0.650000X-0.412500X0.650000X0.412500X-0.650000X0.412500X-0.650000X-0.412500X0*%
%ADD14RoundRect,0.250000X0.350000X0.450000X-0.350000X0.450000X-0.350000X-0.450000X0.350000X-0.450000X0*%
%ADD15RoundRect,0.375000X0.625000X0.375000X-0.625000X0.375000X-0.625000X-0.375000X0.625000X-0.375000X0*%
%ADD16RoundRect,0.500000X0.500000X1.400000X-0.500000X1.400000X-0.500000X-1.400000X0.500000X-1.400000X0*%
%ADD17RoundRect,0.250000X-0.337500X-0.475000X0.337500X-0.475000X0.337500X0.475000X-0.337500X0.475000X0*%
%ADD18RoundRect,0.250000X-0.450000X0.350000X-0.450000X-0.350000X0.450000X-0.350000X0.450000X0.350000X0*%
%ADD19RoundRect,0.250000X-0.412500X-0.650000X0.412500X-0.650000X0.412500X0.650000X-0.412500X0.650000X0*%
%ADD20RoundRect,0.250000X0.337500X0.475000X-0.337500X0.475000X-0.337500X-0.475000X0.337500X-0.475000X0*%
%ADD21RoundRect,0.250000X-0.475000X0.337500X-0.475000X-0.337500X0.475000X-0.337500X0.475000X0.337500X0*%
%ADD22RoundRect,0.250001X0.462499X0.624999X-0.462499X0.624999X-0.462499X-0.624999X0.462499X-0.624999X0*%
G04 APERTURE END LIST*
D10*
X140000000Y-60000000D03*
X140000000Y-62540000D03*
X140000000Y-65080000D03*
X140000000Y-67620000D03*
X140000000Y-70160000D03*
X140000000Y-72700000D03*
X140000000Y-75240000D03*
X140000000Y-77780000D03*
X140000000Y-80320000D03*
X140000000Y-82860000D03*
X140000000Y-85400000D03*
X140000000Y-87940000D03*
X140000000Y-90480000D03*
X140000000Y-93020000D03*
X140000000Y-95560000D03*
X140000000Y-98100000D03*
X140000000Y-100640000D03*
X140000000Y-103180000D03*
X140000000Y-105720000D03*
D11*
X140000000Y-108260000D03*
D10*
X155000000Y-60000000D03*
X155000000Y-62540000D03*
X155000000Y-65080000D03*
X155000000Y-67620000D03*
X155000000Y-70160000D03*
X155000000Y-72700000D03*
X155000000Y-75240000D03*
X155000000Y-77780000D03*
X155000000Y-80320000D03*
X155000000Y-82860000D03*
X155000000Y-85400000D03*
X155000000Y-87940000D03*
X155000000Y-90480000D03*
X155000000Y-93020000D03*
X155000000Y-95560000D03*
X155000000Y-98100000D03*
D11*
X155000000Y-100640000D03*
X155000000Y-103180000D03*
X155000000Y-105720000D03*
X155000000Y-108260000D03*
X144560001Y-60900000D03*
D10*
X147100001Y-60900000D03*
D11*
X149640000Y-60900000D03*
D12*
X147822500Y-92970000D03*
X144697500Y-92970000D03*
D13*
X151960000Y-100482500D03*
X151960000Y-97357500D03*
D14*
X147140000Y-90850000D03*
X145140000Y-90850000D03*
D15*
X149550000Y-98200000D03*
X149550000Y-100500000D03*
D16*
X143250000Y-100500000D03*
D15*
X149550000Y-102800000D03*
D17*
X144452500Y-63620000D03*
X146527500Y-63620000D03*
D18*
X147220000Y-69500000D03*
X147220000Y-71500000D03*
D19*
X144717500Y-88410000D03*
X147842500Y-88410000D03*
D20*
X149847500Y-83380000D03*
X147772500Y-83380000D03*
D14*
X150280000Y-63620000D03*
X148280000Y-63620000D03*
D12*
X146470000Y-105210000D03*
X143345000Y-105210000D03*
D21*
X149310000Y-69442500D03*
X149310000Y-71517500D03*
D22*
X151017500Y-105230000D03*
X148042500Y-105230000D03*
D20*
X149850000Y-85620000D03*
X147775000Y-85620000D03*
X147307500Y-94970000D03*
X145232500Y-94970000D03*
D12*
X150502500Y-78890000D03*
X147377500Y-78890000D03*
X150482500Y-81270000D03*
X147357500Y-81270000D03*
D11*
X143640001Y-108260000D03*
D10*
X146180001Y-108260000D03*
X148720000Y-108260000D03*
D11*
X151260001Y-108260000D03*
M02*
