%TF.GenerationSoftware,KiCad,Pcbnew,8.0.4*%
%TF.CreationDate,2024-10-13T11:01:52+03:00*%
%TF.ProjectId,stm32f0_nucleo,73746d33-3266-4305-9f6e-75636c656f2e,rev?*%
%TF.SameCoordinates,Original*%
%TF.FileFunction,Drillmap*%
%TF.FilePolarity,Positive*%
%FSLAX45Y45*%
G04 Gerber Fmt 4.5, Leading zero omitted, Abs format (unit mm)*
G04 Created by KiCad (PCBNEW 8.0.4) date 2024-10-13 11:01:52*
%MOMM*%
%LPD*%
G01*
G04 APERTURE LIST*
%ADD10C,0.100000*%
%ADD11C,0.200000*%
G04 APERTURE END LIST*
D10*
X13750000Y-5750000D02*
X15750000Y-5750000D01*
X15750000Y-11050000D01*
X13750000Y-11050000D01*
X13750000Y-5750000D01*
D11*
X14005777Y-11366484D02*
X14005777Y-11166484D01*
X14005777Y-11166484D02*
X14053396Y-11166484D01*
X14053396Y-11166484D02*
X14081967Y-11176008D01*
X14081967Y-11176008D02*
X14101015Y-11195055D01*
X14101015Y-11195055D02*
X14110539Y-11214103D01*
X14110539Y-11214103D02*
X14120062Y-11252198D01*
X14120062Y-11252198D02*
X14120062Y-11280769D01*
X14120062Y-11280769D02*
X14110539Y-11318865D01*
X14110539Y-11318865D02*
X14101015Y-11337912D01*
X14101015Y-11337912D02*
X14081967Y-11356960D01*
X14081967Y-11356960D02*
X14053396Y-11366484D01*
X14053396Y-11366484D02*
X14005777Y-11366484D01*
X14205777Y-11366484D02*
X14205777Y-11233150D01*
X14205777Y-11271246D02*
X14215301Y-11252198D01*
X14215301Y-11252198D02*
X14224824Y-11242674D01*
X14224824Y-11242674D02*
X14243872Y-11233150D01*
X14243872Y-11233150D02*
X14262920Y-11233150D01*
X14329586Y-11366484D02*
X14329586Y-11233150D01*
X14329586Y-11166484D02*
X14320062Y-11176008D01*
X14320062Y-11176008D02*
X14329586Y-11185531D01*
X14329586Y-11185531D02*
X14339110Y-11176008D01*
X14339110Y-11176008D02*
X14329586Y-11166484D01*
X14329586Y-11166484D02*
X14329586Y-11185531D01*
X14453396Y-11366484D02*
X14434348Y-11356960D01*
X14434348Y-11356960D02*
X14424824Y-11337912D01*
X14424824Y-11337912D02*
X14424824Y-11166484D01*
X14558158Y-11366484D02*
X14539110Y-11356960D01*
X14539110Y-11356960D02*
X14529586Y-11337912D01*
X14529586Y-11337912D02*
X14529586Y-11166484D01*
X14786729Y-11366484D02*
X14786729Y-11166484D01*
X14786729Y-11166484D02*
X14853396Y-11309341D01*
X14853396Y-11309341D02*
X14920062Y-11166484D01*
X14920062Y-11166484D02*
X14920062Y-11366484D01*
X15101015Y-11366484D02*
X15101015Y-11261722D01*
X15101015Y-11261722D02*
X15091491Y-11242674D01*
X15091491Y-11242674D02*
X15072443Y-11233150D01*
X15072443Y-11233150D02*
X15034348Y-11233150D01*
X15034348Y-11233150D02*
X15015301Y-11242674D01*
X15101015Y-11356960D02*
X15081967Y-11366484D01*
X15081967Y-11366484D02*
X15034348Y-11366484D01*
X15034348Y-11366484D02*
X15015301Y-11356960D01*
X15015301Y-11356960D02*
X15005777Y-11337912D01*
X15005777Y-11337912D02*
X15005777Y-11318865D01*
X15005777Y-11318865D02*
X15015301Y-11299817D01*
X15015301Y-11299817D02*
X15034348Y-11290293D01*
X15034348Y-11290293D02*
X15081967Y-11290293D01*
X15081967Y-11290293D02*
X15101015Y-11280769D01*
X15196253Y-11233150D02*
X15196253Y-11433150D01*
X15196253Y-11242674D02*
X15215301Y-11233150D01*
X15215301Y-11233150D02*
X15253396Y-11233150D01*
X15253396Y-11233150D02*
X15272443Y-11242674D01*
X15272443Y-11242674D02*
X15281967Y-11252198D01*
X15281967Y-11252198D02*
X15291491Y-11271246D01*
X15291491Y-11271246D02*
X15291491Y-11328388D01*
X15291491Y-11328388D02*
X15281967Y-11347436D01*
X15281967Y-11347436D02*
X15272443Y-11356960D01*
X15272443Y-11356960D02*
X15253396Y-11366484D01*
X15253396Y-11366484D02*
X15215301Y-11366484D01*
X15215301Y-11366484D02*
X15196253Y-11356960D01*
X15377205Y-11347436D02*
X15386729Y-11356960D01*
X15386729Y-11356960D02*
X15377205Y-11366484D01*
X15377205Y-11366484D02*
X15367682Y-11356960D01*
X15367682Y-11356960D02*
X15377205Y-11347436D01*
X15377205Y-11347436D02*
X15377205Y-11366484D01*
X15377205Y-11242674D02*
X15386729Y-11252198D01*
X15386729Y-11252198D02*
X15377205Y-11261722D01*
X15377205Y-11261722D02*
X15367682Y-11252198D01*
X15367682Y-11252198D02*
X15377205Y-11242674D01*
X15377205Y-11242674D02*
X15377205Y-11261722D01*
M02*
